STARTFONT 2.1
FONT -FontForge-Rajdhani-Book-R-Normal--9-90-72-72-P-55-ISO10646-1
SIZE 9 72 72
FONTBOUNDINGBOX 22 12 -4 -3
COMMENT "Generated by fontforge, http://fontforge.sourceforge.net"
COMMENT "Copyright (c) 2014 Indian Type Foundry (info@indiantypefoundry.com)"
STARTPROPERTIES 40
FOUNDRY "FontForge"
FAMILY_NAME "Rajdhani"
WEIGHT_NAME "Book"
SLANT "R"
SETWIDTH_NAME "Normal"
ADD_STYLE_NAME ""
PIXEL_SIZE 9
POINT_SIZE 90
RESOLUTION_X 72
RESOLUTION_Y 72
SPACING "P"
AVERAGE_WIDTH 55
CHARSET_REGISTRY "ISO10646"
CHARSET_ENCODING "1"
FONTNAME_REGISTRY ""
CHARSET_COLLECTIONS "ISO8859-2 ISO8859-9 ISO8859-4 ISO10646-1"
FONT_NAME "Rajdhani-Regular"
FACE_NAME "Rajdhani Regular"
COPYRIGHT "Copyright (c) 2014 Indian Type Foundry (info@indiantypefoundry.com)"
FONT_VERSION "1.201;PS 1.0;hotconv 1.0.78;makeotf.lib2.5.61930; ttfautohint (v1.1) -l 7 -r 28 -G 50 -x 13 -D latn -f deva -w G"
FONT_ASCENT 7
FONT_DESCENT 2
UNDERLINE_POSITION -1
UNDERLINE_THICKNESS 1
X_HEIGHT 4
CAP_HEIGHT 5
DEFAULT_CHAR 3
RAW_ASCENT 800
RAW_DESCENT 200
NORM_SPACE 2
RELATIVE_WEIGHT 40
RELATIVE_SETWIDTH 50
SUPERSCRIPT_X 0
SUPERSCRIPT_Y 3
SUPERSCRIPT_SIZE 5
SUBSCRIPT_X 0
SUBSCRIPT_Y 0
SUBSCRIPT_SIZE 5
AVG_LOWERCASE_WIDTH 41
AVG_UPPERCASE_WIDTH 46
ENDPROPERTIES
CHARS 1043
STARTCHAR NULL.dup1
ENCODING 0
SWIDTH 0 0
DWIDTH 0 0
BBX 1 1 0 0
BITMAP
00
ENDCHAR
STARTCHAR CR
ENCODING 13
SWIDTH 0 0
DWIDTH 0 0
BBX 1 1 0 0
BITMAP
00
ENDCHAR
STARTCHAR space
ENCODING 32
SWIDTH 267 0
DWIDTH 2 0
BBX 1 1 0 0
BITMAP
00
ENDCHAR
STARTCHAR exclam
ENCODING 33
SWIDTH 237 0
DWIDTH 2 0
BBX 1 6 1 0
BITMAP
80
80
80
80
00
80
ENDCHAR
STARTCHAR quotedbl
ENCODING 34
SWIDTH 330 0
DWIDTH 3 0
BBX 1 2 1 4
BITMAP
80
80
ENDCHAR
STARTCHAR numbersign
ENCODING 35
SWIDTH 677 0
DWIDTH 6 0
BBX 6 6 0 0
BITMAP
28
7C
28
50
F8
50
ENDCHAR
STARTCHAR dollar
ENCODING 36
SWIDTH 504 0
DWIDTH 5 0
BBX 3 8 1 -1
BITMAP
40
A0
80
C0
20
A0
A0
40
ENDCHAR
STARTCHAR percent
ENCODING 37
SWIDTH 717 0
DWIDTH 6 0
BBX 6 6 0 0
BITMAP
E8
B0
50
1C
34
2C
ENDCHAR
STARTCHAR ampersand
ENCODING 38
SWIDTH 597 0
DWIDTH 5 0
BBX 4 6 1 0
BITMAP
E0
A0
80
F0
A0
F0
ENDCHAR
STARTCHAR quotesingle
ENCODING 39
SWIDTH 186 0
DWIDTH 2 0
BBX 1 2 0 4
BITMAP
80
80
ENDCHAR
STARTCHAR parenleft
ENCODING 40
SWIDTH 283 0
DWIDTH 3 0
BBX 2 8 0 -2
BITMAP
40
80
80
80
80
80
80
40
ENDCHAR
STARTCHAR parenright
ENCODING 41
SWIDTH 283 0
DWIDTH 3 0
BBX 2 8 0 -2
BITMAP
C0
40
40
40
40
40
40
80
ENDCHAR
STARTCHAR asterisk
ENCODING 42
SWIDTH 406 0
DWIDTH 4 0
BBX 2 2 1 4
BITMAP
80
C0
ENDCHAR
STARTCHAR plus
ENCODING 43
SWIDTH 523 0
DWIDTH 5 0
BBX 3 4 1 1
BITMAP
40
E0
40
40
ENDCHAR
STARTCHAR comma
ENCODING 44
SWIDTH 191 0
DWIDTH 2 0
BBX 1 2 0 -1
BITMAP
80
80
ENDCHAR
STARTCHAR hyphen
ENCODING 45
SWIDTH 312 0
DWIDTH 3 0
BBX 2 1 0 3
BITMAP
C0
ENDCHAR
STARTCHAR period
ENCODING 46
SWIDTH 191 0
DWIDTH 2 0
BBX 1 1 0 0
BITMAP
80
ENDCHAR
STARTCHAR slash
ENCODING 47
SWIDTH 396 0
DWIDTH 4 0
BBX 2 6 1 0
BITMAP
40
40
80
80
80
80
ENDCHAR
STARTCHAR zero
ENCODING 48
SWIDTH 514 0
DWIDTH 5 0
BBX 3 6 1 0
BITMAP
E0
A0
A0
A0
A0
E0
ENDCHAR
STARTCHAR one
ENCODING 49
SWIDTH 317 0
DWIDTH 3 0
BBX 2 6 0 0
BITMAP
C0
40
40
40
40
40
ENDCHAR
STARTCHAR two
ENCODING 50
SWIDTH 478 0
DWIDTH 4 0
BBX 4 6 0 0
BITMAP
70
90
10
60
80
F0
ENDCHAR
STARTCHAR three
ENCODING 51
SWIDTH 496 0
DWIDTH 4 0
BBX 3 6 1 0
BITMAP
E0
20
40
20
A0
E0
ENDCHAR
STARTCHAR four
ENCODING 52
SWIDTH 520 0
DWIDTH 5 0
BBX 4 6 0 0
BITMAP
10
30
50
50
F0
10
ENDCHAR
STARTCHAR five
ENCODING 53
SWIDTH 482 0
DWIDTH 4 0
BBX 3 6 1 0
BITMAP
E0
80
C0
20
A0
E0
ENDCHAR
STARTCHAR six
ENCODING 54
SWIDTH 497 0
DWIDTH 4 0
BBX 3 6 1 0
BITMAP
E0
80
C0
A0
A0
E0
ENDCHAR
STARTCHAR seven
ENCODING 55
SWIDTH 380 0
DWIDTH 3 0
BBX 3 6 0 0
BITMAP
E0
20
20
40
40
40
ENDCHAR
STARTCHAR eight
ENCODING 56
SWIDTH 519 0
DWIDTH 5 0
BBX 3 6 1 0
BITMAP
E0
A0
C0
A0
A0
E0
ENDCHAR
STARTCHAR nine
ENCODING 57
SWIDTH 497 0
DWIDTH 4 0
BBX 4 6 0 0
BITMAP
70
90
90
70
10
70
ENDCHAR
STARTCHAR colon
ENCODING 58
SWIDTH 191 0
DWIDTH 2 0
BBX 1 5 0 0
BITMAP
80
00
00
00
80
ENDCHAR
STARTCHAR semicolon
ENCODING 59
SWIDTH 191 0
DWIDTH 2 0
BBX 1 6 0 -1
BITMAP
80
00
00
80
80
80
ENDCHAR
STARTCHAR less
ENCODING 60
SWIDTH 513 0
DWIDTH 5 0
BBX 3 4 1 1
BITMAP
20
C0
40
20
ENDCHAR
STARTCHAR equal
ENCODING 61
SWIDTH 531 0
DWIDTH 5 0
BBX 3 3 1 2
BITMAP
E0
00
E0
ENDCHAR
STARTCHAR greater
ENCODING 62
SWIDTH 531 0
DWIDTH 5 0
BBX 3 3 1 2
BITMAP
80
60
C0
ENDCHAR
STARTCHAR question
ENCODING 63
SWIDTH 473 0
DWIDTH 4 0
BBX 3 6 1 0
BITMAP
E0
A0
40
40
00
40
ENDCHAR
STARTCHAR at
ENCODING 64
SWIDTH 753 0
DWIDTH 7 0
BBX 5 7 1 -1
BITMAP
70
B8
D8
98
98
B0
70
ENDCHAR
STARTCHAR A
ENCODING 65
SWIDTH 533 0
DWIDTH 5 0
BBX 5 6 0 0
BITMAP
20
60
50
50
70
88
ENDCHAR
STARTCHAR B
ENCODING 66
SWIDTH 546 0
DWIDTH 5 0
BBX 3 6 1 0
BITMAP
E0
A0
C0
A0
A0
E0
ENDCHAR
STARTCHAR C
ENCODING 67
SWIDTH 542 0
DWIDTH 5 0
BBX 3 6 1 0
BITMAP
E0
A0
80
80
A0
E0
ENDCHAR
STARTCHAR D
ENCODING 68
SWIDTH 557 0
DWIDTH 5 0
BBX 3 6 1 0
BITMAP
E0
A0
A0
A0
A0
E0
ENDCHAR
STARTCHAR E
ENCODING 69
SWIDTH 481 0
DWIDTH 4 0
BBX 3 6 1 0
BITMAP
E0
80
C0
80
80
E0
ENDCHAR
STARTCHAR F
ENCODING 70
SWIDTH 459 0
DWIDTH 4 0
BBX 3 6 1 0
BITMAP
E0
80
C0
80
80
80
ENDCHAR
STARTCHAR G
ENCODING 71
SWIDTH 539 0
DWIDTH 5 0
BBX 3 6 1 0
BITMAP
E0
80
A0
A0
A0
E0
ENDCHAR
STARTCHAR H
ENCODING 72
SWIDTH 570 0
DWIDTH 5 0
BBX 3 6 1 0
BITMAP
A0
A0
E0
A0
A0
A0
ENDCHAR
STARTCHAR I
ENCODING 73
SWIDTH 230 0
DWIDTH 2 0
BBX 1 6 1 0
BITMAP
80
80
80
80
80
80
ENDCHAR
STARTCHAR J
ENCODING 74
SWIDTH 499 0
DWIDTH 4 0
BBX 4 6 0 0
BITMAP
10
10
10
10
90
F0
ENDCHAR
STARTCHAR K
ENCODING 75
SWIDTH 530 0
DWIDTH 5 0
BBX 4 6 1 0
BITMAP
A0
C0
C0
C0
A0
90
ENDCHAR
STARTCHAR L
ENCODING 76
SWIDTH 451 0
DWIDTH 4 0
BBX 3 6 1 0
BITMAP
80
80
80
80
80
E0
ENDCHAR
STARTCHAR M
ENCODING 77
SWIDTH 696 0
DWIDTH 6 0
BBX 5 6 1 0
BITMAP
88
98
98
E8
A8
88
ENDCHAR
STARTCHAR N
ENCODING 78
SWIDTH 579 0
DWIDTH 5 0
BBX 3 6 1 0
BITMAP
A0
A0
E0
E0
A0
A0
ENDCHAR
STARTCHAR O
ENCODING 79
SWIDTH 553 0
DWIDTH 5 0
BBX 3 6 1 0
BITMAP
E0
A0
A0
A0
A0
E0
ENDCHAR
STARTCHAR P
ENCODING 80
SWIDTH 524 0
DWIDTH 5 0
BBX 3 6 1 0
BITMAP
E0
A0
A0
E0
80
80
ENDCHAR
STARTCHAR Q
ENCODING 81
SWIDTH 556 0
DWIDTH 5 0
BBX 3 7 1 -1
BITMAP
E0
A0
A0
A0
A0
E0
20
ENDCHAR
STARTCHAR R
ENCODING 82
SWIDTH 534 0
DWIDTH 5 0
BBX 3 6 1 0
BITMAP
E0
A0
A0
E0
A0
A0
ENDCHAR
STARTCHAR S
ENCODING 83
SWIDTH 562 0
DWIDTH 5 0
BBX 3 6 1 0
BITMAP
E0
A0
C0
20
A0
E0
ENDCHAR
STARTCHAR T
ENCODING 84
SWIDTH 420 0
DWIDTH 4 0
BBX 4 6 0 0
BITMAP
F0
40
40
40
40
40
ENDCHAR
STARTCHAR U
ENCODING 85
SWIDTH 552 0
DWIDTH 5 0
BBX 3 6 1 0
BITMAP
A0
A0
A0
A0
A0
E0
ENDCHAR
STARTCHAR V
ENCODING 86
SWIDTH 500 0
DWIDTH 5 0
BBX 4 6 0 0
BITMAP
90
90
50
50
60
20
ENDCHAR
STARTCHAR W
ENCODING 87
SWIDTH 794 0
DWIDTH 7 0
BBX 7 6 0 0
BITMAP
92
92
6A
6C
64
44
ENDCHAR
STARTCHAR X
ENCODING 88
SWIDTH 504 0
DWIDTH 5 0
BBX 4 6 0 0
BITMAP
90
50
20
20
50
90
ENDCHAR
STARTCHAR Y
ENCODING 89
SWIDTH 493 0
DWIDTH 4 0
BBX 4 6 0 0
BITMAP
90
50
60
20
20
20
ENDCHAR
STARTCHAR Z
ENCODING 90
SWIDTH 482 0
DWIDTH 4 0
BBX 4 6 0 0
BITMAP
F0
10
20
40
40
F0
ENDCHAR
STARTCHAR bracketleft
ENCODING 91
SWIDTH 287 0
DWIDTH 3 0
BBX 1 8 1 -2
BITMAP
80
80
80
80
80
80
80
80
ENDCHAR
STARTCHAR backslash
ENCODING 92
SWIDTH 396 0
DWIDTH 4 0
BBX 3 6 0 0
BITMAP
80
40
40
40
20
20
ENDCHAR
STARTCHAR bracketright
ENCODING 93
SWIDTH 287 0
DWIDTH 3 0
BBX 1 8 1 -2
BITMAP
80
80
80
80
80
80
80
80
ENDCHAR
STARTCHAR asciicircum
ENCODING 94
SWIDTH 465 0
DWIDTH 4 0
BBX 3 2 1 4
BITMAP
40
E0
ENDCHAR
STARTCHAR underscore
ENCODING 95
SWIDTH 372 0
DWIDTH 3 0
BBX 3 1 0 -1
BITMAP
E0
ENDCHAR
STARTCHAR grave
ENCODING 96
SWIDTH 269 0
DWIDTH 2 0
BBX 1 1 1 6
BITMAP
80
ENDCHAR
STARTCHAR a
ENCODING 97
SWIDTH 502 0
DWIDTH 5 0
BBX 3 5 1 0
BITMAP
E0
A0
A0
A0
E0
ENDCHAR
STARTCHAR b
ENCODING 98
SWIDTH 504 0
DWIDTH 5 0
BBX 3 7 1 0
BITMAP
80
80
E0
A0
A0
A0
E0
ENDCHAR
STARTCHAR c
ENCODING 99
SWIDTH 394 0
DWIDTH 4 0
BBX 2 5 1 0
BITMAP
C0
80
80
80
C0
ENDCHAR
STARTCHAR d
ENCODING 100
SWIDTH 504 0
DWIDTH 5 0
BBX 3 7 1 0
BITMAP
20
20
E0
A0
A0
A0
E0
ENDCHAR
STARTCHAR e
ENCODING 101
SWIDTH 492 0
DWIDTH 4 0
BBX 3 5 1 0
BITMAP
E0
A0
E0
80
E0
ENDCHAR
STARTCHAR f
ENCODING 102
SWIDTH 303 0
DWIDTH 3 0
BBX 3 7 0 0
BITMAP
60
40
E0
40
40
40
40
ENDCHAR
STARTCHAR g
ENCODING 103
SWIDTH 506 0
DWIDTH 5 0
BBX 3 6 1 -1
BITMAP
E0
A0
A0
A0
E0
E0
ENDCHAR
STARTCHAR h
ENCODING 104
SWIDTH 507 0
DWIDTH 5 0
BBX 3 7 1 0
BITMAP
80
80
E0
A0
A0
A0
A0
ENDCHAR
STARTCHAR i
ENCODING 105
SWIDTH 210 0
DWIDTH 2 0
BBX 1 7 0 0
BITMAP
80
00
80
80
80
80
80
ENDCHAR
STARTCHAR j
ENCODING 106
SWIDTH 210 0
DWIDTH 2 0
BBX 1 8 0 -1
BITMAP
80
00
80
80
80
80
80
80
ENDCHAR
STARTCHAR k
ENCODING 107
SWIDTH 431 0
DWIDTH 4 0
BBX 3 7 1 0
BITMAP
80
80
A0
C0
80
C0
A0
ENDCHAR
STARTCHAR l
ENCODING 108
SWIDTH 210 0
DWIDTH 2 0
BBX 1 7 0 0
BITMAP
80
80
80
80
80
80
80
ENDCHAR
STARTCHAR m
ENCODING 109
SWIDTH 769 0
DWIDTH 7 0
BBX 5 5 1 0
BITMAP
F8
A8
A8
A8
A8
ENDCHAR
STARTCHAR n
ENCODING 110
SWIDTH 507 0
DWIDTH 5 0
BBX 3 5 1 0
BITMAP
E0
A0
A0
A0
A0
ENDCHAR
STARTCHAR o
ENCODING 111
SWIDTH 496 0
DWIDTH 4 0
BBX 3 5 1 0
BITMAP
E0
A0
A0
A0
E0
ENDCHAR
STARTCHAR p
ENCODING 112
SWIDTH 504 0
DWIDTH 5 0
BBX 3 6 1 -1
BITMAP
E0
A0
A0
A0
E0
80
ENDCHAR
STARTCHAR q
ENCODING 113
SWIDTH 502 0
DWIDTH 5 0
BBX 3 6 1 -1
BITMAP
E0
A0
A0
A0
E0
20
ENDCHAR
STARTCHAR r
ENCODING 114
SWIDTH 313 0
DWIDTH 3 0
BBX 2 5 1 0
BITMAP
C0
80
80
80
80
ENDCHAR
STARTCHAR s
ENCODING 115
SWIDTH 431 0
DWIDTH 4 0
BBX 3 5 0 0
BITMAP
E0
80
60
20
E0
ENDCHAR
STARTCHAR t
ENCODING 116
SWIDTH 347 0
DWIDTH 3 0
BBX 3 6 0 0
BITMAP
40
E0
40
40
40
60
ENDCHAR
STARTCHAR u
ENCODING 117
SWIDTH 507 0
DWIDTH 5 0
BBX 3 5 1 0
BITMAP
A0
A0
A0
A0
E0
ENDCHAR
STARTCHAR v
ENCODING 118
SWIDTH 416 0
DWIDTH 4 0
BBX 4 5 0 0
BITMAP
90
A0
60
60
40
ENDCHAR
STARTCHAR w
ENCODING 119
SWIDTH 683 0
DWIDTH 6 0
BBX 6 5 0 0
BITMAP
94
B4
74
58
48
ENDCHAR
STARTCHAR x
ENCODING 120
SWIDTH 413 0
DWIDTH 4 0
BBX 4 5 0 0
BITMAP
A0
60
40
60
90
ENDCHAR
STARTCHAR y
ENCODING 121
SWIDTH 459 0
DWIDTH 4 0
BBX 4 6 0 -1
BITMAP
90
90
60
60
20
C0
ENDCHAR
STARTCHAR z
ENCODING 122
SWIDTH 405 0
DWIDTH 4 0
BBX 3 5 0 0
BITMAP
E0
20
40
40
E0
ENDCHAR
STARTCHAR braceleft
ENCODING 123
SWIDTH 298 0
DWIDTH 3 0
BBX 2 8 0 -2
BITMAP
40
40
40
80
40
40
40
40
ENDCHAR
STARTCHAR bar
ENCODING 124
SWIDTH 207 0
DWIDTH 2 0
BBX 1 6 0 0
BITMAP
80
80
80
80
80
80
ENDCHAR
STARTCHAR braceright
ENCODING 125
SWIDTH 298 0
DWIDTH 3 0
BBX 2 8 0 -2
BITMAP
C0
40
40
40
40
40
40
80
ENDCHAR
STARTCHAR asciitilde
ENCODING 126
SWIDTH 523 0
DWIDTH 5 0
BBX 3 1 1 3
BITMAP
E0
ENDCHAR
STARTCHAR uni00A0
ENCODING 160
SWIDTH 267 0
DWIDTH 2 0
BBX 1 1 0 0
BITMAP
00
ENDCHAR
STARTCHAR exclamdown
ENCODING 161
SWIDTH 237 0
DWIDTH 2 0
BBX 1 6 1 0
BITMAP
80
00
80
80
80
80
ENDCHAR
STARTCHAR cent
ENCODING 162
SWIDTH 414 0
DWIDTH 4 0
BBX 2 7 1 -1
BITMAP
40
80
80
80
80
80
40
ENDCHAR
STARTCHAR sterling
ENCODING 163
SWIDTH 528 0
DWIDTH 5 0
BBX 4 6 0 0
BITMAP
70
50
40
E0
40
F0
ENDCHAR
STARTCHAR yen
ENCODING 165
SWIDTH 499 0
DWIDTH 4 0
BBX 4 6 0 0
BITMAP
90
50
F0
20
F0
20
ENDCHAR
STARTCHAR brokenbar
ENCODING 166
SWIDTH 201 0
DWIDTH 2 0
BBX 1 6 0 0
BITMAP
80
80
80
80
80
80
ENDCHAR
STARTCHAR section
ENCODING 167
SWIDTH 454 0
DWIDTH 4 0
BBX 3 6 1 0
BITMAP
C0
80
C0
E0
20
E0
ENDCHAR
STARTCHAR dieresis
ENCODING 168
SWIDTH 345 0
DWIDTH 3 0
BBX 2 1 1 6
BITMAP
C0
ENDCHAR
STARTCHAR copyright
ENCODING 169
SWIDTH 723 0
DWIDTH 7 0
BBX 5 6 1 0
BITMAP
F8
F8
88
98
E8
F8
ENDCHAR
STARTCHAR guillemotleft
ENCODING 171
SWIDTH 431 0
DWIDTH 4 0
BBX 2 3 1 1
BITMAP
C0
80
C0
ENDCHAR
STARTCHAR registered
ENCODING 174
SWIDTH 439 0
DWIDTH 4 0
BBX 2 4 1 3
BITMAP
C0
C0
C0
C0
ENDCHAR
STARTCHAR macron
ENCODING 175
SWIDTH 358 0
DWIDTH 3 0
BBX 2 1 1 5
BITMAP
C0
ENDCHAR
STARTCHAR degree
ENCODING 176
SWIDTH 298 0
DWIDTH 3 0
BBX 1 2 1 5
BITMAP
80
80
ENDCHAR
STARTCHAR plusminus
ENCODING 177
SWIDTH 523 0
DWIDTH 5 0
BBX 3 4 1 1
BITMAP
40
E0
40
E0
ENDCHAR
STARTCHAR acute
ENCODING 180
SWIDTH 269 0
DWIDTH 2 0
BBX 1 1 1 6
BITMAP
80
ENDCHAR
STARTCHAR paragraph
ENCODING 182
SWIDTH 513 0
DWIDTH 5 0
BBX 4 6 0 0
BITMAP
70
D0
50
50
50
50
ENDCHAR
STARTCHAR periodcentered
ENCODING 183
SWIDTH 207 0
DWIDTH 2 0
BBX 1 1 0 3
BITMAP
80
ENDCHAR
STARTCHAR cedilla
ENCODING 184
SWIDTH 257 0
DWIDTH 2 0
BBX 1 2 1 -2
BITMAP
80
80
ENDCHAR
STARTCHAR guillemotright
ENCODING 187
SWIDTH 431 0
DWIDTH 4 0
BBX 2 3 1 1
BITMAP
C0
C0
C0
ENDCHAR
STARTCHAR questiondown
ENCODING 191
SWIDTH 473 0
DWIDTH 4 0
BBX 3 6 1 0
BITMAP
40
00
40
80
A0
E0
ENDCHAR
STARTCHAR Agrave
ENCODING 192
SWIDTH 532 0
DWIDTH 5 0
BBX 5 8 0 0
BITMAP
60
00
20
60
50
50
70
88
ENDCHAR
STARTCHAR Aacute
ENCODING 193
SWIDTH 532 0
DWIDTH 5 0
BBX 5 8 0 0
BITMAP
20
00
20
60
50
50
70
88
ENDCHAR
STARTCHAR Acircumflex
ENCODING 194
SWIDTH 532 0
DWIDTH 5 0
BBX 5 8 0 0
BITMAP
20
00
20
60
50
50
70
88
ENDCHAR
STARTCHAR Atilde
ENCODING 195
SWIDTH 532 0
DWIDTH 5 0
BBX 5 8 0 0
BITMAP
70
00
20
60
50
50
70
88
ENDCHAR
STARTCHAR Adieresis
ENCODING 196
SWIDTH 532 0
DWIDTH 5 0
BBX 5 8 0 0
BITMAP
50
00
20
60
50
50
70
88
ENDCHAR
STARTCHAR Aring
ENCODING 197
SWIDTH 532 0
DWIDTH 5 0
BBX 5 9 0 0
BITMAP
20
60
00
20
60
50
50
70
88
ENDCHAR
STARTCHAR AE
ENCODING 198
SWIDTH 773 0
DWIDTH 7 0
BBX 6 6 0 0
BITMAP
1C
30
3C
50
70
9C
ENDCHAR
STARTCHAR Ccedilla
ENCODING 199
SWIDTH 542 0
DWIDTH 5 0
BBX 3 8 1 -2
BITMAP
E0
A0
80
80
A0
A0
40
40
ENDCHAR
STARTCHAR Egrave
ENCODING 200
SWIDTH 481 0
DWIDTH 4 0
BBX 3 8 1 0
BITMAP
80
00
E0
80
C0
80
80
E0
ENDCHAR
STARTCHAR Eacute
ENCODING 201
SWIDTH 481 0
DWIDTH 4 0
BBX 3 8 1 0
BITMAP
40
00
E0
80
C0
80
80
E0
ENDCHAR
STARTCHAR Ecircumflex
ENCODING 202
SWIDTH 481 0
DWIDTH 4 0
BBX 3 8 1 0
BITMAP
C0
00
E0
80
C0
80
80
E0
ENDCHAR
STARTCHAR Edieresis
ENCODING 203
SWIDTH 481 0
DWIDTH 4 0
BBX 3 8 1 0
BITMAP
C0
00
E0
80
C0
80
80
E0
ENDCHAR
STARTCHAR Igrave
ENCODING 204
SWIDTH 230 0
DWIDTH 2 0
BBX 1 8 0 0
BITMAP
80
00
80
80
80
80
80
80
ENDCHAR
STARTCHAR Iacute
ENCODING 205
SWIDTH 231 0
DWIDTH 2 0
BBX 1 8 1 0
BITMAP
80
00
80
80
80
80
80
80
ENDCHAR
STARTCHAR Icircumflex
ENCODING 206
SWIDTH 229 0
DWIDTH 2 0
BBX 2 8 0 0
BITMAP
C0
00
40
40
40
40
40
40
ENDCHAR
STARTCHAR Idieresis
ENCODING 207
SWIDTH 230 0
DWIDTH 2 0
BBX 2 8 0 0
BITMAP
C0
00
40
40
40
40
40
40
ENDCHAR
STARTCHAR Eth
ENCODING 208
SWIDTH 514 0
DWIDTH 5 0
BBX 4 6 0 0
BITMAP
70
50
F0
50
50
70
ENDCHAR
STARTCHAR Ntilde
ENCODING 209
SWIDTH 579 0
DWIDTH 5 0
BBX 3 8 1 0
BITMAP
60
00
A0
A0
E0
E0
A0
A0
ENDCHAR
STARTCHAR Ograve
ENCODING 210
SWIDTH 553 0
DWIDTH 5 0
BBX 3 8 1 0
BITMAP
C0
00
E0
A0
A0
A0
A0
E0
ENDCHAR
STARTCHAR Oacute
ENCODING 211
SWIDTH 553 0
DWIDTH 5 0
BBX 3 8 1 0
BITMAP
40
00
E0
A0
A0
A0
A0
E0
ENDCHAR
STARTCHAR Ocircumflex
ENCODING 212
SWIDTH 553 0
DWIDTH 5 0
BBX 3 8 1 0
BITMAP
40
00
E0
A0
A0
A0
A0
E0
ENDCHAR
STARTCHAR Otilde
ENCODING 213
SWIDTH 553 0
DWIDTH 5 0
BBX 3 8 1 0
BITMAP
40
00
E0
A0
A0
A0
A0
E0
ENDCHAR
STARTCHAR Odieresis
ENCODING 214
SWIDTH 553 0
DWIDTH 5 0
BBX 3 8 1 0
BITMAP
A0
00
E0
A0
A0
A0
A0
E0
ENDCHAR
STARTCHAR multiply
ENCODING 215
SWIDTH 493 0
DWIDTH 4 0
BBX 3 3 1 2
BITMAP
A0
40
E0
ENDCHAR
STARTCHAR Oslash
ENCODING 216
SWIDTH 559 0
DWIDTH 5 0
BBX 5 6 0 0
BITMAP
78
90
A8
A8
48
F0
ENDCHAR
STARTCHAR Ugrave
ENCODING 217
SWIDTH 552 0
DWIDTH 5 0
BBX 3 8 1 0
BITMAP
40
00
A0
A0
A0
A0
A0
E0
ENDCHAR
STARTCHAR Uacute
ENCODING 218
SWIDTH 552 0
DWIDTH 5 0
BBX 3 8 1 0
BITMAP
40
00
A0
A0
A0
A0
A0
E0
ENDCHAR
STARTCHAR Ucircumflex
ENCODING 219
SWIDTH 552 0
DWIDTH 5 0
BBX 3 8 1 0
BITMAP
40
00
A0
A0
A0
A0
A0
E0
ENDCHAR
STARTCHAR Udieresis
ENCODING 220
SWIDTH 552 0
DWIDTH 5 0
BBX 3 8 1 0
BITMAP
A0
00
A0
A0
A0
A0
A0
E0
ENDCHAR
STARTCHAR Yacute
ENCODING 221
SWIDTH 493 0
DWIDTH 4 0
BBX 4 8 0 0
BITMAP
20
00
90
50
60
20
20
20
ENDCHAR
STARTCHAR Thorn
ENCODING 222
SWIDTH 501 0
DWIDTH 5 0
BBX 3 6 1 0
BITMAP
80
E0
A0
A0
C0
80
ENDCHAR
STARTCHAR germandbls
ENCODING 223
SWIDTH 540 0
DWIDTH 5 0
BBX 3 6 1 0
BITMAP
E0
A0
C0
A0
A0
E0
ENDCHAR
STARTCHAR agrave
ENCODING 224
SWIDTH 502 0
DWIDTH 5 0
BBX 3 7 1 0
BITMAP
C0
00
E0
A0
A0
A0
E0
ENDCHAR
STARTCHAR aacute
ENCODING 225
SWIDTH 502 0
DWIDTH 5 0
BBX 3 7 1 0
BITMAP
40
00
E0
A0
A0
A0
E0
ENDCHAR
STARTCHAR acircumflex
ENCODING 226
SWIDTH 502 0
DWIDTH 5 0
BBX 3 7 1 0
BITMAP
40
80
E0
A0
A0
A0
E0
ENDCHAR
STARTCHAR atilde
ENCODING 227
SWIDTH 504 0
DWIDTH 5 0
BBX 3 7 1 0
BITMAP
C0
A0
E0
A0
A0
A0
E0
ENDCHAR
STARTCHAR adieresis
ENCODING 228
SWIDTH 502 0
DWIDTH 5 0
BBX 3 7 1 0
BITMAP
A0
00
E0
A0
A0
A0
E0
ENDCHAR
STARTCHAR aring
ENCODING 229
SWIDTH 502 0
DWIDTH 5 0
BBX 3 8 1 0
BITMAP
40
C0
40
A0
A0
A0
A0
E0
ENDCHAR
STARTCHAR ae
ENCODING 230
SWIDTH 795 0
DWIDTH 7 0
BBX 6 5 1 0
BITMAP
F8
24
FC
A0
FC
ENDCHAR
STARTCHAR ccedilla
ENCODING 231
SWIDTH 394 0
DWIDTH 4 0
BBX 2 7 1 -2
BITMAP
C0
80
80
80
80
40
40
ENDCHAR
STARTCHAR egrave
ENCODING 232
SWIDTH 492 0
DWIDTH 4 0
BBX 3 7 1 0
BITMAP
80
00
E0
A0
E0
80
E0
ENDCHAR
STARTCHAR eacute
ENCODING 233
SWIDTH 492 0
DWIDTH 4 0
BBX 3 7 1 0
BITMAP
40
00
E0
A0
E0
80
E0
ENDCHAR
STARTCHAR ecircumflex
ENCODING 234
SWIDTH 492 0
DWIDTH 4 0
BBX 3 7 1 0
BITMAP
40
80
E0
A0
E0
80
E0
ENDCHAR
STARTCHAR edieresis
ENCODING 235
SWIDTH 492 0
DWIDTH 4 0
BBX 3 7 1 0
BITMAP
C0
00
E0
A0
E0
80
E0
ENDCHAR
STARTCHAR igrave
ENCODING 236
SWIDTH 210 0
DWIDTH 2 0
BBX 1 7 0 0
BITMAP
80
00
80
80
80
80
80
ENDCHAR
STARTCHAR iacute
ENCODING 237
SWIDTH 208 0
DWIDTH 2 0
BBX 1 7 1 0
BITMAP
80
00
80
80
80
80
80
ENDCHAR
STARTCHAR icircumflex
ENCODING 238
SWIDTH 210 0
DWIDTH 2 0
BBX 2 7 0 0
BITMAP
80
40
80
80
80
80
80
ENDCHAR
STARTCHAR idieresis
ENCODING 239
SWIDTH 210 0
DWIDTH 2 0
BBX 2 7 0 0
BITMAP
C0
00
80
80
80
80
80
ENDCHAR
STARTCHAR eth
ENCODING 240
SWIDTH 488 0
DWIDTH 4 0
BBX 3 7 1 0
BITMAP
80
40
C0
E0
A0
A0
E0
ENDCHAR
STARTCHAR ntilde
ENCODING 241
SWIDTH 507 0
DWIDTH 5 0
BBX 3 7 1 0
BITMAP
C0
A0
E0
A0
A0
A0
A0
ENDCHAR
STARTCHAR ograve
ENCODING 242
SWIDTH 496 0
DWIDTH 4 0
BBX 3 7 1 0
BITMAP
80
00
E0
A0
A0
A0
E0
ENDCHAR
STARTCHAR oacute
ENCODING 243
SWIDTH 496 0
DWIDTH 4 0
BBX 3 7 1 0
BITMAP
40
00
E0
A0
A0
A0
E0
ENDCHAR
STARTCHAR ocircumflex
ENCODING 244
SWIDTH 496 0
DWIDTH 4 0
BBX 3 7 1 0
BITMAP
40
80
E0
A0
A0
A0
E0
ENDCHAR
STARTCHAR otilde
ENCODING 245
SWIDTH 496 0
DWIDTH 4 0
BBX 3 7 1 0
BITMAP
C0
A0
E0
A0
A0
A0
E0
ENDCHAR
STARTCHAR odieresis
ENCODING 246
SWIDTH 496 0
DWIDTH 4 0
BBX 3 7 1 0
BITMAP
C0
00
E0
A0
A0
A0
E0
ENDCHAR
STARTCHAR divide
ENCODING 247
SWIDTH 510 0
DWIDTH 5 0
BBX 3 4 1 1
BITMAP
40
E0
00
40
ENDCHAR
STARTCHAR oslash
ENCODING 248
SWIDTH 521 0
DWIDTH 5 0
BBX 4 5 0 0
BITMAP
70
90
B0
50
F0
ENDCHAR
STARTCHAR ugrave
ENCODING 249
SWIDTH 507 0
DWIDTH 5 0
BBX 3 7 1 0
BITMAP
80
00
A0
A0
A0
A0
E0
ENDCHAR
STARTCHAR uacute
ENCODING 250
SWIDTH 507 0
DWIDTH 5 0
BBX 3 7 1 0
BITMAP
40
00
A0
A0
A0
A0
E0
ENDCHAR
STARTCHAR ucircumflex
ENCODING 251
SWIDTH 507 0
DWIDTH 5 0
BBX 3 7 1 0
BITMAP
40
80
A0
A0
A0
A0
E0
ENDCHAR
STARTCHAR udieresis
ENCODING 252
SWIDTH 507 0
DWIDTH 5 0
BBX 3 7 1 0
BITMAP
C0
00
A0
A0
A0
A0
E0
ENDCHAR
STARTCHAR yacute
ENCODING 253
SWIDTH 459 0
DWIDTH 4 0
BBX 4 8 0 -1
BITMAP
20
00
90
90
60
60
20
C0
ENDCHAR
STARTCHAR thorn
ENCODING 254
SWIDTH 508 0
DWIDTH 5 0
BBX 3 8 1 -1
BITMAP
80
80
E0
A0
A0
A0
E0
80
ENDCHAR
STARTCHAR ydieresis
ENCODING 255
SWIDTH 459 0
DWIDTH 4 0
BBX 4 8 0 -1
BITMAP
60
00
90
90
60
60
20
C0
ENDCHAR
STARTCHAR Amacron
ENCODING 256
SWIDTH 532 0
DWIDTH 5 0
BBX 5 8 0 0
BITMAP
60
00
20
60
50
50
70
88
ENDCHAR
STARTCHAR amacron
ENCODING 257
SWIDTH 502 0
DWIDTH 5 0
BBX 3 6 1 0
BITMAP
E0
E0
A0
A0
A0
E0
ENDCHAR
STARTCHAR Abreve
ENCODING 258
SWIDTH 532 0
DWIDTH 5 0
BBX 5 9 0 0
BITMAP
50
20
00
20
60
50
50
70
88
ENDCHAR
STARTCHAR abreve
ENCODING 259
SWIDTH 502 0
DWIDTH 5 0
BBX 3 7 1 0
BITMAP
A0
40
A0
A0
A0
A0
E0
ENDCHAR
STARTCHAR Aogonek
ENCODING 260
SWIDTH 532 0
DWIDTH 5 0
BBX 5 7 0 -1
BITMAP
20
60
50
50
70
88
10
ENDCHAR
STARTCHAR aogonek
ENCODING 261
SWIDTH 502 0
DWIDTH 5 0
BBX 3 6 1 -1
BITMAP
E0
A0
A0
A0
E0
20
ENDCHAR
STARTCHAR Cacute
ENCODING 262
SWIDTH 542 0
DWIDTH 5 0
BBX 3 8 1 0
BITMAP
40
00
E0
A0
80
80
A0
E0
ENDCHAR
STARTCHAR cacute
ENCODING 263
SWIDTH 394 0
DWIDTH 4 0
BBX 2 7 1 0
BITMAP
40
00
C0
80
80
80
C0
ENDCHAR
STARTCHAR Cdotaccent
ENCODING 266
SWIDTH 542 0
DWIDTH 5 0
BBX 3 8 1 0
BITMAP
40
00
E0
A0
80
80
A0
E0
ENDCHAR
STARTCHAR cdotaccent
ENCODING 267
SWIDTH 394 0
DWIDTH 4 0
BBX 2 7 1 0
BITMAP
40
00
C0
80
80
80
C0
ENDCHAR
STARTCHAR Ccaron
ENCODING 268
SWIDTH 542 0
DWIDTH 5 0
BBX 3 8 1 0
BITMAP
40
00
E0
A0
80
80
A0
E0
ENDCHAR
STARTCHAR ccaron
ENCODING 269
SWIDTH 394 0
DWIDTH 4 0
BBX 2 7 1 0
BITMAP
C0
00
C0
80
80
80
C0
ENDCHAR
STARTCHAR Dcaron
ENCODING 270
SWIDTH 557 0
DWIDTH 5 0
BBX 3 8 1 0
BITMAP
40
00
E0
A0
A0
A0
A0
E0
ENDCHAR
STARTCHAR dcaron
ENCODING 271
SWIDTH 534 0
DWIDTH 5 0
BBX 4 7 1 0
BITMAP
30
30
E0
A0
A0
A0
E0
ENDCHAR
STARTCHAR Dcroat
ENCODING 272
SWIDTH 514 0
DWIDTH 5 0
BBX 4 6 0 0
BITMAP
70
50
F0
50
50
70
ENDCHAR
STARTCHAR dcroat
ENCODING 273
SWIDTH 539 0
DWIDTH 5 0
BBX 4 7 1 0
BITMAP
20
70
E0
A0
A0
A0
E0
ENDCHAR
STARTCHAR Emacron
ENCODING 274
SWIDTH 481 0
DWIDTH 4 0
BBX 3 8 1 0
BITMAP
C0
00
E0
80
C0
80
80
E0
ENDCHAR
STARTCHAR emacron
ENCODING 275
SWIDTH 492 0
DWIDTH 4 0
BBX 3 6 1 0
BITMAP
C0
E0
A0
E0
80
E0
ENDCHAR
STARTCHAR Ebreve
ENCODING 276
SWIDTH 481 0
DWIDTH 4 0
BBX 3 9 1 0
BITMAP
C0
40
00
E0
80
C0
80
80
E0
ENDCHAR
STARTCHAR ebreve
ENCODING 277
SWIDTH 492 0
DWIDTH 4 0
BBX 3 7 1 0
BITMAP
C0
40
A0
A0
E0
80
E0
ENDCHAR
STARTCHAR Edotaccent
ENCODING 278
SWIDTH 496 0
DWIDTH 4 0
BBX 3 8 1 0
BITMAP
40
00
E0
80
C0
80
80
E0
ENDCHAR
STARTCHAR edotaccent
ENCODING 279
SWIDTH 492 0
DWIDTH 4 0
BBX 3 7 1 0
BITMAP
40
00
E0
A0
E0
80
E0
ENDCHAR
STARTCHAR Eogonek
ENCODING 280
SWIDTH 481 0
DWIDTH 4 0
BBX 3 7 1 -1
BITMAP
E0
80
C0
80
80
A0
40
ENDCHAR
STARTCHAR eogonek
ENCODING 281
SWIDTH 492 0
DWIDTH 4 0
BBX 3 6 1 -1
BITMAP
E0
A0
E0
80
A0
40
ENDCHAR
STARTCHAR Ecaron
ENCODING 282
SWIDTH 481 0
DWIDTH 4 0
BBX 3 8 1 0
BITMAP
C0
00
E0
80
C0
80
80
E0
ENDCHAR
STARTCHAR ecaron
ENCODING 283
SWIDTH 492 0
DWIDTH 4 0
BBX 3 7 1 0
BITMAP
C0
00
E0
A0
E0
80
E0
ENDCHAR
STARTCHAR Gcircumflex
ENCODING 284
SWIDTH 539 0
DWIDTH 5 0
BBX 3 8 1 0
BITMAP
40
00
E0
80
A0
A0
A0
E0
ENDCHAR
STARTCHAR gcircumflex
ENCODING 285
SWIDTH 506 0
DWIDTH 5 0
BBX 3 8 1 -1
BITMAP
40
00
E0
A0
A0
A0
E0
E0
ENDCHAR
STARTCHAR Gbreve
ENCODING 286
SWIDTH 539 0
DWIDTH 5 0
BBX 3 9 1 0
BITMAP
A0
40
00
E0
80
A0
A0
A0
E0
ENDCHAR
STARTCHAR gbreve
ENCODING 287
SWIDTH 506 0
DWIDTH 5 0
BBX 3 8 1 -1
BITMAP
40
00
E0
A0
A0
A0
E0
E0
ENDCHAR
STARTCHAR Gdotaccent
ENCODING 288
SWIDTH 539 0
DWIDTH 5 0
BBX 3 8 1 0
BITMAP
40
00
E0
80
A0
A0
A0
E0
ENDCHAR
STARTCHAR gdotaccent
ENCODING 289
SWIDTH 506 0
DWIDTH 5 0
BBX 3 8 1 -1
BITMAP
40
00
E0
A0
A0
A0
E0
E0
ENDCHAR
STARTCHAR uni0122
ENCODING 290
SWIDTH 539 0
DWIDTH 5 0
BBX 3 8 1 -2
BITMAP
E0
80
A0
A0
A0
A0
40
40
ENDCHAR
STARTCHAR uni0123
ENCODING 291
SWIDTH 506 0
DWIDTH 5 0
BBX 3 9 1 -1
BITMAP
40
40
00
E0
A0
A0
A0
E0
E0
ENDCHAR
STARTCHAR hcircumflex
ENCODING 293
SWIDTH 507 0
DWIDTH 5 0
BBX 3 8 1 0
BITMAP
40
A0
80
E0
A0
A0
A0
A0
ENDCHAR
STARTCHAR Hbar
ENCODING 294
SWIDTH 523 0
DWIDTH 5 0
BBX 5 6 0 0
BITMAP
48
F8
70
48
48
48
ENDCHAR
STARTCHAR hbar
ENCODING 295
SWIDTH 544 0
DWIDTH 5 0
BBX 4 7 0 0
BITMAP
40
E0
70
50
50
50
50
ENDCHAR
STARTCHAR Itilde
ENCODING 296
SWIDTH 230 0
DWIDTH 2 0
BBX 2 8 0 0
BITMAP
C0
00
40
40
40
40
40
40
ENDCHAR
STARTCHAR itilde
ENCODING 297
SWIDTH 210 0
DWIDTH 2 0
BBX 2 7 0 0
BITMAP
C0
C0
80
80
80
80
80
ENDCHAR
STARTCHAR Imacron
ENCODING 298
SWIDTH 230 0
DWIDTH 2 0
BBX 2 8 0 0
BITMAP
C0
00
40
40
40
40
40
40
ENDCHAR
STARTCHAR imacron
ENCODING 299
SWIDTH 208 0
DWIDTH 2 0
BBX 2 6 0 0
BITMAP
C0
80
80
80
80
80
ENDCHAR
STARTCHAR Ibreve
ENCODING 300
SWIDTH 231 0
DWIDTH 2 0
BBX 2 9 0 0
BITMAP
C0
C0
00
40
40
40
40
40
40
ENDCHAR
STARTCHAR ibreve
ENCODING 301
SWIDTH 211 0
DWIDTH 2 0
BBX 2 7 0 0
BITMAP
C0
80
80
80
80
80
80
ENDCHAR
STARTCHAR Iogonek
ENCODING 302
SWIDTH 230 0
DWIDTH 2 0
BBX 1 7 0 -1
BITMAP
80
80
80
80
80
80
80
ENDCHAR
STARTCHAR iogonek
ENCODING 303
SWIDTH 210 0
DWIDTH 2 0
BBX 1 8 0 -1
BITMAP
80
00
80
80
80
80
80
80
ENDCHAR
STARTCHAR Idotaccent
ENCODING 304
SWIDTH 230 0
DWIDTH 2 0
BBX 1 8 1 0
BITMAP
80
00
80
80
80
80
80
80
ENDCHAR
STARTCHAR dotlessi
ENCODING 305
SWIDTH 212 0
DWIDTH 2 0
BBX 1 5 0 0
BITMAP
80
80
80
80
80
ENDCHAR
STARTCHAR IJ
ENCODING 306
SWIDTH 721 0
DWIDTH 6 0
BBX 5 6 1 0
BITMAP
88
88
88
88
C8
F8
ENDCHAR
STARTCHAR ij
ENCODING 307
SWIDTH 419 0
DWIDTH 4 0
BBX 2 8 1 -1
BITMAP
C0
00
C0
C0
C0
C0
C0
C0
ENDCHAR
STARTCHAR Jcircumflex
ENCODING 308
SWIDTH 494 0
DWIDTH 4 0
BBX 4 8 0 0
BITMAP
10
00
10
10
10
10
90
F0
ENDCHAR
STARTCHAR jcircumflex
ENCODING 309
SWIDTH 209 0
DWIDTH 2 0
BBX 2 8 0 -1
BITMAP
80
40
80
80
80
80
80
80
ENDCHAR
STARTCHAR uni0136
ENCODING 310
SWIDTH 530 0
DWIDTH 5 0
BBX 4 8 1 -2
BITMAP
A0
C0
C0
C0
A0
90
40
40
ENDCHAR
STARTCHAR uni0137
ENCODING 311
SWIDTH 431 0
DWIDTH 4 0
BBX 3 9 1 -2
BITMAP
80
80
A0
C0
80
C0
A0
40
40
ENDCHAR
STARTCHAR Lacute
ENCODING 313
SWIDTH 451 0
DWIDTH 4 0
BBX 3 8 1 0
BITMAP
80
00
80
80
80
80
80
E0
ENDCHAR
STARTCHAR lacute
ENCODING 314
SWIDTH 207 0
DWIDTH 2 0
BBX 1 9 1 0
BITMAP
80
80
80
80
80
80
80
80
80
ENDCHAR
STARTCHAR uni013B
ENCODING 315
SWIDTH 451 0
DWIDTH 4 0
BBX 3 8 1 -2
BITMAP
80
80
80
80
80
A0
40
40
ENDCHAR
STARTCHAR uni013C
ENCODING 316
SWIDTH 211 0
DWIDTH 2 0
BBX 1 9 0 -2
BITMAP
80
80
80
80
80
80
80
80
80
ENDCHAR
STARTCHAR Lcaron
ENCODING 317
SWIDTH 451 0
DWIDTH 4 0
BBX 3 6 1 0
BITMAP
A0
C0
80
80
80
E0
ENDCHAR
STARTCHAR lcaron
ENCODING 318
SWIDTH 274 0
DWIDTH 2 0
BBX 1 7 1 0
BITMAP
80
80
80
80
80
80
80
ENDCHAR
STARTCHAR Ldot
ENCODING 319
SWIDTH 500 0
DWIDTH 5 0
BBX 3 6 1 0
BITMAP
80
80
C0
80
80
E0
ENDCHAR
STARTCHAR ldot
ENCODING 320
SWIDTH 314 0
DWIDTH 3 0
BBX 1 7 1 0
BITMAP
80
80
80
80
80
80
80
ENDCHAR
STARTCHAR Lslash
ENCODING 321
SWIDTH 504 0
DWIDTH 5 0
BBX 4 6 0 0
BITMAP
40
40
80
40
40
70
ENDCHAR
STARTCHAR lslash
ENCODING 322
SWIDTH 296 0
DWIDTH 3 0
BBX 2 7 0 0
BITMAP
40
40
40
C0
40
40
40
ENDCHAR
STARTCHAR Nacute
ENCODING 323
SWIDTH 579 0
DWIDTH 5 0
BBX 3 8 1 0
BITMAP
20
00
A0
A0
E0
E0
A0
A0
ENDCHAR
STARTCHAR nacute
ENCODING 324
SWIDTH 507 0
DWIDTH 5 0
BBX 3 7 1 0
BITMAP
40
00
E0
A0
A0
A0
A0
ENDCHAR
STARTCHAR uni0145
ENCODING 325
SWIDTH 579 0
DWIDTH 5 0
BBX 3 8 1 -2
BITMAP
A0
A0
E0
E0
A0
A0
40
40
ENDCHAR
STARTCHAR uni0146
ENCODING 326
SWIDTH 505 0
DWIDTH 5 0
BBX 3 7 1 -2
BITMAP
E0
A0
A0
A0
A0
40
40
ENDCHAR
STARTCHAR Ncaron
ENCODING 327
SWIDTH 579 0
DWIDTH 5 0
BBX 3 8 1 0
BITMAP
40
00
A0
A0
E0
E0
A0
A0
ENDCHAR
STARTCHAR ncaron
ENCODING 328
SWIDTH 507 0
DWIDTH 5 0
BBX 3 7 1 0
BITMAP
C0
00
E0
A0
A0
A0
A0
ENDCHAR
STARTCHAR Eng
ENCODING 330
SWIDTH 519 0
DWIDTH 5 0
BBX 3 7 1 -1
BITMAP
A0
A0
E0
E0
A0
A0
20
ENDCHAR
STARTCHAR eng
ENCODING 331
SWIDTH 507 0
DWIDTH 5 0
BBX 3 6 1 -1
BITMAP
E0
A0
A0
A0
A0
60
ENDCHAR
STARTCHAR Omacron
ENCODING 332
SWIDTH 553 0
DWIDTH 5 0
BBX 3 8 1 0
BITMAP
E0
00
E0
A0
A0
A0
A0
E0
ENDCHAR
STARTCHAR omacron
ENCODING 333
SWIDTH 496 0
DWIDTH 4 0
BBX 3 6 1 0
BITMAP
C0
E0
A0
A0
A0
E0
ENDCHAR
STARTCHAR Obreve
ENCODING 334
SWIDTH 553 0
DWIDTH 5 0
BBX 3 9 1 0
BITMAP
A0
40
00
E0
A0
A0
A0
A0
E0
ENDCHAR
STARTCHAR obreve
ENCODING 335
SWIDTH 496 0
DWIDTH 4 0
BBX 3 7 1 0
BITMAP
C0
40
A0
A0
A0
A0
E0
ENDCHAR
STARTCHAR Ohungarumlaut
ENCODING 336
SWIDTH 553 0
DWIDTH 5 0
BBX 3 8 1 0
BITMAP
60
00
E0
A0
A0
A0
A0
E0
ENDCHAR
STARTCHAR ohungarumlaut
ENCODING 337
SWIDTH 496 0
DWIDTH 4 0
BBX 3 7 1 0
BITMAP
60
00
E0
A0
A0
A0
E0
ENDCHAR
STARTCHAR OE
ENCODING 338
SWIDTH 775 0
DWIDTH 7 0
BBX 5 6 1 0
BITMAP
F8
A0
B8
A0
A0
F8
ENDCHAR
STARTCHAR oe
ENCODING 339
SWIDTH 812 0
DWIDTH 7 0
BBX 6 5 1 0
BITMAP
FC
A4
BC
A0
FC
ENDCHAR
STARTCHAR Racute
ENCODING 340
SWIDTH 534 0
DWIDTH 5 0
BBX 3 8 1 0
BITMAP
40
00
E0
A0
A0
E0
A0
A0
ENDCHAR
STARTCHAR racute
ENCODING 341
SWIDTH 313 0
DWIDTH 3 0
BBX 2 7 1 0
BITMAP
80
00
C0
80
80
80
80
ENDCHAR
STARTCHAR uni0156
ENCODING 342
SWIDTH 534 0
DWIDTH 5 0
BBX 3 8 1 -2
BITMAP
E0
A0
A0
E0
A0
A0
40
40
ENDCHAR
STARTCHAR uni0157
ENCODING 343
SWIDTH 313 0
DWIDTH 3 0
BBX 2 7 1 -2
BITMAP
C0
80
80
80
80
80
80
ENDCHAR
STARTCHAR Rcaron
ENCODING 344
SWIDTH 534 0
DWIDTH 5 0
BBX 3 8 1 0
BITMAP
C0
00
E0
A0
A0
E0
A0
A0
ENDCHAR
STARTCHAR rcaron
ENCODING 345
SWIDTH 313 0
DWIDTH 3 0
BBX 2 7 1 0
BITMAP
80
00
C0
80
80
80
80
ENDCHAR
STARTCHAR Sacute
ENCODING 346
SWIDTH 562 0
DWIDTH 5 0
BBX 3 8 1 0
BITMAP
40
00
E0
A0
C0
20
A0
E0
ENDCHAR
STARTCHAR sacute
ENCODING 347
SWIDTH 427 0
DWIDTH 4 0
BBX 3 7 0 0
BITMAP
20
00
E0
80
60
20
E0
ENDCHAR
STARTCHAR Scircumflex
ENCODING 348
SWIDTH 562 0
DWIDTH 5 0
BBX 3 8 1 0
BITMAP
40
00
E0
A0
C0
20
A0
E0
ENDCHAR
STARTCHAR scircumflex
ENCODING 349
SWIDTH 427 0
DWIDTH 4 0
BBX 3 7 0 0
BITMAP
40
20
E0
80
60
20
E0
ENDCHAR
STARTCHAR uni015E
ENCODING 350
SWIDTH 562 0
DWIDTH 5 0
BBX 3 8 1 -2
BITMAP
E0
A0
C0
20
A0
A0
40
40
ENDCHAR
STARTCHAR uni015F
ENCODING 351
SWIDTH 427 0
DWIDTH 4 0
BBX 3 7 0 -2
BITMAP
E0
80
60
20
A0
60
40
ENDCHAR
STARTCHAR Scaron
ENCODING 352
SWIDTH 562 0
DWIDTH 5 0
BBX 3 8 1 0
BITMAP
40
00
E0
A0
C0
20
A0
E0
ENDCHAR
STARTCHAR scaron
ENCODING 353
SWIDTH 427 0
DWIDTH 4 0
BBX 3 7 0 0
BITMAP
60
00
E0
80
60
20
E0
ENDCHAR
STARTCHAR uni0162
ENCODING 354
SWIDTH 420 0
DWIDTH 4 0
BBX 4 8 0 -2
BITMAP
F0
40
40
40
40
40
40
40
ENDCHAR
STARTCHAR uni0163
ENCODING 355
SWIDTH 347 0
DWIDTH 3 0
BBX 3 8 0 -2
BITMAP
40
E0
40
40
40
60
40
40
ENDCHAR
STARTCHAR Tcaron
ENCODING 356
SWIDTH 420 0
DWIDTH 4 0
BBX 4 8 0 0
BITMAP
60
00
F0
40
40
40
40
40
ENDCHAR
STARTCHAR tcaron
ENCODING 357
SWIDTH 396 0
DWIDTH 4 0
BBX 3 6 0 0
BITMAP
60
E0
40
40
40
60
ENDCHAR
STARTCHAR Tbar
ENCODING 358
SWIDTH 501 0
DWIDTH 5 0
BBX 4 6 0 0
BITMAP
F0
40
60
40
40
40
ENDCHAR
STARTCHAR tbar
ENCODING 359
SWIDTH 350 0
DWIDTH 3 0
BBX 3 6 0 0
BITMAP
40
E0
40
E0
40
60
ENDCHAR
STARTCHAR Utilde
ENCODING 360
SWIDTH 552 0
DWIDTH 5 0
BBX 3 8 1 0
BITMAP
40
00
A0
A0
A0
A0
A0
E0
ENDCHAR
STARTCHAR utilde
ENCODING 361
SWIDTH 507 0
DWIDTH 5 0
BBX 3 7 1 0
BITMAP
E0
A0
A0
A0
A0
A0
E0
ENDCHAR
STARTCHAR Umacron
ENCODING 362
SWIDTH 552 0
DWIDTH 5 0
BBX 3 8 1 0
BITMAP
E0
00
A0
A0
A0
A0
A0
E0
ENDCHAR
STARTCHAR umacron
ENCODING 363
SWIDTH 507 0
DWIDTH 5 0
BBX 3 6 1 0
BITMAP
C0
A0
A0
A0
A0
E0
ENDCHAR
STARTCHAR Ubreve
ENCODING 364
SWIDTH 552 0
DWIDTH 5 0
BBX 3 9 1 0
BITMAP
A0
40
00
A0
A0
A0
A0
A0
E0
ENDCHAR
STARTCHAR ubreve
ENCODING 365
SWIDTH 507 0
DWIDTH 5 0
BBX 3 7 1 0
BITMAP
C0
40
A0
A0
A0
A0
E0
ENDCHAR
STARTCHAR Uring
ENCODING 366
SWIDTH 552 0
DWIDTH 5 0
BBX 3 9 1 0
BITMAP
40
A0
40
A0
A0
A0
A0
A0
E0
ENDCHAR
STARTCHAR uring
ENCODING 367
SWIDTH 507 0
DWIDTH 5 0
BBX 3 8 1 0
BITMAP
40
C0
40
A0
A0
A0
A0
E0
ENDCHAR
STARTCHAR Uhungarumlaut
ENCODING 368
SWIDTH 552 0
DWIDTH 5 0
BBX 3 8 1 0
BITMAP
60
00
A0
A0
A0
A0
A0
E0
ENDCHAR
STARTCHAR uhungarumlaut
ENCODING 369
SWIDTH 507 0
DWIDTH 5 0
BBX 3 7 1 0
BITMAP
60
00
A0
A0
A0
A0
E0
ENDCHAR
STARTCHAR Uogonek
ENCODING 370
SWIDTH 552 0
DWIDTH 5 0
BBX 3 7 1 -1
BITMAP
A0
A0
A0
A0
A0
A0
40
ENDCHAR
STARTCHAR uogonek
ENCODING 371
SWIDTH 503 0
DWIDTH 5 0
BBX 3 6 1 -1
BITMAP
A0
A0
A0
A0
E0
20
ENDCHAR
STARTCHAR Wcircumflex
ENCODING 372
SWIDTH 795 0
DWIDTH 7 0
BBX 7 8 0 0
BITMAP
10
00
92
92
6A
6C
64
44
ENDCHAR
STARTCHAR wcircumflex
ENCODING 373
SWIDTH 682 0
DWIDTH 6 0
BBX 6 7 0 0
BITMAP
10
20
94
B4
74
58
48
ENDCHAR
STARTCHAR Ycircumflex
ENCODING 374
SWIDTH 493 0
DWIDTH 4 0
BBX 4 8 0 0
BITMAP
60
00
90
50
60
20
20
20
ENDCHAR
STARTCHAR ycircumflex
ENCODING 375
SWIDTH 459 0
DWIDTH 4 0
BBX 4 8 0 -1
BITMAP
20
40
90
90
60
60
20
C0
ENDCHAR
STARTCHAR Ydieresis
ENCODING 376
SWIDTH 493 0
DWIDTH 4 0
BBX 4 8 0 0
BITMAP
60
00
90
50
60
20
20
20
ENDCHAR
STARTCHAR Zacute
ENCODING 377
SWIDTH 482 0
DWIDTH 4 0
BBX 4 8 0 0
BITMAP
20
00
F0
10
20
40
40
F0
ENDCHAR
STARTCHAR zacute
ENCODING 378
SWIDTH 405 0
DWIDTH 4 0
BBX 3 7 0 0
BITMAP
20
00
E0
20
40
40
E0
ENDCHAR
STARTCHAR Zdotaccent
ENCODING 379
SWIDTH 482 0
DWIDTH 4 0
BBX 4 8 0 0
BITMAP
20
00
F0
10
20
40
40
F0
ENDCHAR
STARTCHAR zdotaccent
ENCODING 380
SWIDTH 405 0
DWIDTH 4 0
BBX 3 7 0 0
BITMAP
40
00
E0
20
40
40
E0
ENDCHAR
STARTCHAR Zcaron
ENCODING 381
SWIDTH 482 0
DWIDTH 4 0
BBX 4 8 0 0
BITMAP
60
00
F0
10
20
40
40
F0
ENDCHAR
STARTCHAR zcaron
ENCODING 382
SWIDTH 405 0
DWIDTH 4 0
BBX 3 7 0 0
BITMAP
60
00
E0
20
40
40
E0
ENDCHAR
STARTCHAR florin
ENCODING 402
SWIDTH 494 0
DWIDTH 4 0
BBX 4 8 0 -1
BITMAP
10
20
20
70
20
40
40
C0
ENDCHAR
STARTCHAR AEacute
ENCODING 508
SWIDTH 773 0
DWIDTH 7 0
BBX 6 8 0 0
BITMAP
08
00
1C
30
3C
50
70
9C
ENDCHAR
STARTCHAR aeacute
ENCODING 509
SWIDTH 795 0
DWIDTH 7 0
BBX 6 7 1 0
BITMAP
10
20
F8
24
FC
A0
FC
ENDCHAR
STARTCHAR Oslashacute
ENCODING 510
SWIDTH 558 0
DWIDTH 5 0
BBX 5 8 0 0
BITMAP
20
00
78
90
A8
A8
48
F0
ENDCHAR
STARTCHAR oslashacute
ENCODING 511
SWIDTH 521 0
DWIDTH 5 0
BBX 4 7 0 0
BITMAP
20
00
70
90
B0
50
F0
ENDCHAR
STARTCHAR uni0218
ENCODING 536
SWIDTH 562 0
DWIDTH 5 0
BBX 3 8 1 -2
BITMAP
E0
A0
C0
20
A0
A0
40
40
ENDCHAR
STARTCHAR uni0219
ENCODING 537
SWIDTH 427 0
DWIDTH 4 0
BBX 3 7 0 -2
BITMAP
E0
80
60
20
E0
20
40
ENDCHAR
STARTCHAR circumflex
ENCODING 710
SWIDTH 326 0
DWIDTH 3 0
BBX 1 1 1 6
BITMAP
80
ENDCHAR
STARTCHAR caron
ENCODING 711
SWIDTH 326 0
DWIDTH 3 0
BBX 1 1 1 6
BITMAP
80
ENDCHAR
STARTCHAR uni02C9
ENCODING 713
SWIDTH 358 0
DWIDTH 3 0
BBX 2 1 1 5
BITMAP
C0
ENDCHAR
STARTCHAR breve
ENCODING 728
SWIDTH 332 0
DWIDTH 3 0
BBX 1 2 1 5
BITMAP
80
80
ENDCHAR
STARTCHAR dotaccent
ENCODING 729
SWIDTH 183 0
DWIDTH 2 0
BBX 1 1 0 6
BITMAP
80
ENDCHAR
STARTCHAR ring
ENCODING 730
SWIDTH 297 0
DWIDTH 3 0
BBX 2 2 0 5
BITMAP
40
C0
ENDCHAR
STARTCHAR ogonek
ENCODING 731
SWIDTH 243 0
DWIDTH 2 0
BBX 1 2 1 -1
BITMAP
80
80
ENDCHAR
STARTCHAR tilde
ENCODING 732
SWIDTH 369 0
DWIDTH 3 0
BBX 2 2 1 5
BITMAP
80
C0
ENDCHAR
STARTCHAR hungarumlaut
ENCODING 733
SWIDTH 377 0
DWIDTH 3 0
BBX 2 1 1 6
BITMAP
C0
ENDCHAR
STARTCHAR Mu
ENCODING 924
SWIDTH 527 0
DWIDTH 5 0
BBX 3 6 1 -1
BITMAP
A0
A0
A0
A0
E0
80
ENDCHAR
STARTCHAR Pi
ENCODING 928
SWIDTH 605 0
DWIDTH 5 0
BBX 5 6 0 0
BITMAP
F8
50
50
50
50
50
ENDCHAR
STARTCHAR Sigma
ENCODING 931
SWIDTH 481 0
DWIDTH 4 0
BBX 3 6 1 0
BITMAP
E0
80
40
40
80
E0
ENDCHAR
STARTCHAR uni0901
ENCODING 2305
SWIDTH 0 0
DWIDTH 0 0
BBX 2 2 -2 6
BITMAP
80
C0
ENDCHAR
STARTCHAR uni0902
ENCODING 2306
SWIDTH 0 0
DWIDTH 0 0
BBX 1 1 -2 7
BITMAP
80
ENDCHAR
STARTCHAR uni0903
ENCODING 2307
SWIDTH 247 0
DWIDTH 2 0
BBX 1 4 1 0
BITMAP
80
00
00
80
ENDCHAR
STARTCHAR uni0905
ENCODING 2309
SWIDTH 598 0
DWIDTH 5 0
BBX 6 6 0 0
BITMAP
6C
28
48
38
28
E8
ENDCHAR
STARTCHAR uni0906
ENCODING 2310
SWIDTH 828 0
DWIDTH 7 0
BBX 8 6 0 0
BITMAP
6F
2A
4A
3A
2A
EA
ENDCHAR
STARTCHAR uni0907
ENCODING 2311
SWIDTH 478 0
DWIDTH 4 0
BBX 4 6 0 0
BITMAP
F0
60
80
60
90
70
ENDCHAR
STARTCHAR uni0908
ENCODING 2312
SWIDTH 478 0
DWIDTH 4 0
BBX 4 8 0 0
BITMAP
30
20
D0
60
80
60
90
70
ENDCHAR
STARTCHAR uni0909
ENCODING 2313
SWIDTH 471 0
DWIDTH 4 0
BBX 4 6 0 0
BITMAP
F0
10
20
10
90
70
ENDCHAR
STARTCHAR uni090A
ENCODING 2314
SWIDTH 661 0
DWIDTH 6 0
BBX 6 6 0 0
BITMAP
FC
10
30
18
94
FC
ENDCHAR
STARTCHAR uni090B
ENCODING 2315
SWIDTH 753 0
DWIDTH 7 0
BBX 7 6 0 0
BITMAP
FE
10
7C
94
38
5C
ENDCHAR
STARTCHAR uni090C
ENCODING 2316
SWIDTH 676 0
DWIDTH 6 0
BBX 6 8 0 -2
BITMAP
FC
04
78
A4
84
6C
10
0C
ENDCHAR
STARTCHAR uni090D
ENCODING 2317
SWIDTH 521 0
DWIDTH 5 0
BBX 5 8 0 0
BITMAP
50
20
D8
50
50
70
40
70
ENDCHAR
STARTCHAR uni090E
ENCODING 2318
SWIDTH 522 0
DWIDTH 5 0
BBX 5 8 0 0
BITMAP
20
10
F8
50
50
70
40
70
ENDCHAR
STARTCHAR uni090F
ENCODING 2319
SWIDTH 526 0
DWIDTH 5 0
BBX 5 6 0 0
BITMAP
F8
50
50
70
40
70
ENDCHAR
STARTCHAR uni0910
ENCODING 2320
SWIDTH 526 0
DWIDTH 5 0
BBX 5 8 0 0
BITMAP
20
10
F8
50
50
70
40
70
ENDCHAR
STARTCHAR uni0911
ENCODING 2321
SWIDTH 829 0
DWIDTH 7 0
BBX 8 8 0 0
BITMAP
0A
0C
6B
2A
4A
3A
2A
EA
ENDCHAR
STARTCHAR uni0912
ENCODING 2322
SWIDTH 828 0
DWIDTH 7 0
BBX 8 8 0 0
BITMAP
08
06
6F
2A
4A
3A
2A
EA
ENDCHAR
STARTCHAR uni0913
ENCODING 2323
SWIDTH 829 0
DWIDTH 7 0
BBX 8 8 0 0
BITMAP
04
02
6F
2A
4A
3A
2A
EA
ENDCHAR
STARTCHAR uni0914
ENCODING 2324
SWIDTH 829 0
DWIDTH 7 0
BBX 8 8 0 0
BITMAP
06
02
6F
2A
4A
3A
2A
EA
ENDCHAR
STARTCHAR uni0915
ENCODING 2325
SWIDTH 725 0
DWIDTH 7 0
BBX 7 6 0 0
BITMAP
FE
5C
94
94
68
10
ENDCHAR
STARTCHAR uni0916
ENCODING 2326
SWIDTH 696 0
DWIDTH 6 0
BBX 6 6 0 0
BITMAP
FC
34
24
D4
58
44
ENDCHAR
STARTCHAR uni0917
ENCODING 2327
SWIDTH 494 0
DWIDTH 4 0
BBX 5 6 0 0
BITMAP
F8
50
50
90
10
10
ENDCHAR
STARTCHAR uni0918
ENCODING 2328
SWIDTH 559 0
DWIDTH 5 0
BBX 5 6 0 0
BITMAP
F8
90
50
90
90
70
ENDCHAR
STARTCHAR uni0919
ENCODING 2329
SWIDTH 505 0
DWIDTH 5 0
BBX 5 6 0 0
BITMAP
F8
60
88
60
10
70
ENDCHAR
STARTCHAR uni091A
ENCODING 2330
SWIDTH 563 0
DWIDTH 5 0
BBX 5 6 0 0
BITMAP
F8
08
E8
48
70
08
ENDCHAR
STARTCHAR uni091B
ENCODING 2331
SWIDTH 581 0
DWIDTH 5 0
BBX 5 6 0 0
BITMAP
F8
88
90
48
88
78
ENDCHAR
STARTCHAR uni091C
ENCODING 2332
SWIDTH 547 0
DWIDTH 5 0
BBX 5 6 0 0
BITMAP
F8
10
70
30
30
D0
ENDCHAR
STARTCHAR uni091D
ENCODING 2333
SWIDTH 664 0
DWIDTH 6 0
BBX 6 6 0 0
BITMAP
FC
68
88
78
98
68
ENDCHAR
STARTCHAR uni091E
ENCODING 2334
SWIDTH 592 0
DWIDTH 5 0
BBX 5 6 0 0
BITMAP
F8
48
28
38
C8
08
ENDCHAR
STARTCHAR uni091F
ENCODING 2335
SWIDTH 485 0
DWIDTH 4 0
BBX 4 6 0 0
BITMAP
F0
10
60
80
90
70
ENDCHAR
STARTCHAR uni0920
ENCODING 2336
SWIDTH 512 0
DWIDTH 5 0
BBX 5 6 0 0
BITMAP
F8
10
60
90
90
70
ENDCHAR
STARTCHAR uni0921
ENCODING 2337
SWIDTH 475 0
DWIDTH 4 0
BBX 4 6 0 0
BITMAP
F0
60
80
60
10
70
ENDCHAR
STARTCHAR uni0922
ENCODING 2338
SWIDTH 485 0
DWIDTH 4 0
BBX 5 6 0 0
BITMAP
F8
10
60
B0
B0
70
ENDCHAR
STARTCHAR uni0923
ENCODING 2339
SWIDTH 681 0
DWIDTH 6 0
BBX 6 6 0 0
BITMAP
FC
94
94
94
64
04
ENDCHAR
STARTCHAR uni0924
ENCODING 2340
SWIDTH 496 0
DWIDTH 4 0
BBX 5 6 0 0
BITMAP
F8
10
70
90
90
50
ENDCHAR
STARTCHAR uni0925
ENCODING 2341
SWIDTH 593 0
DWIDTH 5 0
BBX 4 6 1 0
BITMAP
D0
D0
D0
90
F0
10
ENDCHAR
STARTCHAR uni0926
ENCODING 2342
SWIDTH 489 0
DWIDTH 4 0
BBX 5 6 0 0
BITMAP
F8
70
80
80
70
10
ENDCHAR
STARTCHAR uni0927
ENCODING 2343
SWIDTH 560 0
DWIDTH 5 0
BBX 5 6 0 0
BITMAP
D8
90
70
90
90
70
ENDCHAR
STARTCHAR uni0928
ENCODING 2344
SWIDTH 473 0
DWIDTH 4 0
BBX 4 6 0 0
BITMAP
F0
10
60
90
10
10
ENDCHAR
STARTCHAR uni0928093C
ENCODING 2345
SWIDTH 473 0
DWIDTH 4 0
BBX 4 6 0 0
BITMAP
F0
10
60
90
10
50
ENDCHAR
STARTCHAR uni092A
ENCODING 2346
SWIDTH 503 0
DWIDTH 5 0
BBX 5 6 0 0
BITMAP
F8
90
90
90
70
10
ENDCHAR
STARTCHAR uni092B
ENCODING 2347
SWIDTH 739 0
DWIDTH 7 0
BBX 7 6 0 0
BITMAP
FE
9C
94
94
7C
10
ENDCHAR
STARTCHAR uni092C
ENCODING 2348
SWIDTH 491 0
DWIDTH 4 0
BBX 5 6 0 0
BITMAP
F8
50
50
B0
70
10
ENDCHAR
STARTCHAR uni092D
ENCODING 2349
SWIDTH 491 0
DWIDTH 4 0
BBX 5 6 0 0
BITMAP
B8
90
70
90
10
10
ENDCHAR
STARTCHAR uni092E
ENCODING 2350
SWIDTH 490 0
DWIDTH 4 0
BBX 5 6 0 0
BITMAP
F8
90
70
90
10
10
ENDCHAR
STARTCHAR uni092F
ENCODING 2351
SWIDTH 564 0
DWIDTH 5 0
BBX 5 6 0 0
BITMAP
F8
28
48
88
70
08
ENDCHAR
STARTCHAR uni0930
ENCODING 2352
SWIDTH 337 0
DWIDTH 3 0
BBX 3 6 0 0
BITMAP
E0
20
20
C0
40
40
ENDCHAR
STARTCHAR uni0930093C
ENCODING 2353
SWIDTH 347 0
DWIDTH 3 0
BBX 3 7 0 -1
BITMAP
E0
20
20
C0
40
40
A0
ENDCHAR
STARTCHAR uni0932
ENCODING 2354
SWIDTH 676 0
DWIDTH 6 0
BBX 6 6 0 0
BITMAP
FC
78
A4
A4
84
64
ENDCHAR
STARTCHAR uni0933
ENCODING 2355
SWIDTH 672 0
DWIDTH 6 0
BBX 6 6 0 0
BITMAP
FC
08
78
94
94
78
ENDCHAR
STARTCHAR uni0933093C
ENCODING 2356
SWIDTH 672 0
DWIDTH 6 0
BBX 6 7 0 -1
BITMAP
FC
08
78
94
94
78
40
ENDCHAR
STARTCHAR uni0935
ENCODING 2357
SWIDTH 484 0
DWIDTH 4 0
BBX 4 6 0 0
BITMAP
F0
50
90
90
70
10
ENDCHAR
STARTCHAR uni0936
ENCODING 2358
SWIDTH 614 0
DWIDTH 6 0
BBX 6 6 0 0
BITMAP
6C
A8
28
E8
48
68
ENDCHAR
STARTCHAR uni0937
ENCODING 2359
SWIDTH 505 0
DWIDTH 5 0
BBX 5 6 0 0
BITMAP
F8
D0
B0
90
70
10
ENDCHAR
STARTCHAR uni0938
ENCODING 2360
SWIDTH 575 0
DWIDTH 5 0
BBX 5 6 0 0
BITMAP
F8
48
48
F0
48
48
ENDCHAR
STARTCHAR uni0939
ENCODING 2361
SWIDTH 481 0
DWIDTH 4 0
BBX 4 7 0 -1
BITMAP
F0
70
80
60
90
80
70
ENDCHAR
STARTCHAR uni093C
ENCODING 2364
SWIDTH 0 0
DWIDTH 0 0
BBX 1 1 -2 -1
BITMAP
80
ENDCHAR
STARTCHAR uni093D
ENCODING 2365
SWIDTH 529 0
DWIDTH 5 0
BBX 3 6 1 0
BITMAP
E0
80
40
20
20
E0
ENDCHAR
STARTCHAR uni093E
ENCODING 2366
SWIDTH 231 0
DWIDTH 2 0
BBX 2 6 0 0
BITMAP
C0
40
40
40
40
40
ENDCHAR
STARTCHAR uni093F
ENCODING 2367
SWIDTH 231 0
DWIDTH 2 0
BBX 6 8 0 0
BITMAP
7C
44
C0
40
40
40
40
40
ENDCHAR
STARTCHAR uni0940
ENCODING 2368
SWIDTH 231 0
DWIDTH 2 0
BBX 3 8 -1 0
BITMAP
C0
A0
60
20
20
20
20
20
ENDCHAR
STARTCHAR uni0941
ENCODING 2369
SWIDTH 0 0
DWIDTH 0 0
BBX 3 3 -3 -2
BITMAP
20
A0
E0
ENDCHAR
STARTCHAR uni0942
ENCODING 2370
SWIDTH 0 0
DWIDTH 0 0
BBX 3 3 -2 -2
BITMAP
C0
A0
A0
ENDCHAR
STARTCHAR uni0943
ENCODING 2371
SWIDTH 0 0
DWIDTH 0 0
BBX 2 3 -2 -2
BITMAP
80
80
C0
ENDCHAR
STARTCHAR uni0945
ENCODING 2373
SWIDTH 0 0
DWIDTH 0 0
BBX 2 2 -2 6
BITMAP
C0
C0
ENDCHAR
STARTCHAR uni0946
ENCODING 2374
SWIDTH 0 0
DWIDTH 0 0
BBX 2 2 -3 6
BITMAP
80
40
ENDCHAR
STARTCHAR uni0947
ENCODING 2375
SWIDTH 0 0
DWIDTH 0 0
BBX 2 2 -3 6
BITMAP
80
40
ENDCHAR
STARTCHAR uni0948
ENCODING 2376
SWIDTH 0 0
DWIDTH 0 0
BBX 2 2 -3 6
BITMAP
C0
40
ENDCHAR
STARTCHAR uni0949
ENCODING 2377
SWIDTH 231 0
DWIDTH 2 0
BBX 2 8 0 0
BITMAP
C0
C0
40
40
40
40
40
40
ENDCHAR
STARTCHAR uni094A
ENCODING 2378
SWIDTH 231 0
DWIDTH 2 0
BBX 3 8 -1 0
BITMAP
80
40
20
20
20
20
20
20
ENDCHAR
STARTCHAR uni094B
ENCODING 2379
SWIDTH 231 0
DWIDTH 2 0
BBX 3 8 -1 0
BITMAP
80
40
20
20
20
20
20
20
ENDCHAR
STARTCHAR uni094C
ENCODING 2380
SWIDTH 231 0
DWIDTH 2 0
BBX 3 8 -1 0
BITMAP
A0
40
20
20
20
20
20
20
ENDCHAR
STARTCHAR uni094D
ENCODING 2381
SWIDTH 0 0
DWIDTH 0 0
BBX 1 2 -1 -2
BITMAP
80
80
ENDCHAR
STARTCHAR uni0950
ENCODING 2384
SWIDTH 847 0
DWIDTH 8 0
BBX 7 8 0 0
BITMAP
08
02
64
10
14
7A
9A
6E
ENDCHAR
STARTCHAR uni0951
ENCODING 2385
SWIDTH 0 0
DWIDTH 0 0
BBX 1 2 -2 6
BITMAP
80
80
ENDCHAR
STARTCHAR uni0952
ENCODING 2386
SWIDTH 0 0
DWIDTH 0 0
BBX 3 1 -4 -1
BITMAP
E0
ENDCHAR
STARTCHAR uni0953
ENCODING 2387
SWIDTH 0 0
DWIDTH 0 0
BBX 1 2 -2 6
BITMAP
80
80
ENDCHAR
STARTCHAR uni0954
ENCODING 2388
SWIDTH 0 0
DWIDTH 0 0
BBX 1 2 -1 6
BITMAP
80
80
ENDCHAR
STARTCHAR uni0915093C
ENCODING 2392
SWIDTH 725 0
DWIDTH 7 0
BBX 7 7 0 -1
BITMAP
FE
5C
94
94
68
10
40
ENDCHAR
STARTCHAR uni0916093C
ENCODING 2393
SWIDTH 696 0
DWIDTH 6 0
BBX 6 7 0 -1
BITMAP
FC
34
24
D4
58
44
80
ENDCHAR
STARTCHAR uni0917093C
ENCODING 2394
SWIDTH 494 0
DWIDTH 4 0
BBX 5 7 0 -1
BITMAP
F8
50
50
90
10
10
40
ENDCHAR
STARTCHAR uni091C093C
ENCODING 2395
SWIDTH 547 0
DWIDTH 5 0
BBX 5 7 0 -1
BITMAP
F8
10
70
30
30
D0
80
ENDCHAR
STARTCHAR uni0921093C
ENCODING 2396
SWIDTH 475 0
DWIDTH 4 0
BBX 4 7 0 -1
BITMAP
F0
60
80
60
10
50
20
ENDCHAR
STARTCHAR uni0922093C
ENCODING 2397
SWIDTH 485 0
DWIDTH 4 0
BBX 5 7 0 -1
BITMAP
F8
10
60
B0
B0
50
20
ENDCHAR
STARTCHAR uni092B093C
ENCODING 2398
SWIDTH 739 0
DWIDTH 7 0
BBX 7 7 0 -1
BITMAP
FE
9C
94
94
7C
10
40
ENDCHAR
STARTCHAR uni092F093C
ENCODING 2399
SWIDTH 564 0
DWIDTH 5 0
BBX 5 7 0 -1
BITMAP
F8
28
48
88
70
08
40
ENDCHAR
STARTCHAR uni0960
ENCODING 2400
SWIDTH 753 0
DWIDTH 7 0
BBX 7 7 0 -1
BITMAP
FE
10
74
9C
38
58
04
ENDCHAR
STARTCHAR uni0961
ENCODING 2401
SWIDTH 676 0
DWIDTH 6 0
BBX 6 8 0 -2
BITMAP
FC
78
A4
A4
88
70
08
18
ENDCHAR
STARTCHAR uni0964
ENCODING 2404
SWIDTH 286 0
DWIDTH 3 0
BBX 1 6 1 0
BITMAP
80
80
80
80
80
80
ENDCHAR
STARTCHAR uni0965
ENCODING 2405
SWIDTH 518 0
DWIDTH 5 0
BBX 3 6 1 0
BITMAP
A0
A0
A0
A0
A0
A0
ENDCHAR
STARTCHAR uni0966
ENCODING 2406
SWIDTH 519 0
DWIDTH 5 0
BBX 3 6 1 0
BITMAP
E0
A0
A0
A0
A0
E0
ENDCHAR
STARTCHAR uni0967
ENCODING 2407
SWIDTH 288 0
DWIDTH 3 0
BBX 2 6 0 0
BITMAP
C0
40
40
40
40
40
ENDCHAR
STARTCHAR uni0968
ENCODING 2408
SWIDTH 453 0
DWIDTH 4 0
BBX 4 6 0 0
BITMAP
F0
90
10
60
80
F0
ENDCHAR
STARTCHAR uni0969
ENCODING 2409
SWIDTH 489 0
DWIDTH 4 0
BBX 4 6 0 0
BITMAP
F0
10
20
10
90
70
ENDCHAR
STARTCHAR uni096A
ENCODING 2410
SWIDTH 453 0
DWIDTH 4 0
BBX 4 6 0 0
BITMAP
20
20
50
90
F0
10
ENDCHAR
STARTCHAR uni096B
ENCODING 2411
SWIDTH 480 0
DWIDTH 4 0
BBX 3 6 1 0
BITMAP
E0
80
C0
20
A0
E0
ENDCHAR
STARTCHAR uni096C
ENCODING 2412
SWIDTH 495 0
DWIDTH 4 0
BBX 3 6 1 0
BITMAP
E0
80
C0
A0
A0
E0
ENDCHAR
STARTCHAR uni096D
ENCODING 2413
SWIDTH 380 0
DWIDTH 3 0
BBX 3 6 0 0
BITMAP
E0
20
20
40
40
40
ENDCHAR
STARTCHAR uni096E
ENCODING 2414
SWIDTH 523 0
DWIDTH 5 0
BBX 3 6 1 0
BITMAP
E0
A0
C0
A0
A0
E0
ENDCHAR
STARTCHAR uni096F
ENCODING 2415
SWIDTH 493 0
DWIDTH 4 0
BBX 4 6 0 0
BITMAP
F0
90
90
70
10
70
ENDCHAR
STARTCHAR uni0970
ENCODING 2416
SWIDTH 391 0
DWIDTH 4 0
BBX 3 4 0 1
BITMAP
60
A0
A0
60
ENDCHAR
STARTCHAR uni0972
ENCODING 2418
SWIDTH 598 0
DWIDTH 5 0
BBX 6 8 0 0
BITMAP
14
18
6C
28
48
38
28
E8
ENDCHAR
STARTCHAR Wgrave
ENCODING 7808
SWIDTH 795 0
DWIDTH 7 0
BBX 7 8 0 0
BITMAP
30
00
92
92
6A
6C
64
44
ENDCHAR
STARTCHAR wgrave
ENCODING 7809
SWIDTH 682 0
DWIDTH 6 0
BBX 6 7 0 0
BITMAP
20
00
94
B4
74
58
48
ENDCHAR
STARTCHAR Wacute
ENCODING 7810
SWIDTH 795 0
DWIDTH 7 0
BBX 7 8 0 0
BITMAP
18
00
92
92
6A
6C
64
44
ENDCHAR
STARTCHAR wacute
ENCODING 7811
SWIDTH 682 0
DWIDTH 6 0
BBX 6 7 0 0
BITMAP
10
00
94
B4
74
58
48
ENDCHAR
STARTCHAR Wdieresis
ENCODING 7812
SWIDTH 795 0
DWIDTH 7 0
BBX 7 8 0 0
BITMAP
28
00
92
92
6A
6C
64
44
ENDCHAR
STARTCHAR wdieresis
ENCODING 7813
SWIDTH 682 0
DWIDTH 6 0
BBX 6 7 0 0
BITMAP
30
00
94
B4
74
58
48
ENDCHAR
STARTCHAR uni1E9E
ENCODING 7838
SWIDTH 542 0
DWIDTH 5 0
BBX 3 6 1 0
BITMAP
E0
A0
A0
A0
A0
E0
ENDCHAR
STARTCHAR Ygrave
ENCODING 7922
SWIDTH 493 0
DWIDTH 4 0
BBX 4 8 0 0
BITMAP
40
00
90
50
60
20
20
20
ENDCHAR
STARTCHAR ygrave
ENCODING 7923
SWIDTH 459 0
DWIDTH 4 0
BBX 4 8 0 -1
BITMAP
40
00
90
90
60
60
20
C0
ENDCHAR
STARTCHAR uni200B
ENCODING 8203
SWIDTH 0 0
DWIDTH 0 0
BBX 1 1 0 0
BITMAP
00
ENDCHAR
STARTCHAR uni200C
ENCODING 8204
SWIDTH 0 0
DWIDTH 0 0
BBX 1 10 0 -2
BITMAP
80
80
80
80
80
80
80
80
80
80
ENDCHAR
STARTCHAR uni200D
ENCODING 8205
SWIDTH 0 0
DWIDTH 0 0
BBX 2 10 -1 -2
BITMAP
C0
C0
40
40
40
40
40
40
40
40
ENDCHAR
STARTCHAR endash
ENCODING 8211
SWIDTH 408 0
DWIDTH 4 0
BBX 3 1 0 3
BITMAP
E0
ENDCHAR
STARTCHAR emdash
ENCODING 8212
SWIDTH 537 0
DWIDTH 5 0
BBX 4 1 0 3
BITMAP
F0
ENDCHAR
STARTCHAR quoteleft
ENCODING 8216
SWIDTH 179 0
DWIDTH 2 0
BBX 1 2 0 4
BITMAP
80
80
ENDCHAR
STARTCHAR quoteright
ENCODING 8217
SWIDTH 179 0
DWIDTH 2 0
BBX 1 2 0 4
BITMAP
80
80
ENDCHAR
STARTCHAR quotesinglbase
ENCODING 8218
SWIDTH 187 0
DWIDTH 2 0
BBX 1 2 0 -1
BITMAP
80
80
ENDCHAR
STARTCHAR quotedblleft
ENCODING 8220
SWIDTH 329 0
DWIDTH 3 0
BBX 1 2 1 4
BITMAP
80
80
ENDCHAR
STARTCHAR quotedblright
ENCODING 8221
SWIDTH 329 0
DWIDTH 3 0
BBX 1 2 1 4
BITMAP
80
80
ENDCHAR
STARTCHAR quotedblbase
ENCODING 8222
SWIDTH 337 0
DWIDTH 3 0
BBX 1 2 1 -1
BITMAP
80
80
ENDCHAR
STARTCHAR dagger
ENCODING 8224
SWIDTH 427 0
DWIDTH 4 0
BBX 3 6 0 0
BITMAP
40
E0
40
40
40
40
ENDCHAR
STARTCHAR daggerdbl
ENCODING 8225
SWIDTH 427 0
DWIDTH 4 0
BBX 3 6 0 0
BITMAP
40
E0
40
40
E0
40
ENDCHAR
STARTCHAR bullet
ENCODING 8226
SWIDTH 273 0
DWIDTH 2 0
BBX 1 2 1 2
BITMAP
80
80
ENDCHAR
STARTCHAR ellipsis
ENCODING 8230
SWIDTH 591 0
DWIDTH 5 0
BBX 4 1 1 0
BITMAP
D0
ENDCHAR
STARTCHAR perthousand
ENCODING 8240
SWIDTH 1027 0
DWIDTH 9 0
BBX 9 6 0 0
BITMAP
E800
B000
5000
1D80
3680
2F80
ENDCHAR
STARTCHAR guilsinglleft
ENCODING 8249
SWIDTH 290 0
DWIDTH 3 0
BBX 1 3 1 1
BITMAP
80
80
80
ENDCHAR
STARTCHAR guilsinglright
ENCODING 8250
SWIDTH 290 0
DWIDTH 3 0
BBX 1 3 1 1
BITMAP
80
80
80
ENDCHAR
STARTCHAR fraction
ENCODING 8260
SWIDTH 117 0
DWIDTH 1 0
BBX 5 6 -2 0
BITMAP
08
10
20
20
40
80
ENDCHAR
STARTCHAR Euro
ENCODING 8364
SWIDTH 523 0
DWIDTH 5 0
BBX 4 6 0 0
BITMAP
70
50
E0
E0
50
70
ENDCHAR
STARTCHAR uni20B9
ENCODING 8377
SWIDTH 414 0
DWIDTH 4 0
BBX 3 6 0 0
BITMAP
E0
E0
20
C0
40
20
ENDCHAR
STARTCHAR trademark
ENCODING 8482
SWIDTH 591 0
DWIDTH 5 0
BBX 4 2 1 4
BITMAP
D0
B0
ENDCHAR
STARTCHAR uni2126
ENCODING 8486
SWIDTH 629 0
DWIDTH 6 0
BBX 5 6 0 0
BITMAP
78
48
48
48
48
F8
ENDCHAR
STARTCHAR partialdiff
ENCODING 8706
SWIDTH 481 0
DWIDTH 4 0
BBX 3 6 1 0
BITMAP
C0
20
E0
A0
A0
E0
ENDCHAR
STARTCHAR uni2206
ENCODING 8710
SWIDTH 594 0
DWIDTH 5 0
BBX 5 6 0 0
BITMAP
20
20
50
50
48
F8
ENDCHAR
STARTCHAR minus
ENCODING 8722
SWIDTH 523 0
DWIDTH 5 0
BBX 3 1 1 3
BITMAP
E0
ENDCHAR
STARTCHAR approxequal
ENCODING 8776
SWIDTH 523 0
DWIDTH 5 0
BBX 3 3 1 2
BITMAP
E0
00
E0
ENDCHAR
STARTCHAR notequal
ENCODING 8800
SWIDTH 523 0
DWIDTH 5 0
BBX 3 5 1 1
BITMAP
40
E0
40
E0
80
ENDCHAR
STARTCHAR lessequal
ENCODING 8804
SWIDTH 523 0
DWIDTH 5 0
BBX 3 4 1 1
BITMAP
20
C0
20
E0
ENDCHAR
STARTCHAR greaterequal
ENCODING 8805
SWIDTH 523 0
DWIDTH 5 0
BBX 3 4 1 1
BITMAP
80
60
80
E0
ENDCHAR
STARTCHAR uni25CC
ENCODING 9676
SWIDTH 701 0
DWIDTH 6 0
BBX 5 6 1 0
BITMAP
50
90
88
80
88
70
ENDCHAR
STARTCHAR commaaccent
ENCODING 63171
SWIDTH 0 0
DWIDTH 0 0
BBX 1 2 2 -2
BITMAP
80
80
ENDCHAR
STARTCHAR .notdef
ENCODING -1
SWIDTH 600 0
DWIDTH 5 0
BBX 3 6 1 0
BITMAP
E0
A0
A0
A0
A0
E0
ENDCHAR
STARTCHAR .null
ENCODING -1
SWIDTH 0 0
DWIDTH 0 0
BBX 1 1 0 0
BITMAP
00
ENDCHAR
STARTCHAR nonmarkingreturn
ENCODING -1
SWIDTH 333 0
DWIDTH 3 0
BBX 1 1 0 0
BITMAP
00
ENDCHAR
STARTCHAR uni0915094D
ENCODING -1
SWIDTH 519 0
DWIDTH 5 0
BBX 6 6 0 0
BITMAP
FC
5C
90
90
60
10
ENDCHAR
STARTCHAR uni0916094D
ENCODING -1
SWIDTH 468 0
DWIDTH 4 0
BBX 5 6 0 0
BITMAP
F8
30
20
D0
58
40
ENDCHAR
STARTCHAR uni0917094D
ENCODING -1
SWIDTH 264 0
DWIDTH 2 0
BBX 3 4 0 2
BITMAP
E0
40
40
80
ENDCHAR
STARTCHAR uni0918094D
ENCODING -1
SWIDTH 321 0
DWIDTH 3 0
BBX 4 6 0 0
BITMAP
F0
80
40
80
80
70
ENDCHAR
STARTCHAR uni0919094D
ENCODING -1
SWIDTH 505 0
DWIDTH 5 0
BBX 5 8 0 -2
BITMAP
F8
60
88
60
10
50
20
20
ENDCHAR
STARTCHAR uni091A094D
ENCODING -1
SWIDTH 330 0
DWIDTH 3 0
BBX 4 5 0 1
BITMAP
F0
00
E0
40
70
ENDCHAR
STARTCHAR uni091B094D
ENCODING -1
SWIDTH 581 0
DWIDTH 5 0
BBX 5 6 0 0
BITMAP
F8
90
88
48
88
70
ENDCHAR
STARTCHAR uni091C094D
ENCODING -1
SWIDTH 309 0
DWIDTH 3 0
BBX 4 6 0 0
BITMAP
F0
00
70
20
20
C0
ENDCHAR
STARTCHAR uni091D094D
ENCODING -1
SWIDTH 432 0
DWIDTH 4 0
BBX 5 7 0 -1
BITMAP
F8
60
80
78
10
E0
80
ENDCHAR
STARTCHAR uni091E094D
ENCODING -1
SWIDTH 359 0
DWIDTH 3 0
BBX 4 5 0 1
BITMAP
F0
40
20
30
C0
ENDCHAR
STARTCHAR uni091F094D
ENCODING -1
SWIDTH 485 0
DWIDTH 4 0
BBX 4 8 0 -2
BITMAP
F0
10
60
80
90
70
00
20
ENDCHAR
STARTCHAR uni0920094D
ENCODING -1
SWIDTH 512 0
DWIDTH 5 0
BBX 5 8 0 -2
BITMAP
F8
10
60
90
90
70
00
20
ENDCHAR
STARTCHAR uni0921094D
ENCODING -1
SWIDTH 475 0
DWIDTH 4 0
BBX 4 8 0 -2
BITMAP
F0
60
80
60
10
50
20
20
ENDCHAR
STARTCHAR uni0922094D
ENCODING -1
SWIDTH 485 0
DWIDTH 4 0
BBX 5 8 0 -2
BITMAP
F8
10
60
B0
B0
70
00
20
ENDCHAR
STARTCHAR uni0923094D
ENCODING -1
SWIDTH 454 0
DWIDTH 4 0
BBX 4 5 0 1
BITMAP
F0
90
90
90
60
ENDCHAR
STARTCHAR uni0924094D
ENCODING -1
SWIDTH 263 0
DWIDTH 2 0
BBX 3 6 0 0
BITMAP
E0
00
60
80
80
40
ENDCHAR
STARTCHAR uni0925094D
ENCODING -1
SWIDTH 359 0
DWIDTH 3 0
BBX 3 5 1 1
BITMAP
C0
C0
C0
80
E0
ENDCHAR
STARTCHAR uni0926094D
ENCODING -1
SWIDTH 489 0
DWIDTH 4 0
BBX 5 7 0 -1
BITMAP
F8
70
80
80
70
10
20
ENDCHAR
STARTCHAR uni0927094D
ENCODING -1
SWIDTH 321 0
DWIDTH 3 0
BBX 4 6 0 0
BITMAP
D0
80
40
80
80
70
ENDCHAR
STARTCHAR uni0928094D
ENCODING -1
SWIDTH 233 0
DWIDTH 2 0
BBX 3 4 0 2
BITMAP
E0
00
60
80
ENDCHAR
STARTCHAR uni092A094D
ENCODING -1
SWIDTH 269 0
DWIDTH 2 0
BBX 4 5 0 1
BITMAP
F0
80
80
90
60
ENDCHAR
STARTCHAR uni092B094D
ENCODING -1
SWIDTH 530 0
DWIDTH 5 0
BBX 6 6 0 0
BITMAP
FC
9C
90
90
70
10
ENDCHAR
STARTCHAR uni092C094D
ENCODING -1
SWIDTH 265 0
DWIDTH 2 0
BBX 4 5 0 1
BITMAP
F0
60
40
B0
60
ENDCHAR
STARTCHAR uni092D094D
ENCODING -1
SWIDTH 261 0
DWIDTH 2 0
BBX 3 4 0 2
BITMAP
A0
80
60
80
ENDCHAR
STARTCHAR uni092E094D
ENCODING -1
SWIDTH 261 0
DWIDTH 2 0
BBX 3 4 0 2
BITMAP
E0
80
60
80
ENDCHAR
STARTCHAR uni092F094D
ENCODING -1
SWIDTH 323 0
DWIDTH 3 0
BBX 4 5 0 1
BITMAP
F0
20
40
80
70
ENDCHAR
STARTCHAR uni0930094D
ENCODING -1
SWIDTH 337 0
DWIDTH 3 0
BBX 3 8 0 -2
BITMAP
E0
20
20
C0
40
40
40
20
ENDCHAR
STARTCHAR uni0932094D
ENCODING -1
SWIDTH 431 0
DWIDTH 4 0
BBX 5 6 0 0
BITMAP
F8
00
78
A0
80
60
ENDCHAR
STARTCHAR uni0933094D
ENCODING -1
SWIDTH 677 0
DWIDTH 6 0
BBX 6 6 0 0
BITMAP
FC
00
78
94
94
78
ENDCHAR
STARTCHAR uni0935094D
ENCODING -1
SWIDTH 255 0
DWIDTH 2 0
BBX 4 5 0 1
BITMAP
F0
60
80
90
60
ENDCHAR
STARTCHAR uni0936094D
ENCODING -1
SWIDTH 378 0
DWIDTH 3 0
BBX 3 6 0 0
BITMAP
60
A0
20
E0
40
60
ENDCHAR
STARTCHAR uni0937094D
ENCODING -1
SWIDTH 282 0
DWIDTH 3 0
BBX 4 5 0 1
BITMAP
F0
C0
A0
90
60
ENDCHAR
STARTCHAR uni0938094D
ENCODING -1
SWIDTH 338 0
DWIDTH 3 0
BBX 4 6 0 0
BITMAP
F0
40
40
F0
40
40
ENDCHAR
STARTCHAR uni0939094D
ENCODING -1
SWIDTH 457 0
DWIDTH 4 0
BBX 5 7 0 -1
BITMAP
F0
70
80
78
80
80
70
ENDCHAR
STARTCHAR uni0915093C094D
ENCODING -1
SWIDTH 519 0
DWIDTH 5 0
BBX 6 7 0 -1
BITMAP
FC
5C
90
90
60
10
40
ENDCHAR
STARTCHAR uni0916093C094D
ENCODING -1
SWIDTH 463 0
DWIDTH 4 0
BBX 5 7 0 -1
BITMAP
F8
30
20
D0
58
40
80
ENDCHAR
STARTCHAR uni0917093C094D
ENCODING -1
SWIDTH 264 0
DWIDTH 2 0
BBX 3 6 0 0
BITMAP
E0
40
40
80
00
40
ENDCHAR
STARTCHAR uni091C093C094D
ENCODING -1
SWIDTH 314 0
DWIDTH 3 0
BBX 4 7 0 -1
BITMAP
F0
00
70
20
20
C0
40
ENDCHAR
STARTCHAR uni0928093C094D
ENCODING -1
SWIDTH 241 0
DWIDTH 2 0
BBX 3 6 0 0
BITMAP
E0
00
60
80
00
40
ENDCHAR
STARTCHAR uni092B093C094D
ENCODING -1
SWIDTH 530 0
DWIDTH 5 0
BBX 6 7 0 -1
BITMAP
FC
9C
90
90
70
10
40
ENDCHAR
STARTCHAR uni092F093C094D
ENCODING -1
SWIDTH 325 0
DWIDTH 3 0
BBX 4 7 0 -1
BITMAP
F0
20
40
80
70
00
40
ENDCHAR
STARTCHAR uni09080902
ENCODING -1
SWIDTH 478 0
DWIDTH 4 0
BBX 4 8 0 0
BITMAP
30
30
D0
60
80
60
90
70
ENDCHAR
STARTCHAR uni09300941
ENCODING -1
SWIDTH 533 0
DWIDTH 5 0
BBX 5 6 0 0
BITMAP
F8
30
28
D0
50
40
ENDCHAR
STARTCHAR uni09300942
ENCODING -1
SWIDTH 645 0
DWIDTH 6 0
BBX 6 6 0 0
BITMAP
FC
38
24
D8
58
40
ENDCHAR
STARTCHAR uni09390941
ENCODING -1
SWIDTH 495 0
DWIDTH 4 0
BBX 5 8 0 -2
BITMAP
F8
70
80
60
90
70
90
70
ENDCHAR
STARTCHAR uni09390942
ENCODING -1
SWIDTH 492 0
DWIDTH 4 0
BBX 4 8 0 -2
BITMAP
F0
70
80
60
90
60
50
50
ENDCHAR
STARTCHAR uni09260943
ENCODING -1
SWIDTH 390 0
DWIDTH 4 0
BBX 4 6 0 0
BITMAP
F0
20
60
60
80
60
ENDCHAR
STARTCHAR uni09390943
ENCODING -1
SWIDTH 519 0
DWIDTH 5 0
BBX 5 8 0 -2
BITMAP
F8
70
80
70
A8
B0
80
70
ENDCHAR
STARTCHAR uni094D0930
ENCODING -1
SWIDTH 0 0
DWIDTH 0 0
BBX 3 2 -4 -2
BITMAP
40
A0
ENDCHAR
STARTCHAR uni0930094D.1
ENCODING -1
SWIDTH 192 0
DWIDTH 2 0
BBX 4 3 -1 3
BITMAP
60
00
F0
ENDCHAR
STARTCHAR uni0930094D.2
ENCODING -1
SWIDTH 0 0
DWIDTH 0 0
BBX 1 2 -1 6
BITMAP
80
80
ENDCHAR
STARTCHAR uni0930094D0902
ENCODING -1
SWIDTH 0 0
DWIDTH 0 0
BBX 1 3 -1 5
BITMAP
80
80
80
ENDCHAR
STARTCHAR uni093E0930094D
ENCODING -1
SWIDTH 231 0
DWIDTH 2 0
BBX 2 8 0 0
BITMAP
40
40
C0
40
40
40
40
40
ENDCHAR
STARTCHAR uni093E0930094D0902
ENCODING -1
SWIDTH 231 0
DWIDTH 2 0
BBX 2 8 0 0
BITMAP
40
40
C0
40
40
40
40
40
ENDCHAR
STARTCHAR uni0930094D.aMatraI
ENCODING -1
SWIDTH 0 0
DWIDTH 0 0
BBX 1 2 0 6
BITMAP
80
80
ENDCHAR
STARTCHAR uni0902.aMatraI
ENCODING -1
SWIDTH 0 0
DWIDTH 0 0
BBX 1 1 0 7
BITMAP
80
ENDCHAR
STARTCHAR uni0930094D0902.aMatraI
ENCODING -1
SWIDTH 0 0
DWIDTH 0 0
BBX 1 2 0 6
BITMAP
80
80
ENDCHAR
STARTCHAR uni09400930094D
ENCODING -1
SWIDTH 231 0
DWIDTH 2 0
BBX 3 8 -1 0
BITMAP
E0
A0
60
20
20
20
20
20
ENDCHAR
STARTCHAR uni09400902
ENCODING -1
SWIDTH 231 0
DWIDTH 2 0
BBX 3 8 -1 0
BITMAP
E0
20
60
20
20
20
20
20
ENDCHAR
STARTCHAR uni09400930094D0902
ENCODING -1
SWIDTH 231 0
DWIDTH 2 0
BBX 3 8 -1 0
BITMAP
E0
20
60
20
20
20
20
20
ENDCHAR
STARTCHAR uni0940.aLong
ENCODING -1
SWIDTH 231 0
DWIDTH 2 0
BBX 5 8 -3 0
BITMAP
F0
88
18
08
08
08
08
08
ENDCHAR
STARTCHAR uni09400930094D.aLong
ENCODING -1
SWIDTH 231 0
DWIDTH 2 0
BBX 5 8 -3 0
BITMAP
F8
88
18
08
08
08
08
08
ENDCHAR
STARTCHAR uni09400902.aLong
ENCODING -1
SWIDTH 231 0
DWIDTH 2 0
BBX 5 8 -3 0
BITMAP
F8
08
18
08
08
08
08
08
ENDCHAR
STARTCHAR uni09400930094D0902.aLong
ENCODING -1
SWIDTH 231 0
DWIDTH 2 0
BBX 5 8 -3 0
BITMAP
F8
08
18
08
08
08
08
08
ENDCHAR
STARTCHAR uni09470930094D
ENCODING -1
SWIDTH 0 0
DWIDTH 0 0
BBX 3 2 -3 6
BITMAP
A0
40
ENDCHAR
STARTCHAR uni09470902
ENCODING -1
SWIDTH 0 0
DWIDTH 0 0
BBX 3 2 -3 6
BITMAP
A0
40
ENDCHAR
STARTCHAR uni09470901
ENCODING -1
SWIDTH 0 0
DWIDTH 0 0
BBX 5 2 -3 6
BITMAP
90
78
ENDCHAR
STARTCHAR uni09470930094D0902
ENCODING -1
SWIDTH 0 0
DWIDTH 0 0
BBX 3 2 -3 6
BITMAP
A0
40
ENDCHAR
STARTCHAR uni09480930094D
ENCODING -1
SWIDTH 0 0
DWIDTH 0 0
BBX 3 3 -3 5
BITMAP
E0
40
40
ENDCHAR
STARTCHAR uni09480902
ENCODING -1
SWIDTH 0 0
DWIDTH 0 0
BBX 3 3 -3 5
BITMAP
C0
60
20
ENDCHAR
STARTCHAR uni09480901
ENCODING -1
SWIDTH 0 0
DWIDTH 0 0
BBX 5 3 -3 5
BITMAP
C8
58
20
ENDCHAR
STARTCHAR uni09480930094D0902
ENCODING -1
SWIDTH 0 0
DWIDTH 0 0
BBX 3 3 -3 5
BITMAP
E0
60
40
ENDCHAR
STARTCHAR uni094B0930094D
ENCODING -1
SWIDTH 231 0
DWIDTH 2 0
BBX 3 8 -1 0
BITMAP
A0
40
20
20
20
20
20
20
ENDCHAR
STARTCHAR uni094B0902
ENCODING -1
SWIDTH 231 0
DWIDTH 2 0
BBX 3 8 -1 0
BITMAP
A0
40
20
20
20
20
20
20
ENDCHAR
STARTCHAR uni094B0930094D0902
ENCODING -1
SWIDTH 231 0
DWIDTH 2 0
BBX 3 8 -1 0
BITMAP
A0
60
20
20
20
20
20
20
ENDCHAR
STARTCHAR uni094C0930094D
ENCODING -1
SWIDTH 231 0
DWIDTH 2 0
BBX 3 8 -1 0
BITMAP
A0
40
20
20
20
20
20
20
ENDCHAR
STARTCHAR uni094C0902
ENCODING -1
SWIDTH 231 0
DWIDTH 2 0
BBX 3 8 -1 0
BITMAP
A0
40
20
20
20
20
20
20
ENDCHAR
STARTCHAR uni094C0930094D0902
ENCODING -1
SWIDTH 231 0
DWIDTH 2 0
BBX 3 8 -1 0
BITMAP
A0
40
20
20
20
20
20
20
ENDCHAR
STARTCHAR uni0915094D0937
ENCODING -1
SWIDTH 656 0
DWIDTH 6 0
BBX 5 6 1 0
BITMAP
F8
B0
F0
90
D0
30
ENDCHAR
STARTCHAR uni0915094D0937094D
ENCODING -1
SWIDTH 429 0
DWIDTH 4 0
BBX 4 6 1 0
BITMAP
E0
A0
F0
80
C0
20
ENDCHAR
STARTCHAR uni0915094D0937094D092E
ENCODING -1
SWIDTH 933 0
DWIDTH 8 0
BBX 8 6 1 0
BITMAP
FF
B2
CE
92
C2
22
ENDCHAR
STARTCHAR uni0915094D0937094D092E094D
ENCODING -1
SWIDTH 717 0
DWIDTH 6 0
BBX 6 6 1 0
BITMAP
FC
B0
CC
90
C0
20
ENDCHAR
STARTCHAR uni0915094D0937094D092E094D092F
ENCODING -1
SWIDTH 1283 0
DWIDTH 12 0
BBX 11 6 1 0
BITMAP
FFE0
B140
CE40
9240
C1C0
2040
ENDCHAR
STARTCHAR uni0915094D0937094D092F
ENCODING -1
SWIDTH 989 0
DWIDTH 9 0
BBX 8 6 1 0
BITMAP
FF
AA
FA
92
CE
22
ENDCHAR
STARTCHAR uni0915094D0937094D0935
ENCODING -1
SWIDTH 936 0
DWIDTH 8 0
BBX 8 6 1 0
BITMAP
FF
AE
F2
92
CE
22
ENDCHAR
STARTCHAR uni091C094D091E
ENCODING -1
SWIDTH 629 0
DWIDTH 6 0
BBX 6 6 0 0
BITMAP
FC
78
88
68
98
78
ENDCHAR
STARTCHAR uni091C094D091E094D
ENCODING -1
SWIDTH 398 0
DWIDTH 4 0
BBX 5 7 0 -1
BITMAP
F8
00
78
60
10
F0
80
ENDCHAR
STARTCHAR uni091C094D091E094D092F
ENCODING -1
SWIDTH 975 0
DWIDTH 9 0
BBX 9 6 0 0
BITMAP
FF80
7500
8D00
6900
9700
7100
ENDCHAR
STARTCHAR uni0915094D0928
ENCODING -1
SWIDTH 1003 0
DWIDTH 9 0
BBX 9 6 0 0
BITMAP
FF80
5900
9700
9500
6100
1100
ENDCHAR
STARTCHAR uni0916094D0928
ENCODING -1
SWIDTH 958 0
DWIDTH 9 0
BBX 9 6 0 0
BITMAP
FF80
3900
2700
D500
5900
4100
ENDCHAR
STARTCHAR uni0917094D0928
ENCODING -1
SWIDTH 736 0
DWIDTH 7 0
BBX 7 6 0 0
BITMAP
FE
44
5C
94
04
04
ENDCHAR
STARTCHAR uni0918094D0928
ENCODING -1
SWIDTH 814 0
DWIDTH 7 0
BBX 7 6 0 0
BITMAP
FE
82
4E
92
72
02
ENDCHAR
STARTCHAR uni091A094D0928
ENCODING -1
SWIDTH 829 0
DWIDTH 7 0
BBX 8 6 0 0
BITMAP
FF
02
EE
52
32
02
ENDCHAR
STARTCHAR uni091B094D0928
ENCODING -1
SWIDTH 977 0
DWIDTH 9 0
BBX 9 6 0 0
BITMAP
FF80
9100
4F00
8900
8D00
7100
ENDCHAR
STARTCHAR uni091C094D0928
ENCODING -1
SWIDTH 831 0
DWIDTH 7 0
BBX 8 6 0 0
BITMAP
FF
02
7E
32
22
C2
ENDCHAR
STARTCHAR uni091D094D0928
ENCODING -1
SWIDTH 935 0
DWIDTH 8 0
BBX 9 6 0 0
BITMAP
FF80
6100
8700
7900
9100
6100
ENDCHAR
STARTCHAR uni091F094D0928
ENCODING -1
SWIDTH 494 0
DWIDTH 4 0
BBX 5 8 0 -2
BITMAP
F8
60
80
90
70
70
90
10
ENDCHAR
STARTCHAR uni0920094D0928
ENCODING -1
SWIDTH 516 0
DWIDTH 5 0
BBX 5 8 0 -2
BITMAP
F8
60
90
90
70
70
90
10
ENDCHAR
STARTCHAR uni0921094D0928
ENCODING -1
SWIDTH 481 0
DWIDTH 4 0
BBX 4 8 0 -2
BITMAP
F0
60
80
70
70
10
70
90
ENDCHAR
STARTCHAR uni0924094D0928
ENCODING -1
SWIDTH 756 0
DWIDTH 7 0
BBX 7 6 0 0
BITMAP
FE
04
7C
94
84
44
ENDCHAR
STARTCHAR uni0925094D0928
ENCODING -1
SWIDTH 855 0
DWIDTH 8 0
BBX 7 6 1 0
BITMAP
FE
C4
DC
94
E4
04
ENDCHAR
STARTCHAR uni0926094D0928
ENCODING -1
SWIDTH 955 0
DWIDTH 9 0
BBX 9 8 0 -2
BITMAP
FF80
7100
8700
8900
7100
1100
1000
0800
ENDCHAR
STARTCHAR uni0927094D0928
ENCODING -1
SWIDTH 814 0
DWIDTH 7 0
BBX 7 6 0 0
BITMAP
DE
82
4E
92
72
02
ENDCHAR
STARTCHAR uni0928094D0928
ENCODING -1
SWIDTH 738 0
DWIDTH 7 0
BBX 7 6 0 0
BITMAP
FE
04
7C
94
04
04
ENDCHAR
STARTCHAR uni092A094D0928
ENCODING -1
SWIDTH 782 0
DWIDTH 7 0
BBX 7 6 0 0
BITMAP
FE
84
9C
74
04
04
ENDCHAR
STARTCHAR uni092B094D0928
ENCODING -1
SWIDTH 1013 0
DWIDTH 9 0
BBX 9 6 0 0
BITMAP
FF80
9C80
9300
9480
7480
1080
ENDCHAR
STARTCHAR uni092C094D0928
ENCODING -1
SWIDTH 810 0
DWIDTH 7 0
BBX 7 6 0 0
BITMAP
FE
62
4C
B2
62
02
ENDCHAR
STARTCHAR uni092D094D0928
ENCODING -1
SWIDTH 757 0
DWIDTH 7 0
BBX 7 6 0 0
BITMAP
BE
84
7C
94
04
04
ENDCHAR
STARTCHAR uni092E094D0928
ENCODING -1
SWIDTH 757 0
DWIDTH 7 0
BBX 7 6 0 0
BITMAP
FE
84
7C
94
04
04
ENDCHAR
STARTCHAR uni092F094D0928
ENCODING -1
SWIDTH 829 0
DWIDTH 7 0
BBX 8 6 0 0
BITMAP
FF
22
4E
92
6A
02
ENDCHAR
STARTCHAR uni0935094D0928
ENCODING -1
SWIDTH 798 0
DWIDTH 7 0
BBX 7 6 0 0
BITMAP
FE
62
8C
92
62
02
ENDCHAR
STARTCHAR uni0936094D0928
ENCODING -1
SWIDTH 845 0
DWIDTH 8 0
BBX 8 6 0 0
BITMAP
6F
A2
2E
F2
42
62
ENDCHAR
STARTCHAR uni0938094D0928
ENCODING -1
SWIDTH 831 0
DWIDTH 7 0
BBX 8 6 0 0
BITMAP
FF
42
4E
F2
42
42
ENDCHAR
STARTCHAR uni0939094D0928
ENCODING -1
SWIDTH 500 0
DWIDTH 5 0
BBX 5 8 0 -2
BITMAP
F8
10
70
70
B0
B0
80
70
ENDCHAR
STARTCHAR uni0915094D0930
ENCODING -1
SWIDTH 725 0
DWIDTH 7 0
BBX 7 6 0 0
BITMAP
FE
5C
94
94
68
50
ENDCHAR
STARTCHAR uni0916094D0930
ENCODING -1
SWIDTH 698 0
DWIDTH 6 0
BBX 6 6 0 0
BITMAP
FC
34
24
D4
58
54
ENDCHAR
STARTCHAR uni0917094D0930
ENCODING -1
SWIDTH 494 0
DWIDTH 4 0
BBX 5 6 0 0
BITMAP
F8
50
50
90
30
50
ENDCHAR
STARTCHAR uni0918094D0930
ENCODING -1
SWIDTH 559 0
DWIDTH 5 0
BBX 5 6 0 0
BITMAP
F8
90
50
90
70
70
ENDCHAR
STARTCHAR uni0919094D0930
ENCODING -1
SWIDTH 505 0
DWIDTH 5 0
BBX 5 8 0 -2
BITMAP
F8
60
88
60
10
90
60
50
ENDCHAR
STARTCHAR uni091A094D0930
ENCODING -1
SWIDTH 563 0
DWIDTH 5 0
BBX 5 6 0 0
BITMAP
F8
08
E8
48
70
68
ENDCHAR
STARTCHAR uni091B094D0930
ENCODING -1
SWIDTH 581 0
DWIDTH 5 0
BBX 5 7 0 -1
BITMAP
F8
88
90
48
88
48
70
ENDCHAR
STARTCHAR uni091C094D0930
ENCODING -1
SWIDTH 547 0
DWIDTH 5 0
BBX 5 6 0 0
BITMAP
F8
10
70
30
D0
30
ENDCHAR
STARTCHAR uni091D094D0930
ENCODING -1
SWIDTH 684 0
DWIDTH 6 0
BBX 6 6 0 0
BITMAP
FC
64
84
78
98
78
ENDCHAR
STARTCHAR uni091E094D0930
ENCODING -1
SWIDTH 598 0
DWIDTH 5 0
BBX 6 6 0 0
BITMAP
FC
48
28
38
D8
28
ENDCHAR
STARTCHAR uni091F094D0930
ENCODING -1
SWIDTH 485 0
DWIDTH 4 0
BBX 4 7 0 -1
BITMAP
F0
10
60
80
90
50
70
ENDCHAR
STARTCHAR uni0920094D0930
ENCODING -1
SWIDTH 512 0
DWIDTH 5 0
BBX 5 7 0 -1
BITMAP
F8
10
60
90
90
50
70
ENDCHAR
STARTCHAR uni0921094D0930
ENCODING -1
SWIDTH 475 0
DWIDTH 4 0
BBX 4 7 0 -1
BITMAP
F0
60
80
60
90
50
70
ENDCHAR
STARTCHAR uni0922094D0930
ENCODING -1
SWIDTH 485 0
DWIDTH 4 0
BBX 5 7 0 -1
BITMAP
F8
10
60
B0
B0
50
70
ENDCHAR
STARTCHAR uni0923094D0930
ENCODING -1
SWIDTH 681 0
DWIDTH 6 0
BBX 6 6 0 0
BITMAP
FC
94
94
94
68
14
ENDCHAR
STARTCHAR uni0924094D0930
ENCODING -1
SWIDTH 493 0
DWIDTH 4 0
BBX 5 6 0 0
BITMAP
F8
10
70
90
30
50
ENDCHAR
STARTCHAR uni0925094D0930
ENCODING -1
SWIDTH 593 0
DWIDTH 5 0
BBX 4 6 1 0
BITMAP
D0
D0
D0
90
F0
D0
ENDCHAR
STARTCHAR uni0926094D0930
ENCODING -1
SWIDTH 489 0
DWIDTH 4 0
BBX 5 6 0 0
BITMAP
F8
70
80
80
70
30
ENDCHAR
STARTCHAR uni0927094D0930
ENCODING -1
SWIDTH 560 0
DWIDTH 5 0
BBX 5 6 0 0
BITMAP
D8
90
70
90
70
30
ENDCHAR
STARTCHAR uni0928094D0930
ENCODING -1
SWIDTH 473 0
DWIDTH 4 0
BBX 4 6 0 0
BITMAP
F0
10
60
A0
20
50
ENDCHAR
STARTCHAR uni092A094D0930
ENCODING -1
SWIDTH 503 0
DWIDTH 5 0
BBX 5 6 0 0
BITMAP
F8
90
90
70
30
50
ENDCHAR
STARTCHAR uni092B094D0930
ENCODING -1
SWIDTH 741 0
DWIDTH 7 0
BBX 7 6 0 0
BITMAP
FE
9C
94
74
3C
50
ENDCHAR
STARTCHAR uni092C094D0930
ENCODING -1
SWIDTH 491 0
DWIDTH 4 0
BBX 5 6 0 0
BITMAP
F8
70
50
B0
70
50
ENDCHAR
STARTCHAR uni092D094D0930
ENCODING -1
SWIDTH 491 0
DWIDTH 4 0
BBX 5 6 0 0
BITMAP
B8
90
70
90
30
50
ENDCHAR
STARTCHAR uni092E094D0930
ENCODING -1
SWIDTH 490 0
DWIDTH 4 0
BBX 5 6 0 0
BITMAP
F8
90
70
90
30
50
ENDCHAR
STARTCHAR uni092F094D0930
ENCODING -1
SWIDTH 564 0
DWIDTH 5 0
BBX 5 6 0 0
BITMAP
F8
28
48
88
70
68
ENDCHAR
STARTCHAR uni0935094D0930
ENCODING -1
SWIDTH 484 0
DWIDTH 4 0
BBX 4 6 0 0
BITMAP
F0
50
90
90
70
50
ENDCHAR
STARTCHAR uni0936094D0930
ENCODING -1
SWIDTH 558 0
DWIDTH 5 0
BBX 5 6 0 0
BITMAP
78
B0
70
70
B0
50
ENDCHAR
STARTCHAR uni0938094D0930
ENCODING -1
SWIDTH 604 0
DWIDTH 5 0
BBX 6 6 0 0
BITMAP
FC
48
48
F8
58
48
ENDCHAR
STARTCHAR uni0939094D0930
ENCODING -1
SWIDTH 505 0
DWIDTH 5 0
BBX 5 7 0 -1
BITMAP
F8
10
70
70
B0
B0
70
ENDCHAR
STARTCHAR uni0915093C094D0930
ENCODING -1
SWIDTH 725 0
DWIDTH 7 0
BBX 7 7 0 -1
BITMAP
FE
5C
94
94
68
50
20
ENDCHAR
STARTCHAR uni0916093C094D0930
ENCODING -1
SWIDTH 698 0
DWIDTH 6 0
BBX 6 7 0 -1
BITMAP
FC
34
24
D4
58
54
08
ENDCHAR
STARTCHAR uni0917093C094D0930
ENCODING -1
SWIDTH 494 0
DWIDTH 4 0
BBX 5 7 0 -1
BITMAP
F8
50
50
90
30
50
20
ENDCHAR
STARTCHAR uni091C093C094D0930
ENCODING -1
SWIDTH 547 0
DWIDTH 5 0
BBX 5 7 0 -1
BITMAP
F8
10
70
30
30
D0
A0
ENDCHAR
STARTCHAR uni0921093C094D0930
ENCODING -1
SWIDTH 475 0
DWIDTH 4 0
BBX 4 7 0 -1
BITMAP
F0
60
80
60
90
50
F0
ENDCHAR
STARTCHAR uni0922093C094D0930
ENCODING -1
SWIDTH 485 0
DWIDTH 4 0
BBX 5 7 0 -1
BITMAP
F8
10
60
B0
B0
50
F0
ENDCHAR
STARTCHAR uni0928093C094D0930
ENCODING -1
SWIDTH 473 0
DWIDTH 4 0
BBX 4 7 0 -1
BITMAP
F0
10
60
A0
20
50
40
ENDCHAR
STARTCHAR uni092B093C094D0930
ENCODING -1
SWIDTH 741 0
DWIDTH 7 0
BBX 7 7 0 -1
BITMAP
FE
9C
94
74
3C
50
20
ENDCHAR
STARTCHAR uni092F093C094D0930
ENCODING -1
SWIDTH 564 0
DWIDTH 5 0
BBX 5 7 0 -1
BITMAP
F8
28
48
88
70
28
60
ENDCHAR
STARTCHAR uni0915094D0930094D
ENCODING -1
SWIDTH 518 0
DWIDTH 5 0
BBX 6 6 0 0
BITMAP
FC
5C
90
90
60
50
ENDCHAR
STARTCHAR uni0916094D0930094D
ENCODING -1
SWIDTH 469 0
DWIDTH 4 0
BBX 5 6 0 0
BITMAP
F8
30
20
D0
58
50
ENDCHAR
STARTCHAR uni0917094D0930094D
ENCODING -1
SWIDTH 264 0
DWIDTH 2 0
BBX 4 6 0 0
BITMAP
E0
40
40
B0
20
40
ENDCHAR
STARTCHAR uni0918094D0930094D
ENCODING -1
SWIDTH 319 0
DWIDTH 3 0
BBX 4 6 0 0
BITMAP
F0
80
40
80
70
60
ENDCHAR
STARTCHAR uni091A094D0930094D
ENCODING -1
SWIDTH 331 0
DWIDTH 3 0
BBX 4 6 0 0
BITMAP
F0
00
E0
40
70
60
ENDCHAR
STARTCHAR uni091C094D0930094D
ENCODING -1
SWIDTH 312 0
DWIDTH 3 0
BBX 4 7 0 -1
BITMAP
F0
00
70
20
20
D0
20
ENDCHAR
STARTCHAR uni091D094D0930094D
ENCODING -1
SWIDTH 441 0
DWIDTH 4 0
BBX 5 7 0 -1
BITMAP
F8
60
80
78
18
E8
90
ENDCHAR
STARTCHAR uni091E094D0930094D
ENCODING -1
SWIDTH 374 0
DWIDTH 3 0
BBX 4 6 0 0
BITMAP
F0
40
20
30
D0
20
ENDCHAR
STARTCHAR uni091F094D0930094D
ENCODING -1
SWIDTH 485 0
DWIDTH 4 0
BBX 4 9 0 -3
BITMAP
F0
10
60
80
90
70
50
20
20
ENDCHAR
STARTCHAR uni0920094D0930094D
ENCODING -1
SWIDTH 512 0
DWIDTH 5 0
BBX 5 9 0 -3
BITMAP
F8
10
60
90
90
50
60
30
20
ENDCHAR
STARTCHAR uni0921094D0930094D
ENCODING -1
SWIDTH 475 0
DWIDTH 4 0
BBX 4 9 0 -3
BITMAP
F0
60
80
60
10
90
60
10
20
ENDCHAR
STARTCHAR uni0922094D0930094D
ENCODING -1
SWIDTH 485 0
DWIDTH 4 0
BBX 5 9 0 -3
BITMAP
F8
10
60
B0
B0
50
60
30
20
ENDCHAR
STARTCHAR uni0923094D0930094D
ENCODING -1
SWIDTH 457 0
DWIDTH 4 0
BBX 5 6 0 0
BITMAP
F0
90
90
98
68
10
ENDCHAR
STARTCHAR uni0924094D0930094D
ENCODING -1
SWIDTH 268 0
DWIDTH 2 0
BBX 4 6 0 0
BITMAP
F0
00
60
90
20
40
ENDCHAR
STARTCHAR uni0925094D0930094D
ENCODING -1
SWIDTH 358 0
DWIDTH 3 0
BBX 3 6 1 0
BITMAP
C0
C0
C0
80
E0
C0
ENDCHAR
STARTCHAR uni0926094D0930094D
ENCODING -1
SWIDTH 489 0
DWIDTH 4 0
BBX 5 8 0 -2
BITMAP
F8
70
80
80
70
30
20
10
ENDCHAR
STARTCHAR uni0927094D0930094D
ENCODING -1
SWIDTH 322 0
DWIDTH 3 0
BBX 4 6 0 0
BITMAP
D0
80
40
80
70
20
ENDCHAR
STARTCHAR uni0928094D0930094D
ENCODING -1
SWIDTH 247 0
DWIDTH 2 0
BBX 3 6 0 0
BITMAP
E0
00
60
A0
20
40
ENDCHAR
STARTCHAR uni092A094D0930094D
ENCODING -1
SWIDTH 270 0
DWIDTH 2 0
BBX 4 6 0 0
BITMAP
E0
80
90
60
20
40
ENDCHAR
STARTCHAR uni092B094D0930094D
ENCODING -1
SWIDTH 523 0
DWIDTH 5 0
BBX 6 6 0 0
BITMAP
FC
9C
90
70
50
50
ENDCHAR
STARTCHAR uni092C094D0930094D
ENCODING -1
SWIDTH 267 0
DWIDTH 2 0
BBX 4 6 0 0
BITMAP
E0
60
40
B0
60
40
ENDCHAR
STARTCHAR uni092D094D0930094D
ENCODING -1
SWIDTH 257 0
DWIDTH 2 0
BBX 3 6 0 0
BITMAP
A0
80
60
A0
20
40
ENDCHAR
STARTCHAR uni092E094D0930094D
ENCODING -1
SWIDTH 261 0
DWIDTH 2 0
BBX 3 6 0 0
BITMAP
E0
80
60
A0
20
40
ENDCHAR
STARTCHAR uni092F094D0930094D
ENCODING -1
SWIDTH 323 0
DWIDTH 3 0
BBX 4 6 0 0
BITMAP
F0
20
40
80
70
60
ENDCHAR
STARTCHAR uni0935094D0930094D
ENCODING -1
SWIDTH 255 0
DWIDTH 2 0
BBX 3 6 0 0
BITMAP
E0
40
80
80
60
40
ENDCHAR
STARTCHAR uni0938094D0930094D
ENCODING -1
SWIDTH 347 0
DWIDTH 3 0
BBX 4 6 0 0
BITMAP
F0
40
40
F0
50
60
ENDCHAR
STARTCHAR uni0915093C094D0930094D
ENCODING -1
SWIDTH 518 0
DWIDTH 5 0
BBX 6 7 0 -1
BITMAP
FC
5C
90
90
60
50
20
ENDCHAR
STARTCHAR uni0916093C094D0930094D
ENCODING -1
SWIDTH 466 0
DWIDTH 4 0
BBX 5 7 0 -1
BITMAP
F8
30
20
D0
58
50
08
ENDCHAR
STARTCHAR uni0917093C094D0930094D
ENCODING -1
SWIDTH 264 0
DWIDTH 2 0
BBX 4 7 0 -1
BITMAP
E0
40
40
B0
20
40
20
ENDCHAR
STARTCHAR uni091C093C094D0930094D
ENCODING -1
SWIDTH 320 0
DWIDTH 3 0
BBX 4 7 0 -1
BITMAP
F0
00
70
20
30
E0
80
ENDCHAR
STARTCHAR uni0928093C094D0930094D
ENCODING -1
SWIDTH 247 0
DWIDTH 2 0
BBX 3 7 0 -1
BITMAP
E0
00
60
A0
20
40
40
ENDCHAR
STARTCHAR uni092B093C094D0930094D
ENCODING -1
SWIDTH 523 0
DWIDTH 5 0
BBX 6 7 0 -1
BITMAP
FC
9C
90
70
50
50
40
ENDCHAR
STARTCHAR uni092F093C094D0930094D
ENCODING -1
SWIDTH 323 0
DWIDTH 3 0
BBX 4 7 0 -1
BITMAP
F0
20
40
80
70
60
20
ENDCHAR
STARTCHAR uni0915094D0915
ENCODING -1
SWIDTH 1255 0
DWIDTH 11 0
BBX 11 6 0 0
BITMAP
FFE0
5AC0
94A0
94A0
6340
1080
ENDCHAR
STARTCHAR uni0915094D0916
ENCODING -1
SWIDTH 1256 0
DWIDTH 11 0
BBX 11 6 0 0
BITMAP
FFE0
59A0
9520
96A0
6260
1320
ENDCHAR
STARTCHAR uni0915094D091A
ENCODING -1
SWIDTH 1086 0
DWIDTH 10 0
BBX 10 6 0 0
BITMAP
FFC0
5880
9780
9480
6380
1080
ENDCHAR
STARTCHAR uni0915094D091C
ENCODING -1
SWIDTH 1071 0
DWIDTH 10 0
BBX 10 6 0 0
BITMAP
FFC0
5080
9B80
9280
6280
1680
ENDCHAR
STARTCHAR uni0915094D091F
ENCODING -1
SWIDTH 984 0
DWIDTH 9 0
BBX 9 6 0 0
BITMAP
FF80
5F00
9400
9480
6480
1700
ENDCHAR
STARTCHAR uni0915094D0923
ENCODING -1
SWIDTH 1183 0
DWIDTH 11 0
BBX 11 6 0 0
BITMAP
FFE0
5D40
9540
9540
6240
1040
ENDCHAR
STARTCHAR uni0915094D0924
ENCODING -1
SWIDTH 761 0
DWIDTH 7 0
BBX 7 6 0 0
BITMAP
FE
10
7C
52
52
34
ENDCHAR
STARTCHAR uni0915094D0925
ENCODING -1
SWIDTH 1118 0
DWIDTH 10 0
BBX 10 6 0 0
BITMAP
FF40
5140
9E40
9480
6380
1040
ENDCHAR
STARTCHAR uni0915094D0926
ENCODING -1
SWIDTH 1009 0
DWIDTH 9 0
BBX 9 6 0 0
BITMAP
FF80
5B00
9400
9400
6300
1080
ENDCHAR
STARTCHAR uni0915094D092A
ENCODING -1
SWIDTH 1007 0
DWIDTH 9 0
BBX 9 6 0 0
BITMAP
FF80
5C80
9480
9500
6280
1080
ENDCHAR
STARTCHAR uni0915094D092B
ENCODING -1
SWIDTH 1242 0
DWIDTH 11 0
BBX 11 6 0 0
BITMAP
FFE0
5CC0
9520
9520
6340
1100
ENDCHAR
STARTCHAR uni0915094D092E
ENCODING -1
SWIDTH 994 0
DWIDTH 9 0
BBX 9 6 0 0
BITMAP
FF80
5D00
9700
9500
6100
1100
ENDCHAR
STARTCHAR uni0915094D092F
ENCODING -1
SWIDTH 1076 0
DWIDTH 10 0
BBX 10 6 0 0
BITMAP
FFC0
5280
9E80
9480
6380
1080
ENDCHAR
STARTCHAR uni0915094D0932
ENCODING -1
SWIDTH 1178 0
DWIDTH 11 0
BBX 11 6 0 0
BITMAP
FFE0
5EC0
9540
9540
6440
1640
ENDCHAR
STARTCHAR uni0915094D0935
ENCODING -1
SWIDTH 1013 0
DWIDTH 9 0
BBX 9 6 0 0
BITMAP
FF80
5A80
9480
9480
6300
1080
ENDCHAR
STARTCHAR uni0915094D0936
ENCODING -1
SWIDTH 1194 0
DWIDTH 11 0
BBX 11 6 0 0
BITMAP
FB60
58C0
9540
9740
6240
1140
ENDCHAR
STARTCHAR uni0915094D0938
ENCODING -1
SWIDTH 1143 0
DWIDTH 10 0
BBX 10 6 0 0
BITMAP
FFC0
5940
9640
9780
6240
1240
ENDCHAR
STARTCHAR uni0916094D0916
ENCODING -1
SWIDTH 1223 0
DWIDTH 11 0
BBX 11 6 0 0
BITMAP
FFE0
32C0
2340
D740
5CC0
4240
ENDCHAR
STARTCHAR uni0916094D0924
ENCODING -1
SWIDTH 984 0
DWIDTH 9 0
BBX 9 6 0 0
BITMAP
FF80
3100
2700
D500
5900
4700
ENDCHAR
STARTCHAR uni0916094D092E
ENCODING -1
SWIDTH 965 0
DWIDTH 9 0
BBX 9 6 0 0
BITMAP
FF80
3500
2700
D500
5900
4100
ENDCHAR
STARTCHAR uni0916094D092F
ENCODING -1
SWIDTH 1047 0
DWIDTH 9 0
BBX 10 6 0 0
BITMAP
FFC0
3280
2480
D480
5F80
4080
ENDCHAR
STARTCHAR uni0916094D0935
ENCODING -1
SWIDTH 975 0
DWIDTH 9 0
BBX 9 6 0 0
BITMAP
FF80
3700
2500
D500
5F00
4100
ENDCHAR
STARTCHAR uni0916094D0936
ENCODING -1
SWIDTH 1123 0
DWIDTH 10 0
BBX 10 6 0 0
BITMAP
FF40
3140
2140
D640
5C40
4240
ENDCHAR
STARTCHAR uni0917094D0917
ENCODING -1
SWIDTH 744 0
DWIDTH 7 0
BBX 7 6 0 0
BITMAP
FE
54
54
A4
04
04
ENDCHAR
STARTCHAR uni0917094D0918
ENCODING -1
SWIDTH 823 0
DWIDTH 7 0
BBX 8 6 0 0
BITMAP
FF
52
4A
92
12
0E
ENDCHAR
STARTCHAR uni0917094D091C
ENCODING -1
SWIDTH 801 0
DWIDTH 7 0
BBX 7 6 0 0
BITMAP
FE
42
5C
8A
0A
12
ENDCHAR
STARTCHAR uni0917094D0923
ENCODING -1
SWIDTH 945 0
DWIDTH 9 0
BBX 9 6 0 0
BITMAP
FF80
5500
5500
9500
0900
0100
ENDCHAR
STARTCHAR uni0917094D0926
ENCODING -1
SWIDTH 748 0
DWIDTH 7 0
BBX 7 6 0 0
BITMAP
FE
5C
50
90
1C
04
ENDCHAR
STARTCHAR uni0917094D0927
ENCODING -1
SWIDTH 823 0
DWIDTH 7 0
BBX 8 6 0 0
BITMAP
F7
52
4A
92
12
0E
ENDCHAR
STARTCHAR uni0917094D092C
ENCODING -1
SWIDTH 755 0
DWIDTH 7 0
BBX 7 6 0 0
BITMAP
FE
5C
5C
94
1C
04
ENDCHAR
STARTCHAR uni0917094D092D
ENCODING -1
SWIDTH 755 0
DWIDTH 7 0
BBX 7 6 0 0
BITMAP
F6
54
5C
94
04
04
ENDCHAR
STARTCHAR uni0917094D092E
ENCODING -1
SWIDTH 754 0
DWIDTH 7 0
BBX 7 6 0 0
BITMAP
FE
54
5C
94
04
04
ENDCHAR
STARTCHAR uni0917094D092F
ENCODING -1
SWIDTH 828 0
DWIDTH 7 0
BBX 8 6 0 0
BITMAP
FF
4A
52
92
0E
02
ENDCHAR
STARTCHAR uni0917094D0932
ENCODING -1
SWIDTH 924 0
DWIDTH 8 0
BBX 8 6 0 0
BITMAP
FF
5F
55
95
11
19
ENDCHAR
STARTCHAR uni0917094D0935
ENCODING -1
SWIDTH 747 0
DWIDTH 7 0
BBX 7 6 0 0
BITMAP
FE
5C
54
94
1C
04
ENDCHAR
STARTCHAR uni0917094D0938
ENCODING -1
SWIDTH 839 0
DWIDTH 8 0
BBX 8 6 0 0
BITMAP
FF
4A
4A
96
12
0A
ENDCHAR
STARTCHAR uni0918094D092E
ENCODING -1
SWIDTH 818 0
DWIDTH 7 0
BBX 7 6 0 0
BITMAP
FE
92
4E
92
92
72
ENDCHAR
STARTCHAR uni0918094D092F
ENCODING -1
SWIDTH 867 0
DWIDTH 8 0
BBX 8 6 0 0
BITMAP
FF
8A
5A
92
9E
62
ENDCHAR
STARTCHAR uni091A094D091A
ENCODING -1
SWIDTH 868 0
DWIDTH 8 0
BBX 8 6 0 0
BITMAP
FF
02
FE
52
7E
02
ENDCHAR
STARTCHAR uni091A094D091B
ENCODING -1
SWIDTH 922 0
DWIDTH 8 0
BBX 8 6 0 0
BITMAP
FF
11
F2
49
51
2F
ENDCHAR
STARTCHAR uni091A094D092E
ENCODING -1
SWIDTH 830 0
DWIDTH 7 0
BBX 8 6 0 0
BITMAP
FF
F2
4E
52
32
02
ENDCHAR
STARTCHAR uni091A094D092F
ENCODING -1
SWIDTH 904 0
DWIDTH 8 0
BBX 8 6 0 0
BITMAP
FF
05
E9
51
7E
01
ENDCHAR
STARTCHAR uni091B094D092F
ENCODING -1
SWIDTH 1068 0
DWIDTH 10 0
BBX 10 6 0 0
BITMAP
FFC0
9E80
4A80
8E80
8B80
7080
ENDCHAR
STARTCHAR uni091B094D0935
ENCODING -1
SWIDTH 581 0
DWIDTH 5 0
BBX 5 7 0 -1
BITMAP
F8
90
48
88
70
48
70
ENDCHAR
STARTCHAR uni091C094D0915
ENCODING -1
SWIDTH 1054 0
DWIDTH 9 0
BBX 10 6 0 0
BITMAP
FFC0
0B00
7280
3280
2D00
C200
ENDCHAR
STARTCHAR uni091C094D091C
ENCODING -1
SWIDTH 903 0
DWIDTH 8 0
BBX 8 6 0 0
BITMAP
FF
01
6E
25
25
D9
ENDCHAR
STARTCHAR uni091C094D091D
ENCODING -1
SWIDTH 990 0
DWIDTH 9 0
BBX 9 6 0 0
BITMAP
FF80
0D00
7100
2F00
3300
DD00
ENDCHAR
STARTCHAR uni091C094D091F
ENCODING -1
SWIDTH 815 0
DWIDTH 7 0
BBX 7 6 0 0
BITMAP
FE
02
7C
30
32
CE
ENDCHAR
STARTCHAR uni091C094D0921
ENCODING -1
SWIDTH 797 0
DWIDTH 7 0
BBX 7 6 0 0
BITMAP
FE
0C
70
2C
22
DE
ENDCHAR
STARTCHAR uni091C094D0924
ENCODING -1
SWIDTH 830 0
DWIDTH 7 0
BBX 8 6 0 0
BITMAP
FF
02
7E
32
32
CA
ENDCHAR
STARTCHAR uni091C094D0926
ENCODING -1
SWIDTH 817 0
DWIDTH 7 0
BBX 7 6 0 0
BITMAP
FE
0E
70
30
2E
C2
ENDCHAR
STARTCHAR uni091C094D092C
ENCODING -1
SWIDTH 820 0
DWIDTH 7 0
BBX 8 6 0 0
BITMAP
FF
0A
7A
36
2E
C2
ENDCHAR
STARTCHAR uni091C094D092E
ENCODING -1
SWIDTH 813 0
DWIDTH 7 0
BBX 7 6 0 0
BITMAP
FE
12
6C
32
22
C2
ENDCHAR
STARTCHAR uni091C094D092F
ENCODING -1
SWIDTH 893 0
DWIDTH 8 0
BBX 8 6 0 0
BITMAP
FF
06
7A
32
2E
C2
ENDCHAR
STARTCHAR uni091C094D0935
ENCODING -1
SWIDTH 813 0
DWIDTH 7 0
BBX 7 6 0 0
BITMAP
FE
0A
72
32
2C
C2
ENDCHAR
STARTCHAR uni091D094D092E
ENCODING -1
SWIDTH 936 0
DWIDTH 8 0
BBX 9 6 0 0
BITMAP
FF80
6900
8700
7900
9100
6100
ENDCHAR
STARTCHAR uni091D094D092F
ENCODING -1
SWIDTH 1000 0
DWIDTH 9 0
BBX 9 6 0 0
BITMAP
FF80
6300
8500
7900
9700
6100
ENDCHAR
STARTCHAR uni091E094D091B
ENCODING -1
SWIDTH 913 0
DWIDTH 8 0
BBX 8 6 0 0
BITMAP
FF
D1
32
39
31
CF
ENDCHAR
STARTCHAR uni091E094D091C
ENCODING -1
SWIDTH 932 0
DWIDTH 8 0
BBX 9 6 0 0
BITMAP
FF80
0100
4F00
3500
C500
0D00
ENDCHAR
STARTCHAR uni091E094D0936
ENCODING -1
SWIDTH 975 0
DWIDTH 9 0
BBX 9 6 0 0
BITMAP
ED80
4B00
2300
3D00
C900
0500
ENDCHAR
STARTCHAR uni091F094D091F
ENCODING -1
SWIDTH 494 0
DWIDTH 4 0
BBX 5 9 0 -3
BITMAP
F8
60
80
90
60
70
80
90
60
ENDCHAR
STARTCHAR uni091F094D0920
ENCODING -1
SWIDTH 495 0
DWIDTH 4 0
BBX 5 9 0 -3
BITMAP
F8
60
80
90
70
70
90
90
60
ENDCHAR
STARTCHAR uni091F094D092F
ENCODING -1
SWIDTH 990 0
DWIDTH 9 0
BBX 9 6 0 0
BITMAP
FF80
7D00
8300
9500
9900
7700
ENDCHAR
STARTCHAR uni091F094D0935
ENCODING -1
SWIDTH 501 0
DWIDTH 5 0
BBX 5 7 0 -1
BITMAP
F8
60
80
90
70
90
60
ENDCHAR
STARTCHAR uni0920094D092F
ENCODING -1
SWIDTH 998 0
DWIDTH 9 0
BBX 9 6 0 0
BITMAP
FF80
6D00
9300
9500
9500
7700
ENDCHAR
STARTCHAR uni0921094D0921
ENCODING -1
SWIDTH 493 0
DWIDTH 4 0
BBX 5 9 0 -3
BITMAP
F8
60
80
60
90
60
60
90
60
ENDCHAR
STARTCHAR uni0921094D0922
ENCODING -1
SWIDTH 493 0
DWIDTH 4 0
BBX 5 8 0 -2
BITMAP
F8
60
80
70
70
80
B0
70
ENDCHAR
STARTCHAR uni0921094D092F
ENCODING -1
SWIDTH 973 0
DWIDTH 9 0
BBX 9 6 0 0
BITMAP
FF80
7D00
8300
6500
1900
F700
ENDCHAR
STARTCHAR uni0921094D0935
ENCODING -1
SWIDTH 493 0
DWIDTH 4 0
BBX 5 8 0 -2
BITMAP
F8
60
80
60
90
70
90
60
ENDCHAR
STARTCHAR uni0922094D092F
ENCODING -1
SWIDTH 981 0
DWIDTH 9 0
BBX 9 6 0 0
BITMAP
FF80
7D00
8300
B500
B900
7700
ENDCHAR
STARTCHAR uni0923094D091F
ENCODING -1
SWIDTH 908 0
DWIDTH 8 0
BBX 8 6 0 0
BITMAP
FF
92
96
98
69
0F
ENDCHAR
STARTCHAR uni0923094D0920
ENCODING -1
SWIDTH 936 0
DWIDTH 8 0
BBX 9 6 0 0
BITMAP
FF80
9100
9600
9900
6900
0F00
ENDCHAR
STARTCHAR uni0923094D0921
ENCODING -1
SWIDTH 892 0
DWIDTH 8 0
BBX 8 6 0 0
BITMAP
FF
96
98
96
61
0F
ENDCHAR
STARTCHAR uni0923094D0922
ENCODING -1
SWIDTH 908 0
DWIDTH 8 0
BBX 8 6 0 0
BITMAP
FF
91
96
9A
6B
0F
ENDCHAR
STARTCHAR uni0923094D0923
ENCODING -1
SWIDTH 1127 0
DWIDTH 10 0
BBX 10 6 0 0
BITMAP
FFC0
9940
9940
9940
6640
0040
ENDCHAR
STARTCHAR uni0923094D092E
ENCODING -1
SWIDTH 932 0
DWIDTH 8 0
BBX 9 6 0 0
BITMAP
FF80
9900
9700
9900
6900
0100
ENDCHAR
STARTCHAR uni0923094D092F
ENCODING -1
SWIDTH 998 0
DWIDTH 9 0
BBX 9 6 0 0
BITMAP
FF80
9300
9500
9900
6700
0100
ENDCHAR
STARTCHAR uni0923094D0935
ENCODING -1
SWIDTH 923 0
DWIDTH 8 0
BBX 8 6 0 0
BITMAP
FF
95
99
99
66
01
ENDCHAR
STARTCHAR uni0924094D0915
ENCODING -1
SWIDTH 992 0
DWIDTH 9 0
BBX 9 6 0 0
BITMAP
FF80
1F00
6480
9480
9D00
4400
ENDCHAR
STARTCHAR uni0924094D0916
ENCODING -1
SWIDTH 1014 0
DWIDTH 9 0
BBX 9 6 0 0
BITMAP
FF80
0A80
6C80
9C80
8B00
4880
ENDCHAR
STARTCHAR uni0924094D0924
ENCODING -1
SWIDTH 542 0
DWIDTH 5 0
BBX 5 6 0 0
BITMAP
F8
10
F0
50
50
70
ENDCHAR
STARTCHAR uni0924094D0925
ENCODING -1
SWIDTH 869 0
DWIDTH 8 0
BBX 8 6 0 0
BITMAP
FF
06
7A
92
8E
42
ENDCHAR
STARTCHAR uni0924094D092A
ENCODING -1
SWIDTH 757 0
DWIDTH 7 0
BBX 7 6 0 0
BITMAP
FE
14
64
94
8C
44
ENDCHAR
STARTCHAR uni0924094D092B
ENCODING -1
SWIDTH 992 0
DWIDTH 9 0
BBX 9 6 0 0
BITMAP
FF80
1700
6480
9480
8D00
4400
ENDCHAR
STARTCHAR uni0924094D092E
ENCODING -1
SWIDTH 764 0
DWIDTH 7 0
BBX 7 6 0 0
BITMAP
FE
14
7C
94
84
44
ENDCHAR
STARTCHAR uni0924094D092F
ENCODING -1
SWIDTH 830 0
DWIDTH 7 0
BBX 8 6 0 0
BITMAP
FF
0A
72
92
8E
42
ENDCHAR
STARTCHAR uni0924094D0932
ENCODING -1
SWIDTH 957 0
DWIDTH 9 0
BBX 9 6 0 0
BITMAP
FF80
6B00
9500
9500
9100
5900
ENDCHAR
STARTCHAR uni0924094D0935
ENCODING -1
SWIDTH 751 0
DWIDTH 7 0
BBX 7 6 0 0
BITMAP
FE
1C
64
94
9C
44
ENDCHAR
STARTCHAR uni0924094D0938
ENCODING -1
SWIDTH 876 0
DWIDTH 8 0
BBX 8 6 0 0
BITMAP
FF
0A
6A
9E
92
4A
ENDCHAR
STARTCHAR uni0925094D092F
ENCODING -1
SWIDTH 931 0
DWIDTH 8 0
BBX 8 6 1 0
BITMAP
DF
CA
D2
92
EE
02
ENDCHAR
STARTCHAR uni0925094D0935
ENCODING -1
SWIDTH 862 0
DWIDTH 8 0
BBX 7 6 1 0
BITMAP
DE
DC
D4
94
FC
04
ENDCHAR
STARTCHAR uni0926094D0917
ENCODING -1
SWIDTH 489 0
DWIDTH 4 0
BBX 5 7 0 -1
BITMAP
F8
70
80
90
70
50
40
ENDCHAR
STARTCHAR uni0926094D0918
ENCODING -1
SWIDTH 686 0
DWIDTH 6 0
BBX 6 7 0 -1
BITMAP
FC
18
60
A0
DC
94
60
ENDCHAR
STARTCHAR uni0926094D0926
ENCODING -1
SWIDTH 506 0
DWIDTH 5 0
BBX 5 7 0 -1
BITMAP
F8
70
80
60
80
70
10
ENDCHAR
STARTCHAR uni0926094D0927
ENCODING -1
SWIDTH 686 0
DWIDTH 6 0
BBX 6 7 0 -1
BITMAP
FC
18
60
A0
DC
94
60
ENDCHAR
STARTCHAR uni0926094D092C
ENCODING -1
SWIDTH 481 0
DWIDTH 4 0
BBX 4 7 0 -1
BITMAP
F0
70
80
90
70
B0
60
ENDCHAR
STARTCHAR uni0926094D092D
ENCODING -1
SWIDTH 499 0
DWIDTH 4 0
BBX 5 7 0 -1
BITMAP
F8
70
80
90
F0
50
70
ENDCHAR
STARTCHAR uni0926094D092E
ENCODING -1
SWIDTH 706 0
DWIDTH 6 0
BBX 6 6 0 0
BITMAP
FC
64
84
64
1C
14
ENDCHAR
STARTCHAR uni0926094D092F
ENCODING -1
SWIDTH 583 0
DWIDTH 5 0
BBX 5 6 0 0
BITMAP
F8
68
88
48
88
70
ENDCHAR
STARTCHAR uni0926094D0935
ENCODING -1
SWIDTH 483 0
DWIDTH 4 0
BBX 4 7 0 -1
BITMAP
F0
70
80
90
70
90
60
ENDCHAR
STARTCHAR uni0927094D092E
ENCODING -1
SWIDTH 817 0
DWIDTH 7 0
BBX 8 6 0 0
BITMAP
DF
92
4E
92
92
72
ENDCHAR
STARTCHAR uni0927094D092F
ENCODING -1
SWIDTH 886 0
DWIDTH 8 0
BBX 8 6 0 0
BITMAP
DF
86
4A
92
9E
62
ENDCHAR
STARTCHAR uni0927094D0935
ENCODING -1
SWIDTH 810 0
DWIDTH 7 0
BBX 7 6 0 0
BITMAP
DE
8A
52
92
9C
62
ENDCHAR
STARTCHAR uni0928094D0915
ENCODING -1
SWIDTH 973 0
DWIDTH 9 0
BBX 9 6 0 0
BITMAP
FF80
1F00
6500
A500
1F00
0400
ENDCHAR
STARTCHAR uni0928094D091A
ENCODING -1
SWIDTH 820 0
DWIDTH 7 0
BBX 8 6 0 0
BITMAP
FF
1A
12
F2
0E
02
ENDCHAR
STARTCHAR uni0928094D091B
ENCODING -1
SWIDTH 781 0
DWIDTH 7 0
BBX 7 6 0 0
BITMAP
FE
24
24
72
A2
3C
ENDCHAR
STARTCHAR uni0928094D091F
ENCODING -1
SWIDTH 715 0
DWIDTH 6 0
BBX 7 6 0 0
BITMAP
FE
04
78
A0
24
1C
ENDCHAR
STARTCHAR uni0928094D0921
ENCODING -1
SWIDTH 705 0
DWIDTH 6 0
BBX 6 6 0 0
BITMAP
FC
1C
60
98
04
1C
ENDCHAR
STARTCHAR uni0928094D0924
ENCODING -1
SWIDTH 717 0
DWIDTH 6 0
BBX 7 6 0 0
BITMAP
FE
04
7C
A4
24
14
ENDCHAR
STARTCHAR uni0928094D0925
ENCODING -1
SWIDTH 804 0
DWIDTH 7 0
BBX 7 6 0 0
BITMAP
DA
2A
72
A2
1C
02
ENDCHAR
STARTCHAR uni0928094D0926
ENCODING -1
SWIDTH 724 0
DWIDTH 7 0
BBX 7 6 0 0
BITMAP
FE
1C
60
A0
1C
04
ENDCHAR
STARTCHAR uni0928094D0927
ENCODING -1
SWIDTH 753 0
DWIDTH 7 0
BBX 7 6 0 0
BITMAP
F6
24
74
A4
24
1C
ENDCHAR
STARTCHAR uni0928094D092A
ENCODING -1
SWIDTH 742 0
DWIDTH 7 0
BBX 7 6 0 0
BITMAP
FE
14
64
94
8C
04
ENDCHAR
STARTCHAR uni0928094D092B
ENCODING -1
SWIDTH 970 0
DWIDTH 9 0
BBX 9 6 0 0
BITMAP
FF80
1700
6500
9500
0F00
0400
ENDCHAR
STARTCHAR uni0928094D092D
ENCODING -1
SWIDTH 739 0
DWIDTH 7 0
BBX 7 6 0 0
BITMAP
EE
14
7C
94
04
04
ENDCHAR
STARTCHAR uni0928094D092E
ENCODING -1
SWIDTH 735 0
DWIDTH 7 0
BBX 7 6 0 0
BITMAP
FE
14
7C
94
04
04
ENDCHAR
STARTCHAR uni0928094D092F
ENCODING -1
SWIDTH 801 0
DWIDTH 7 0
BBX 7 6 0 0
BITMAP
FE
0A
72
A2
1C
02
ENDCHAR
STARTCHAR uni0928094D0935
ENCODING -1
SWIDTH 732 0
DWIDTH 7 0
BBX 7 6 0 0
BITMAP
FE
1C
64
94
1C
04
ENDCHAR
STARTCHAR uni0928094D0938
ENCODING -1
SWIDTH 867 0
DWIDTH 8 0
BBX 8 6 0 0
BITMAP
FF
0A
6A
9E
12
0A
ENDCHAR
STARTCHAR uni0928094D0939
ENCODING -1
SWIDTH 714 0
DWIDTH 6 0
BBX 7 7 0 -1
BITMAP
FE
1C
60
98
24
20
1C
ENDCHAR
STARTCHAR uni092A094D091F
ENCODING -1
SWIDTH 489 0
DWIDTH 4 0
BBX 5 6 0 0
BITMAP
F8
90
70
80
90
70
ENDCHAR
STARTCHAR uni092A094D0920
ENCODING -1
SWIDTH 506 0
DWIDTH 5 0
BBX 5 6 0 0
BITMAP
F8
90
60
90
90
70
ENDCHAR
STARTCHAR uni092A094D0924
ENCODING -1
SWIDTH 495 0
DWIDTH 4 0
BBX 5 6 0 0
BITMAP
F8
90
70
90
90
50
ENDCHAR
STARTCHAR uni092A094D092A
ENCODING -1
SWIDTH 770 0
DWIDTH 7 0
BBX 7 6 0 0
BITMAP
FE
94
94
94
6C
04
ENDCHAR
STARTCHAR uni092A094D092B
ENCODING -1
SWIDTH 1003 0
DWIDTH 9 0
BBX 9 6 0 0
BITMAP
FF80
9300
9480
9480
6D00
0400
ENDCHAR
STARTCHAR uni092A094D092E
ENCODING -1
SWIDTH 774 0
DWIDTH 7 0
BBX 7 6 0 0
BITMAP
FE
94
9C
74
04
04
ENDCHAR
STARTCHAR uni092A094D092F
ENCODING -1
SWIDTH 855 0
DWIDTH 8 0
BBX 8 6 0 0
BITMAP
FF
8A
9A
92
6E
02
ENDCHAR
STARTCHAR uni092A094D0932
ENCODING -1
SWIDTH 960 0
DWIDTH 9 0
BBX 9 6 0 0
BITMAP
FF80
8B00
9500
9500
7100
1900
ENDCHAR
STARTCHAR uni092A094D0935
ENCODING -1
SWIDTH 780 0
DWIDTH 7 0
BBX 7 6 0 0
BITMAP
FE
8C
94
94
7C
04
ENDCHAR
STARTCHAR uni092A094D0938
ENCODING -1
SWIDTH 880 0
DWIDTH 8 0
BBX 8 6 0 0
BITMAP
FF
8A
8A
9E
72
0A
ENDCHAR
STARTCHAR uni092B094D091C
ENCODING -1
SWIDTH 1100 0
DWIDTH 10 0
BBX 10 6 0 0
BITMAP
FFC0
9080
9B80
9180
7180
1680
ENDCHAR
STARTCHAR uni092B094D091F
ENCODING -1
SWIDTH 1006 0
DWIDTH 9 0
BBX 9 6 0 0
BITMAP
FF80
9F00
9400
7480
1480
1700
ENDCHAR
STARTCHAR uni092B094D0924
ENCODING -1
SWIDTH 1034 0
DWIDTH 9 0
BBX 9 6 0 0
BITMAP
FF80
9C80
9300
9480
7480
1680
ENDCHAR
STARTCHAR uni092B094D092A
ENCODING -1
SWIDTH 1021 0
DWIDTH 9 0
BBX 9 6 0 0
BITMAP
FF80
9C80
9480
9480
7300
1080
ENDCHAR
STARTCHAR uni092B094D092B
ENCODING -1
SWIDTH 1256 0
DWIDTH 11 0
BBX 11 6 0 0
BITMAP
FFE0
9CC0
94A0
94A0
73C0
1080
ENDCHAR
STARTCHAR uni092B094D092F
ENCODING -1
SWIDTH 1120 0
DWIDTH 10 0
BBX 10 6 0 0
BITMAP
FFC0
9280
9E80
9480
7380
1080
ENDCHAR
STARTCHAR uni092B094D0932
ENCODING -1
SWIDTH 1202 0
DWIDTH 11 0
BBX 11 6 0 0
BITMAP
FFE0
9EC0
9540
9540
7540
1640
ENDCHAR
STARTCHAR uni092B094D0936
ENCODING -1
SWIDTH 1211 0
DWIDTH 11 0
BBX 11 6 0 0
BITMAP
FF60
9AC0
94C0
9740
7240
1340
ENDCHAR
STARTCHAR uni092C094D091C
ENCODING -1
SWIDTH 883 0
DWIDTH 8 0
BBX 8 6 0 0
BITMAP
FF
42
8E
C6
A6
7A
ENDCHAR
STARTCHAR uni092C094D091D
ENCODING -1
SWIDTH 962 0
DWIDTH 9 0
BBX 9 7 0 -1
BITMAP
FF80
6D00
5100
BF00
6500
1D00
1000
ENDCHAR
STARTCHAR uni092C094D0924
ENCODING -1
SWIDTH 786 0
DWIDTH 7 0
BBX 7 6 0 0
BITMAP
FE
62
4C
B2
72
1A
ENDCHAR
STARTCHAR uni092C094D0926
ENCODING -1
SWIDTH 775 0
DWIDTH 7 0
BBX 7 6 0 0
BITMAP
FE
6C
D0
B0
6C
02
ENDCHAR
STARTCHAR uni092C094D0927
ENCODING -1
SWIDTH 844 0
DWIDTH 8 0
BBX 8 6 0 0
BITMAP
FF
52
4A
B2
72
0E
ENDCHAR
STARTCHAR uni092C094D092C
ENCODING -1
SWIDTH 783 0
DWIDTH 7 0
BBX 7 6 0 0
BITMAP
FE
6A
5A
B4
6C
02
ENDCHAR
STARTCHAR uni092C094D092D
ENCODING -1
SWIDTH 764 0
DWIDTH 7 0
BBX 7 6 0 0
BITMAP
F6
74
DC
B4
64
04
ENDCHAR
STARTCHAR uni092C094D092F
ENCODING -1
SWIDTH 852 0
DWIDTH 8 0
BBX 8 6 0 0
BITMAP
FF
6A
5A
B2
6E
02
ENDCHAR
STARTCHAR uni092C094D0932
ENCODING -1
SWIDTH 961 0
DWIDTH 9 0
BBX 9 6 0 0
BITMAP
FF80
6B00
D500
B500
7100
1900
ENDCHAR
STARTCHAR uni092C094D0935
ENCODING -1
SWIDTH 776 0
DWIDTH 7 0
BBX 7 6 0 0
BITMAP
FE
6C
54
B4
6C
04
ENDCHAR
STARTCHAR uni092C094D0936
ENCODING -1
SWIDTH 926 0
DWIDTH 8 0
BBX 8 6 0 0
BITMAP
FD
75
45
B9
69
09
ENDCHAR
STARTCHAR uni092C094D0938
ENCODING -1
SWIDTH 897 0
DWIDTH 8 0
BBX 8 6 0 0
BITMAP
FF
69
49
BE
69
09
ENDCHAR
STARTCHAR uni092D094D092F
ENCODING -1
SWIDTH 827 0
DWIDTH 7 0
BBX 8 6 0 0
BITMAP
BF
8A
72
92
0E
02
ENDCHAR
STARTCHAR uni092D094D0932
ENCODING -1
SWIDTH 941 0
DWIDTH 8 0
BBX 9 6 0 0
BITMAP
BF80
9B00
6500
9500
1100
1900
ENDCHAR
STARTCHAR uni092D094D0935
ENCODING -1
SWIDTH 755 0
DWIDTH 7 0
BBX 7 6 0 0
BITMAP
BE
9C
64
94
0C
04
ENDCHAR
STARTCHAR uni092E094D0924
ENCODING -1
SWIDTH 765 0
DWIDTH 7 0
BBX 7 6 0 0
BITMAP
FE
84
7C
94
14
1C
ENDCHAR
STARTCHAR uni092E094D0926
ENCODING -1
SWIDTH 766 0
DWIDTH 7 0
BBX 7 6 0 0
BITMAP
FE
8C
70
90
0C
02
ENDCHAR
STARTCHAR uni092E094D092A
ENCODING -1
SWIDTH 762 0
DWIDTH 7 0
BBX 7 6 0 0
BITMAP
FE
94
74
94
8C
04
ENDCHAR
STARTCHAR uni092E094D092C
ENCODING -1
SWIDTH 768 0
DWIDTH 7 0
BBX 7 6 0 0
BITMAP
FE
9C
6C
94
0C
04
ENDCHAR
STARTCHAR uni092E094D092D
ENCODING -1
SWIDTH 768 0
DWIDTH 7 0
BBX 7 6 0 0
BITMAP
F6
94
7C
94
04
04
ENDCHAR
STARTCHAR uni092E094D092E
ENCODING -1
SWIDTH 759 0
DWIDTH 7 0
BBX 7 6 0 0
BITMAP
FE
94
7C
94
04
04
ENDCHAR
STARTCHAR uni092E094D092F
ENCODING -1
SWIDTH 834 0
DWIDTH 8 0
BBX 8 6 0 0
BITMAP
FF
8A
72
92
0E
02
ENDCHAR
STARTCHAR uni092E094D0932
ENCODING -1
SWIDTH 945 0
DWIDTH 9 0
BBX 9 6 0 0
BITMAP
FF80
8B00
7500
9500
1100
1900
ENDCHAR
STARTCHAR uni092E094D0935
ENCODING -1
SWIDTH 761 0
DWIDTH 7 0
BBX 7 6 0 0
BITMAP
FE
9C
74
94
0C
04
ENDCHAR
STARTCHAR uni092E094D0936
ENCODING -1
SWIDTH 884 0
DWIDTH 8 0
BBX 8 6 0 0
BITMAP
DB
96
86
7A
92
0A
ENDCHAR
STARTCHAR uni092E094D0938
ENCODING -1
SWIDTH 816 0
DWIDTH 7 0
BBX 7 6 0 0
BITMAP
FE
8A
8A
7E
92
12
ENDCHAR
STARTCHAR uni092E094D0939
ENCODING -1
SWIDTH 758 0
DWIDTH 7 0
BBX 7 7 0 -1
BITMAP
FE
8C
70
8C
14
10
0C
ENDCHAR
STARTCHAR uni092F094D092F
ENCODING -1
SWIDTH 897 0
DWIDTH 8 0
BBX 8 6 0 0
BITMAP
FF
25
49
91
7E
01
ENDCHAR
STARTCHAR uni0930094D092F
ENCODING -1
SWIDTH 713 0
DWIDTH 6 0
BBX 7 6 0 0
BITMAP
FE
14
E4
24
1C
04
ENDCHAR
STARTCHAR uni0930094D0939
ENCODING -1
SWIDTH 619 0
DWIDTH 6 0
BBX 6 7 0 -1
BITMAP
FC
38
C0
38
28
20
18
ENDCHAR
STARTCHAR uni0932094D0915
ENCODING -1
SWIDTH 1182 0
DWIDTH 11 0
BBX 11 6 0 0
BITMAP
FFE0
7FC0
A940
A940
87C0
6100
ENDCHAR
STARTCHAR uni0932094D0916
ENCODING -1
SWIDTH 1195 0
DWIDTH 11 0
BBX 11 6 0 0
BITMAP
FFE0
7AC0
AB40
A540
84C0
6240
ENDCHAR
STARTCHAR uni0932094D0917
ENCODING -1
SWIDTH 950 0
DWIDTH 9 0
BBX 9 6 0 0
BITMAP
FF80
7500
A500
A900
8100
6100
ENDCHAR
STARTCHAR uni0932094D091C
ENCODING -1
SWIDTH 1035 0
DWIDTH 9 0
BBX 9 6 0 0
BITMAP
FF80
7780
A280
A280
8280
6C80
ENDCHAR
STARTCHAR uni0932094D091F
ENCODING -1
SWIDTH 929 0
DWIDTH 8 0
BBX 9 6 0 0
BITMAP
FF80
0100
7E00
A800
8900
6700
ENDCHAR
STARTCHAR uni0932094D0920
ENCODING -1
SWIDTH 953 0
DWIDTH 9 0
BBX 9 6 0 0
BITMAP
FF80
0100
7E00
A900
8900
6700
ENDCHAR
STARTCHAR uni0932094D0921
ENCODING -1
SWIDTH 916 0
DWIDTH 8 0
BBX 8 6 0 0
BITMAP
FF
7E
A8
A6
81
6F
ENDCHAR
STARTCHAR uni0932094D0922
ENCODING -1
SWIDTH 924 0
DWIDTH 8 0
BBX 8 6 0 0
BITMAP
FF
01
7E
AB
8B
67
ENDCHAR
STARTCHAR uni0932094D0924
ENCODING -1
SWIDTH 929 0
DWIDTH 8 0
BBX 8 6 0 0
BITMAP
FF
59
A7
A9
89
6D
ENDCHAR
STARTCHAR uni0932094D0925
ENCODING -1
SWIDTH 1061 0
DWIDTH 10 0
BBX 10 6 0 0
BITMAP
F6C0
7A80
A680
A880
8780
6080
ENDCHAR
STARTCHAR uni0932094D0926
ENCODING -1
SWIDTH 939 0
DWIDTH 8 0
BBX 9 6 0 0
BITMAP
FF80
7F00
A800
A800
8700
6100
ENDCHAR
STARTCHAR uni0932094D092A
ENCODING -1
SWIDTH 939 0
DWIDTH 8 0
BBX 9 6 0 0
BITMAP
FF80
7900
A900
A900
8700
6100
ENDCHAR
STARTCHAR uni0932094D092B
ENCODING -1
SWIDTH 1176 0
DWIDTH 11 0
BBX 11 6 0 0
BITMAP
FFE0
79C0
A940
A940
87C0
6100
ENDCHAR
STARTCHAR uni0932094D092C
ENCODING -1
SWIDTH 949 0
DWIDTH 9 0
BBX 9 6 0 0
BITMAP
FF80
7F00
AB00
A900
8700
6100
ENDCHAR
STARTCHAR uni0932094D092D
ENCODING -1
SWIDTH 931 0
DWIDTH 8 0
BBX 9 6 0 0
BITMAP
FB80
7900
A700
A900
8100
6100
ENDCHAR
STARTCHAR uni0932094D092E
ENCODING -1
SWIDTH 931 0
DWIDTH 8 0
BBX 9 6 0 0
BITMAP
FF80
7900
A700
A900
8100
6100
ENDCHAR
STARTCHAR uni0932094D092F
ENCODING -1
SWIDTH 1033 0
DWIDTH 9 0
BBX 9 6 0 0
BITMAP
FF80
7A80
A480
A480
8700
6080
ENDCHAR
STARTCHAR uni0932094D0932
ENCODING -1
SWIDTH 1112 0
DWIDTH 10 0
BBX 10 6 0 0
BITMAP
FFC0
7F80
AA80
AA80
8880
6480
ENDCHAR
STARTCHAR uni0932094D0935
ENCODING -1
SWIDTH 940 0
DWIDTH 8 0
BBX 9 6 0 0
BITMAP
FF80
7F00
A900
A900
8700
6100
ENDCHAR
STARTCHAR uni0932094D0938
ENCODING -1
SWIDTH 1068 0
DWIDTH 10 0
BBX 10 6 0 0
BITMAP
FFC0
7A80
AA80
A780
8480
6280
ENDCHAR
STARTCHAR uni0932094D0939
ENCODING -1
SWIDTH 922 0
DWIDTH 8 0
BBX 8 7 0 -1
BITMAP
FF
01
7E
A6
89
68
07
ENDCHAR
STARTCHAR uni0933094D092F
ENCODING -1
SWIDTH 1050 0
DWIDTH 9 0
BBX 10 6 0 0
BITMAP
FFC0
7A80
A480
9480
A780
7880
ENDCHAR
STARTCHAR uni0935094D092F
ENCODING -1
SWIDTH 852 0
DWIDTH 8 0
BBX 8 6 0 0
BITMAP
FF
6A
9A
92
6E
02
ENDCHAR
STARTCHAR uni0935094D0932
ENCODING -1
SWIDTH 961 0
DWIDTH 9 0
BBX 9 6 0 0
BITMAP
FF80
6B00
9500
9100
7100
1900
ENDCHAR
STARTCHAR uni0935094D0935
ENCODING -1
SWIDTH 776 0
DWIDTH 7 0
BBX 7 6 0 0
BITMAP
FE
6C
94
94
6C
04
ENDCHAR
STARTCHAR uni0935094D0939
ENCODING -1
SWIDTH 754 0
DWIDTH 7 0
BBX 7 7 0 -1
BITMAP
FE
4C
90
8C
74
10
0C
ENDCHAR
STARTCHAR uni0936094D0915
ENCODING -1
SWIDTH 1093 0
DWIDTH 10 0
BBX 10 6 0 0
BITMAP
6FC0
AF80
2A40
EA40
4F80
6200
ENDCHAR
STARTCHAR uni0936094D091A
ENCODING -1
SWIDTH 950 0
DWIDTH 9 0
BBX 9 6 0 0
BITMAP
6F80
A100
2D00
E900
4700
6100
ENDCHAR
STARTCHAR uni0936094D091B
ENCODING -1
SWIDTH 968 0
DWIDTH 9 0
BBX 9 6 0 0
BITMAP
6F80
A900
2F00
C900
4900
6F00
ENDCHAR
STARTCHAR uni0936094D091F
ENCODING -1
SWIDTH 854 0
DWIDTH 8 0
BBX 8 6 0 0
BITMAP
6F
26
28
E8
49
6E
ENDCHAR
STARTCHAR uni0936094D0924
ENCODING -1
SWIDTH 864 0
DWIDTH 8 0
BBX 8 6 0 0
BITMAP
6F
A2
2E
EA
4A
6A
ENDCHAR
STARTCHAR uni0936094D092E
ENCODING -1
SWIDTH 885 0
DWIDTH 8 0
BBX 8 6 0 0
BITMAP
6F
AA
2E
EA
4A
62
ENDCHAR
STARTCHAR uni0936094D092F
ENCODING -1
SWIDTH 940 0
DWIDTH 8 0
BBX 9 6 0 0
BITMAP
6F80
A500
2900
E900
4700
6100
ENDCHAR
STARTCHAR uni0936094D0932
ENCODING -1
SWIDTH 1039 0
DWIDTH 9 0
BBX 9 6 0 0
BITMAP
6F80
2D80
2A80
EA80
4880
6C80
ENDCHAR
STARTCHAR uni0936094D0935
ENCODING -1
SWIDTH 850 0
DWIDTH 8 0
BBX 8 6 0 0
BITMAP
6F
AE
2A
EA
4E
62
ENDCHAR
STARTCHAR uni0936094D0936
ENCODING -1
SWIDTH 1009 0
DWIDTH 9 0
BBX 9 6 0 0
BITMAP
6E80
AA80
2280
EC80
4880
6480
ENDCHAR
STARTCHAR uni0937094D0915
ENCODING -1
SWIDTH 1039 0
DWIDTH 9 0
BBX 9 6 0 0
BITMAP
FF80
CB00
B280
9280
6D00
0200
ENDCHAR
STARTCHAR uni0937094D091F
ENCODING -1
SWIDTH 493 0
DWIDTH 4 0
BBX 5 6 0 0
BITMAP
F8
B0
70
80
90
70
ENDCHAR
STARTCHAR uni0937094D0920
ENCODING -1
SWIDTH 511 0
DWIDTH 5 0
BBX 5 6 0 0
BITMAP
F8
70
70
90
90
70
ENDCHAR
STARTCHAR uni0937094D0923
ENCODING -1
SWIDTH 980 0
DWIDTH 9 0
BBX 9 6 0 0
BITMAP
FF80
D500
B500
9500
6D00
0100
ENDCHAR
STARTCHAR uni0937094D092A
ENCODING -1
SWIDTH 980 0
DWIDTH 9 0
BBX 9 6 0 0
BITMAP
FF80
D500
B500
9500
6D00
0100
ENDCHAR
STARTCHAR uni0937094D092B
ENCODING -1
SWIDTH 1036 0
DWIDTH 9 0
BBX 9 6 0 0
BITMAP
FF80
D300
B280
9280
6F00
0200
ENDCHAR
STARTCHAR uni0937094D092E
ENCODING -1
SWIDTH 791 0
DWIDTH 7 0
BBX 7 6 0 0
BITMAP
FE
D2
BC
92
72
02
ENDCHAR
STARTCHAR uni0937094D092F
ENCODING -1
SWIDTH 877 0
DWIDTH 8 0
BBX 8 6 0 0
BITMAP
FF
CA
BA
92
6E
02
ENDCHAR
STARTCHAR uni0937094D0935
ENCODING -1
SWIDTH 802 0
DWIDTH 7 0
BBX 7 6 0 0
BITMAP
FE
CA
B2
92
6C
02
ENDCHAR
STARTCHAR uni0937094D0937
ENCODING -1
SWIDTH 804 0
DWIDTH 7 0
BBX 7 6 0 0
BITMAP
FE
DA
B4
92
6C
02
ENDCHAR
STARTCHAR uni0938094D0915
ENCODING -1
SWIDTH 1089 0
DWIDTH 10 0
BBX 10 6 0 0
BITMAP
FFC0
4F80
4A40
F240
4F80
4200
ENDCHAR
STARTCHAR uni0938094D0916
ENCODING -1
SWIDTH 990 0
DWIDTH 9 0
BBX 9 6 0 0
BITMAP
FF80
4B00
4D00
F500
5300
4900
ENDCHAR
STARTCHAR uni0938094D091C
ENCODING -1
SWIDTH 970 0
DWIDTH 9 0
BBX 9 6 0 0
BITMAP
FF80
4100
4F00
F300
4300
4D00
ENDCHAR
STARTCHAR uni0938094D091F
ENCODING -1
SWIDTH 844 0
DWIDTH 8 0
BBX 8 6 0 0
BITMAP
FF
46
48
F0
4A
4E
ENDCHAR
STARTCHAR uni0938094D0924
ENCODING -1
SWIDTH 852 0
DWIDTH 8 0
BBX 8 6 0 0
BITMAP
FF
42
4E
F2
4A
4A
ENDCHAR
STARTCHAR uni0938094D0925
ENCODING -1
SWIDTH 960 0
DWIDTH 9 0
BBX 9 6 0 0
BITMAP
ED80
4B00
FD00
8900
4F00
4100
ENDCHAR
STARTCHAR uni0938094D0926
ENCODING -1
SWIDTH 851 0
DWIDTH 8 0
BBX 8 6 0 0
BITMAP
FF
4E
48
F0
4E
42
ENDCHAR
STARTCHAR uni0938094D092A
ENCODING -1
SWIDTH 857 0
DWIDTH 8 0
BBX 8 6 0 0
BITMAP
FF
4A
4A
F2
4E
42
ENDCHAR
STARTCHAR uni0938094D092B
ENCODING -1
SWIDTH 1092 0
DWIDTH 10 0
BBX 10 6 0 0
BITMAP
FFC0
4B80
4A40
F240
4F80
4200
ENDCHAR
STARTCHAR uni0938094D092C
ENCODING -1
SWIDTH 857 0
DWIDTH 8 0
BBX 8 6 0 0
BITMAP
FF
4E
4A
F6
4E
42
ENDCHAR
STARTCHAR uni0938094D092E
ENCODING -1
SWIDTH 850 0
DWIDTH 8 0
BBX 8 6 0 0
BITMAP
FF
4A
4A
FE
4A
42
ENDCHAR
STARTCHAR uni0938094D092F
ENCODING -1
SWIDTH 920 0
DWIDTH 8 0
BBX 8 6 0 0
BITMAP
FF
45
49
F1
4E
41
ENDCHAR
STARTCHAR uni0938094D0932
ENCODING -1
SWIDTH 1027 0
DWIDTH 9 0
BBX 9 6 0 0
BITMAP
FF80
4F00
4A80
F280
4880
4C80
ENDCHAR
STARTCHAR uni0938094D0935
ENCODING -1
SWIDTH 842 0
DWIDTH 8 0
BBX 8 6 0 0
BITMAP
FF
4E
4A
F2
4E
42
ENDCHAR
STARTCHAR uni0938094D0938
ENCODING -1
SWIDTH 871 0
DWIDTH 8 0
BBX 8 6 0 0
BITMAP
FF
4A
4A
FE
52
4A
ENDCHAR
STARTCHAR uni0939094D0923
ENCODING -1
SWIDTH 1136 0
DWIDTH 10 0
BBX 10 8 0 -2
BITMAP
FFC0
7540
8540
7640
8040
7040
2000
1000
ENDCHAR
STARTCHAR uni0939094D092E
ENCODING -1
SWIDTH 746 0
DWIDTH 7 0
BBX 7 7 0 -1
BITMAP
FE
74
84
74
9C
94
70
ENDCHAR
STARTCHAR uni0939094D092F
ENCODING -1
SWIDTH 785 0
DWIDTH 7 0
BBX 7 7 0 -1
BITMAP
FE
72
82
72
8A
92
7E
ENDCHAR
STARTCHAR uni0939094D0932
ENCODING -1
SWIDTH 1110 0
DWIDTH 10 0
BBX 10 8 0 -2
BITMAP
FFC0
7780
8A80
6A80
9880
7480
2000
2000
ENDCHAR
STARTCHAR uni0939094D0935
ENCODING -1
SWIDTH 920 0
DWIDTH 8 0
BBX 8 8 0 -2
BITMAP
FF
75
89
69
96
71
20
20
ENDCHAR
STARTCHAR uni0915093C094D0915093C
ENCODING -1
SWIDTH 1275 0
DWIDTH 11 0
BBX 12 7 0 -1
BITMAP
FFF0
5AC0
94A0
94A0
6340
1080
4200
ENDCHAR
STARTCHAR uni0915093C094D0924
ENCODING -1
SWIDTH 1016 0
DWIDTH 9 0
BBX 9 7 0 -1
BITMAP
FF80
5880
9700
9480
6480
1680
4000
ENDCHAR
STARTCHAR uni0915093C094D092B
ENCODING -1
SWIDTH 1246 0
DWIDTH 11 0
BBX 11 7 0 -1
BITMAP
FFE0
5CC0
9520
9520
6340
1100
4000
ENDCHAR
STARTCHAR uni0915093C094D092B093C
ENCODING -1
SWIDTH 1247 0
DWIDTH 11 0
BBX 11 7 0 -1
BITMAP
FFE0
5CC0
9520
9520
6340
1100
4200
ENDCHAR
STARTCHAR uni0915093C094D092C
ENCODING -1
SWIDTH 1043 0
DWIDTH 9 0
BBX 10 7 0 -1
BITMAP
FFC0
5E80
9280
9580
6380
1080
4000
ENDCHAR
STARTCHAR uni0915093C094D092E
ENCODING -1
SWIDTH 998 0
DWIDTH 9 0
BBX 9 7 0 -1
BITMAP
FF80
5D00
9700
9500
6100
1100
4000
ENDCHAR
STARTCHAR uni0916093C094D0924
ENCODING -1
SWIDTH 984 0
DWIDTH 9 0
BBX 9 7 0 -1
BITMAP
FF80
3100
2700
D500
5900
4700
0800
ENDCHAR
STARTCHAR uni0916093C094D092E
ENCODING -1
SWIDTH 965 0
DWIDTH 9 0
BBX 9 7 0 -1
BITMAP
FF80
3500
2700
D500
5900
4100
0800
ENDCHAR
STARTCHAR uni0916093C094D092F
ENCODING -1
SWIDTH 1045 0
DWIDTH 9 0
BBX 10 7 0 -1
BITMAP
FFC0
3280
2480
D480
5F80
4080
0800
ENDCHAR
STARTCHAR uni0916093C094D0935
ENCODING -1
SWIDTH 972 0
DWIDTH 9 0
BBX 9 7 0 -1
BITMAP
FF80
3300
2500
D500
4F00
4100
0800
ENDCHAR
STARTCHAR uni0916093C094D0936
ENCODING -1
SWIDTH 1123 0
DWIDTH 10 0
BBX 10 7 0 -1
BITMAP
FF40
3140
2140
D640
5C40
4240
0800
ENDCHAR
STARTCHAR uni0916093C094D0938
ENCODING -1
SWIDTH 1066 0
DWIDTH 10 0
BBX 10 7 0 -1
BITMAP
FFC0
3280
2280
D780
5C80
4280
0800
ENDCHAR
STARTCHAR uni091C093C094D091C093C
ENCODING -1
SWIDTH 934 0
DWIDTH 8 0
BBX 8 7 0 -1
BITMAP
FF
01
6E
25
25
D9
88
ENDCHAR
STARTCHAR uni091C093C094D092F
ENCODING -1
SWIDTH 893 0
DWIDTH 8 0
BBX 8 7 0 -1
BITMAP
FF
06
7A
32
2E
C2
80
ENDCHAR
STARTCHAR uni092B093C094D091C093C
ENCODING -1
SWIDTH 1100 0
DWIDTH 10 0
BBX 10 7 0 -1
BITMAP
FFC0
9080
9B80
9180
7180
1680
4200
ENDCHAR
STARTCHAR uni092B093C094D0924
ENCODING -1
SWIDTH 1036 0
DWIDTH 9 0
BBX 9 7 0 -1
BITMAP
FF80
9C80
9380
9480
7480
1680
4000
ENDCHAR
STARTCHAR uni092B093C094D092B093C
ENCODING -1
SWIDTH 1256 0
DWIDTH 11 0
BBX 11 7 0 -1
BITMAP
FFE0
9CC0
94A0
94A0
73C0
1080
4200
ENDCHAR
STARTCHAR uni092B093C094D0938
ENCODING -1
SWIDTH 1141 0
DWIDTH 10 0
BBX 10 7 0 -1
BITMAP
FFC0
9A40
9640
9780
7240
1240
4000
ENDCHAR
STARTCHAR uni092C094D091C093C
ENCODING -1
SWIDTH 883 0
DWIDTH 8 0
BBX 8 7 0 -1
BITMAP
FF
42
8E
C6
A6
7A
10
ENDCHAR
STARTCHAR uni0932094D091C093C
ENCODING -1
SWIDTH 1062 0
DWIDTH 10 0
BBX 9 7 0 -1
BITMAP
FF80
7780
A280
A280
8280
6C80
0400
ENDCHAR
STARTCHAR uni0936094D0915093C
ENCODING -1
SWIDTH 1093 0
DWIDTH 10 0
BBX 10 7 0 -1
BITMAP
6FC0
AF80
2A40
EA40
4F80
6200
0800
ENDCHAR
STARTCHAR uni0924094D0924094D
ENCODING -1
SWIDTH 309 0
DWIDTH 3 0
BBX 4 6 0 0
BITMAP
F0
00
F0
40
40
60
ENDCHAR
STARTCHAR uni0928094D092D094D
ENCODING -1
SWIDTH 505 0
DWIDTH 5 0
BBX 6 4 0 2
BITMAP
EC
10
7C
90
ENDCHAR
STARTCHAR uni0928094D0938094D
ENCODING -1
SWIDTH 635 0
DWIDTH 6 0
BBX 7 6 0 0
BITMAP
FE
08
68
9E
10
08
ENDCHAR
STARTCHAR uni092E094D092D094D
ENCODING -1
SWIDTH 533 0
DWIDTH 5 0
BBX 6 4 0 2
BITMAP
F4
90
7C
90
ENDCHAR
STARTCHAR uni0932094D092D094D
ENCODING -1
SWIDTH 694 0
DWIDTH 6 0
BBX 7 6 0 0
BITMAP
FA
08
78
A6
A8
60
ENDCHAR
STARTCHAR uni0938094D0924094D0930094D
ENCODING -1
SWIDTH 575 0
DWIDTH 5 0
BBX 6 6 0 0
BITMAP
FC
40
4C
F4
44
58
ENDCHAR
STARTCHAR uni0915094D0924094D092F
ENCODING -1
SWIDTH 1356 0
DWIDTH 12 0
BBX 12 6 0 0
BITMAP
FFF0
5850
9390
9510
64E0
1610
ENDCHAR
STARTCHAR uni0915094D0924094D0930
ENCODING -1
SWIDTH 997 0
DWIDTH 9 0
BBX 9 6 0 0
BITMAP
FF80
5900
9700
9500
6300
1500
ENDCHAR
STARTCHAR uni0915094D0924094D0935
ENCODING -1
SWIDTH 1242 0
DWIDTH 11 0
BBX 11 6 0 0
BITMAP
FFE0
58A0
9720
9520
64C0
1620
ENDCHAR
STARTCHAR uni0915094D092A094D0930
ENCODING -1
SWIDTH 1007 0
DWIDTH 9 0
BBX 9 6 0 0
BITMAP
FF80
5C80
9480
9300
6280
1480
ENDCHAR
STARTCHAR uni0915094D0935094D092F
ENCODING -1
SWIDTH 1384 0
DWIDTH 12 0
BBX 13 6 0 0
BITMAP
FFF8
5A50
9490
9490
6370
1010
ENDCHAR
STARTCHAR uni0915094D0938094D091F
ENCODING -1
SWIDTH 1376 0
DWIDTH 12 0
BBX 13 6 0 0
BITMAP
FFF8
5960
9580
9780
6290
1270
ENDCHAR
STARTCHAR uni0915094D0938094D0921
ENCODING -1
SWIDTH 1388 0
DWIDTH 12 0
BBX 13 6 0 0
BITMAP
FFF8
5970
9540
96F0
6250
1270
ENDCHAR
STARTCHAR uni0915094D0938094D0924
ENCODING -1
SWIDTH 1423 0
DWIDTH 13 0
BBX 13 6 0 0
BITMAP
FFF8
5910
9570
9790
6250
1250
ENDCHAR
STARTCHAR uni0915094D0938094D092A094D0930
ENCODING -1
SWIDTH 1437 0
DWIDTH 13 0
BBX 13 6 0 0
BITMAP
FFF8
5D50
97D0
9230
6230
1150
ENDCHAR
STARTCHAR uni0915094D0938094D092A094D0932
ENCODING -1
SWIDTH 1866 0
DWIDTH 17 0
BBX 17 6 0 0
BITMAP
FFFF80
594B00
955500
97D500
623100
121900
ENDCHAR
STARTCHAR uni0917094D0927094D092F
ENCODING -1
SWIDTH 1156 0
DWIDTH 10 0
BBX 11 6 0 0
BITMAP
FFE0
5140
5A40
9240
13C0
0C40
ENDCHAR
STARTCHAR uni0917094D0927094D0935
ENCODING -1
SWIDTH 1084 0
DWIDTH 10 0
BBX 10 6 0 0
BITMAP
FFC0
5380
4A80
9280
1380
0C80
ENDCHAR
STARTCHAR uni0917094D0928094D092F
ENCODING -1
SWIDTH 1069 0
DWIDTH 10 0
BBX 10 6 0 0
BITMAP
FFC0
4280
5E80
9480
0380
0080
ENDCHAR
STARTCHAR uni0917094D092D094D092F
ENCODING -1
SWIDTH 1102 0
DWIDTH 10 0
BBX 10 6 0 0
BITMAP
F7C0
5280
5C80
9480
0380
0080
ENDCHAR
STARTCHAR uni0917094D0930094D092F
ENCODING -1
SWIDTH 817 0
DWIDTH 7 0
BBX 7 6 0 0
BITMAP
FE
4A
52
92
1E
0A
ENDCHAR
STARTCHAR uni091A094D091B094D0935
ENCODING -1
SWIDTH 913 0
DWIDTH 8 0
BBX 8 7 0 -1
BITMAP
FF
12
E9
51
7E
09
0E
ENDCHAR
STARTCHAR uni091C094D091C094D091E
ENCODING -1
SWIDTH 945 0
DWIDTH 9 0
BBX 9 6 0 0
BITMAP
FF80
0F00
7100
2D00
3300
DF00
ENDCHAR
STARTCHAR uni091C094D091C094D092F
ENCODING -1
SWIDTH 1252 0
DWIDTH 11 0
BBX 11 6 0 0
BITMAP
FFE0
00A0
6F20
2520
25C0
D820
ENDCHAR
STARTCHAR uni091C094D091C094D0935
ENCODING -1
SWIDTH 1243 0
DWIDTH 11 0
BBX 11 6 0 0
BITMAP
FFE0
01C0
6E40
2540
25C0
D840
ENDCHAR
STARTCHAR uni0924094D0915094D092F
ENCODING -1
SWIDTH 1346 0
DWIDTH 12 0
BBX 12 6 0 0
BITMAP
FFF0
1C50
6790
9510
9CE0
4410
ENDCHAR
STARTCHAR uni0924094D0915094D0930
ENCODING -1
SWIDTH 995 0
DWIDTH 9 0
BBX 9 6 0 0
BITMAP
FF80
1F00
6480
9480
9D00
5C00
ENDCHAR
STARTCHAR uni0924094D0915094D0935
ENCODING -1
SWIDTH 1282 0
DWIDTH 12 0
BBX 12 6 0 0
BITMAP
FFF0
1FE0
64A0
9520
9CE0
4420
ENDCHAR
STARTCHAR uni0924094D0915094D0937
ENCODING -1
SWIDTH 943 0
DWIDTH 8 0
BBX 9 6 0 0
BITMAP
ED80
1500
6F00
9100
9D00
4500
ENDCHAR
STARTCHAR uni0924094D0916094D0930
ENCODING -1
SWIDTH 1008 0
DWIDTH 9 0
BBX 9 6 0 0
BITMAP
FF80
0A80
6C80
9C80
9300
4A80
ENDCHAR
STARTCHAR uni0924094D0924094D092F
ENCODING -1
SWIDTH 888 0
DWIDTH 8 0
BBX 8 6 0 0
BITMAP
FF
06
FA
52
4E
62
ENDCHAR
STARTCHAR uni0924094D0924094D0935
ENCODING -1
SWIDTH 788 0
DWIDTH 7 0
BBX 7 6 0 0
BITMAP
FE
0A
F2
52
4C
62
ENDCHAR
STARTCHAR uni0924094D0928094D092F
ENCODING -1
SWIDTH 1098 0
DWIDTH 10 0
BBX 10 6 0 0
BITMAP
FFC0
0280
6E80
9480
8380
4080
ENDCHAR
STARTCHAR uni0924094D092A094D0930
ENCODING -1
SWIDTH 763 0
DWIDTH 7 0
BBX 7 6 0 0
BITMAP
FE
74
94
8C
8C
54
ENDCHAR
STARTCHAR uni0924094D092A094D0932
ENCODING -1
SWIDTH 1219 0
DWIDTH 11 0
BBX 11 6 0 0
BITMAP
FFE0
12C0
7540
9540
8C40
4240
ENDCHAR
STARTCHAR uni0924094D092E094D092F
ENCODING -1
SWIDTH 1096 0
DWIDTH 10 0
BBX 10 6 0 0
BITMAP
FFC0
1280
7C80
9480
8380
4080
ENDCHAR
STARTCHAR uni0924094D0930094D092F
ENCODING -1
SWIDTH 848 0
DWIDTH 8 0
BBX 8 6 0 0
BITMAP
FF
6A
9A
12
2E
42
ENDCHAR
STARTCHAR uni0924094D0938094D092F
ENCODING -1
SWIDTH 1234 0
DWIDTH 11 0
BBX 11 6 0 0
BITMAP
FFE0
08A0
6920
9E20
89C0
4820
ENDCHAR
STARTCHAR uni0924094D0938094D0935
ENCODING -1
SWIDTH 1155 0
DWIDTH 10 0
BBX 11 6 0 0
BITMAP
FFE0
0940
6A40
9E40
89C0
4840
ENDCHAR
STARTCHAR uni0926094D0917094D0930
ENCODING -1
SWIDTH 493 0
DWIDTH 4 0
BBX 5 8 0 -2
BITMAP
F8
70
80
90
70
50
70
40
ENDCHAR
STARTCHAR uni0926094D092C094D0930
ENCODING -1
SWIDTH 483 0
DWIDTH 4 0
BBX 4 8 0 -2
BITMAP
F0
70
80
90
70
B0
60
20
ENDCHAR
STARTCHAR uni0926094D092F094D092D
ENCODING -1
SWIDTH 607 0
DWIDTH 5 0
BBX 6 8 0 -2
BITMAP
FC
68
48
68
78
68
A8
20
ENDCHAR
STARTCHAR uni0926094D092F094D0930
ENCODING -1
SWIDTH 595 0
DWIDTH 5 0
BBX 5 7 0 -1
BITMAP
F8
68
88
68
88
58
20
ENDCHAR
STARTCHAR uni0927094D0928094D092F
ENCODING -1
SWIDTH 1138 0
DWIDTH 10 0
BBX 10 6 0 0
BITMAP
DFC0
8140
4E40
9440
7380
0040
ENDCHAR
STARTCHAR uni0928094D0915094D0938
ENCODING -1
SWIDTH 1384 0
DWIDTH 12 0
BBX 13 6 0 0
BITMAP
FFF8
1E50
6550
94F0
1C90
0450
ENDCHAR
STARTCHAR uni0928094D0924094D092F
ENCODING -1
SWIDTH 1073 0
DWIDTH 10 0
BBX 10 6 0 0
BITMAP
FFC0
0280
7E80
A480
2380
1080
ENDCHAR
STARTCHAR uni0928094D0924094D0930
ENCODING -1
SWIDTH 732 0
DWIDTH 7 0
BBX 7 6 0 0
BITMAP
FE
04
7C
A4
0C
14
ENDCHAR
STARTCHAR uni0928094D0924094D0938
ENCODING -1
SWIDTH 1134 0
DWIDTH 10 0
BBX 10 6 0 0
BITMAP
FFC0
1A40
6640
A780
2240
1240
ENDCHAR
STARTCHAR uni0928094D0925094D092F
ENCODING -1
SWIDTH 1168 0
DWIDTH 11 0
BBX 11 6 0 0
BITMAP
DBE0
1940
7A40
A240
1DC0
0040
ENDCHAR
STARTCHAR uni0928094D0925094D0935
ENCODING -1
SWIDTH 1089 0
DWIDTH 10 0
BBX 10 6 0 0
BITMAP
DBC0
1980
7A80
A280
1F80
0080
ENDCHAR
STARTCHAR uni0928094D0926094D0930
ENCODING -1
SWIDTH 734 0
DWIDTH 7 0
BBX 7 6 0 0
BITMAP
FE
1C
60
90
1C
0C
ENDCHAR
STARTCHAR uni0928094D0926094D0935
ENCODING -1
SWIDTH 732 0
DWIDTH 7 0
BBX 7 7 0 -1
BITMAP
FE
1C
60
94
1C
14
18
ENDCHAR
STARTCHAR uni0928094D0927094D092F
ENCODING -1
SWIDTH 1097 0
DWIDTH 10 0
BBX 10 6 0 0
BITMAP
F7C0
2280
7E80
A480
2380
1C80
ENDCHAR
STARTCHAR uni0928094D0927094D0930
ENCODING -1
SWIDTH 783 0
DWIDTH 7 0
BBX 7 6 0 0
BITMAP
F6
24
7C
A4
1C
0C
ENDCHAR
STARTCHAR uni0928094D0927094D0935
ENCODING -1
SWIDTH 1036 0
DWIDTH 9 0
BBX 9 6 0 0
BITMAP
F780
2280
7C80
A480
2780
1880
ENDCHAR
STARTCHAR uni0928094D0928094D092F
ENCODING -1
SWIDTH 1071 0
DWIDTH 10 0
BBX 10 6 0 0
BITMAP
FFC0
0280
7E80
9480
0380
0080
ENDCHAR
STARTCHAR uni0928094D092A094D0930
ENCODING -1
SWIDTH 737 0
DWIDTH 7 0
BBX 7 6 0 0
BITMAP
FE
14
64
9C
0C
14
ENDCHAR
STARTCHAR uni0928094D092B094D0930
ENCODING -1
SWIDTH 975 0
DWIDTH 9 0
BBX 9 6 0 0
BITMAP
FF80
1700
6500
9D00
0F00
1400
ENDCHAR
STARTCHAR uni0928094D092D094D092F
ENCODING -1
SWIDTH 1071 0
DWIDTH 10 0
BBX 10 6 0 0
BITMAP
EFC0
1280
7C80
9480
0380
0080
ENDCHAR
STARTCHAR uni0928094D092D094D0935
ENCODING -1
SWIDTH 995 0
DWIDTH 9 0
BBX 9 6 0 0
BITMAP
EF80
1300
7D00
9500
0300
0100
ENDCHAR
STARTCHAR uni0928094D092E094D092F
ENCODING -1
SWIDTH 1071 0
DWIDTH 10 0
BBX 10 6 0 0
BITMAP
FFC0
1280
7C80
9480
0380
0080
ENDCHAR
STARTCHAR uni0928094D0938094D091F
ENCODING -1
SWIDTH 1113 0
DWIDTH 10 0
BBX 10 6 0 0
BITMAP
FFC0
0980
6A00
9E00
1240
0B80
ENDCHAR
STARTCHAR uni0928094D0938094D092E094D092F
ENCODING -1
SWIDTH 1453 0
DWIDTH 13 0
BBX 13 6 0 0
BITMAP
FFF8
0A28
6A48
9F88
1070
0808
ENDCHAR
STARTCHAR uni0928094D0938094D092F
ENCODING -1
SWIDTH 1194 0
DWIDTH 11 0
BBX 11 6 0 0
BITMAP
FFE0
0940
6B40
9E40
11C0
0840
ENDCHAR
STARTCHAR uni092A094D0924094D092F
ENCODING -1
SWIDTH 1119 0
DWIDTH 10 0
BBX 10 6 0 0
BITMAP
FFC0
8140
8E40
9440
7380
1840
ENDCHAR
STARTCHAR uni092C094D091C094D092F
ENCODING -1
SWIDTH 1235 0
DWIDTH 11 0
BBX 11 6 0 0
BITMAP
FFE0
40A0
4F20
C620
A5C0
7820
ENDCHAR
STARTCHAR uni092C094D0927094D0935
ENCODING -1
SWIDTH 1097 0
DWIDTH 10 0
BBX 10 6 0 0
BITMAP
FBC0
5180
4A80
B280
9380
6C80
ENDCHAR
STARTCHAR uni092C094D092D094D0930
ENCODING -1
SWIDTH 764 0
DWIDTH 7 0
BBX 7 6 0 0
BITMAP
F6
54
DC
B4
6C
14
ENDCHAR
STARTCHAR uni092C094D0932094D092F
ENCODING -1
SWIDTH 480 0
DWIDTH 4 0
BBX 12 6 0 0
BITMAP
FFF0
6AA0
D5A0
B520
70E0
1820
ENDCHAR
STARTCHAR uni092D094D0930094D092F
ENCODING -1
SWIDTH 830 0
DWIDTH 7 0
BBX 8 6 0 0
BITMAP
BF
8A
72
92
2E
42
ENDCHAR
STARTCHAR uni092E094D092A094D0930
ENCODING -1
SWIDTH 765 0
DWIDTH 7 0
BBX 7 6 0 0
BITMAP
FE
94
74
8C
0C
14
ENDCHAR
STARTCHAR uni092E094D092C094D092F
ENCODING -1
SWIDTH 1124 0
DWIDTH 10 0
BBX 10 6 0 0
BITMAP
FFC0
9940
6E40
9440
0F80
0040
ENDCHAR
STARTCHAR uni092E094D092C094D0930
ENCODING -1
SWIDTH 768 0
DWIDTH 7 0
BBX 7 6 0 0
BITMAP
FE
9C
6C
94
0C
0C
ENDCHAR
STARTCHAR uni092E094D092D094D092F
ENCODING -1
SWIDTH 1101 0
DWIDTH 10 0
BBX 10 6 0 0
BITMAP
F7C0
9280
7C80
9480
0380
0080
ENDCHAR
STARTCHAR uni092E094D092D094D0930
ENCODING -1
SWIDTH 759 0
DWIDTH 7 0
BBX 7 6 0 0
BITMAP
F6
94
7C
94
0C
14
ENDCHAR
STARTCHAR uni092E094D092D094D0935
ENCODING -1
SWIDTH 1028 0
DWIDTH 9 0
BBX 9 6 0 0
BITMAP
F780
9280
7C80
9480
0300
0080
ENDCHAR
STARTCHAR uni0932094D0915094D092F
ENCODING -1
SWIDTH 1534 0
DWIDTH 14 0
BBX 14 6 0 0
BITMAP
FFFC
7728
A9E8
A948
8738
6108
ENDCHAR
STARTCHAR uni0932094D0925094D092F
ENCODING -1
SWIDTH 1397 0
DWIDTH 13 0
BBX 13 6 0 0
BITMAP
F6F8
7A50
A690
A890
8770
6010
ENDCHAR
STARTCHAR uni0932094D0926094D0930
ENCODING -1
SWIDTH 933 0
DWIDTH 8 0
BBX 9 6 0 0
BITMAP
FF80
7F00
A800
A800
8700
6300
ENDCHAR
STARTCHAR uni0932094D0932094D092F
ENCODING -1
SWIDTH 1476 0
DWIDTH 13 0
BBX 13 6 0 0
BITMAP
FFF8
7FA8
AA48
AA48
8870
6408
ENDCHAR
STARTCHAR uni0932094D0935094D0921
ENCODING -1
SWIDTH 1247 0
DWIDTH 11 0
BBX 11 6 0 0
BITMAP
FFE0
7EC0
A900
A8C0
8720
61E0
ENDCHAR
STARTCHAR uni0937094D0915094D0930
ENCODING -1
SWIDTH 1042 0
DWIDTH 9 0
BBX 10 6 0 0
BITMAP
FFC0
CB00
B280
9280
6D00
0A00
ENDCHAR
STARTCHAR uni0937094D091F094D092F
ENCODING -1
SWIDTH 997 0
DWIDTH 9 0
BBX 9 6 0 0
BITMAP
FF80
BD00
7300
8500
9700
7100
ENDCHAR
STARTCHAR uni0937094D091F094D0930
ENCODING -1
SWIDTH 493 0
DWIDTH 4 0
BBX 5 7 0 -1
BITMAP
F8
B0
70
80
90
50
70
ENDCHAR
STARTCHAR uni0937094D091F094D0935
ENCODING -1
SWIDTH 493 0
DWIDTH 4 0
BBX 5 8 0 -2
BITMAP
F8
D0
B0
70
90
70
90
60
ENDCHAR
STARTCHAR uni0937094D0920094D092F
ENCODING -1
SWIDTH 1006 0
DWIDTH 9 0
BBX 9 6 0 0
BITMAP
FF80
7C80
7280
9480
9700
7080
ENDCHAR
STARTCHAR uni0937094D0920094D0930
ENCODING -1
SWIDTH 512 0
DWIDTH 5 0
BBX 5 7 0 -1
BITMAP
F8
70
70
90
90
50
70
ENDCHAR
STARTCHAR uni0937094D0923094D092F
ENCODING -1
SWIDTH 1273 0
DWIDTH 11 0
BBX 12 6 0 0
BITMAP
FFF0
D4A0
B520
9520
68E0
0020
ENDCHAR
STARTCHAR uni0937094D092A094D0930
ENCODING -1
SWIDTH 798 0
DWIDTH 7 0
BBX 7 6 0 0
BITMAP
FE
B2
92
6C
0A
1A
ENDCHAR
STARTCHAR uni0937094D092E094D092F
ENCODING -1
SWIDTH 1121 0
DWIDTH 10 0
BBX 10 6 0 0
BITMAP
FFC0
D140
BE40
9440
6380
0040
ENDCHAR
STARTCHAR uni0938094D0915094D0930
ENCODING -1
SWIDTH 1084 0
DWIDTH 10 0
BBX 10 6 0 0
BITMAP
FFC0
4F80
4A80
F280
4F80
4E00
ENDCHAR
STARTCHAR uni0938094D0915094D0935
ENCODING -1
SWIDTH 1369 0
DWIDTH 12 0
BBX 12 6 0 0
BITMAP
FFF0
4FD0
4A90
F290
4E70
4210
ENDCHAR
STARTCHAR uni0938094D0924094D092F
ENCODING -1
SWIDTH 1185 0
DWIDTH 11 0
BBX 11 6 0 0
BITMAP
FFE0
4140
4F40
F240
51C0
4840
ENDCHAR
STARTCHAR uni0938094D0924094D0930
ENCODING -1
SWIDTH 818 0
DWIDTH 7 0
BBX 7 6 0 0
BITMAP
FE
42
4E
F2
46
4A
ENDCHAR
STARTCHAR uni0938094D0924094D0935
ENCODING -1
SWIDTH 1126 0
DWIDTH 10 0
BBX 10 6 0 0
BITMAP
FFC0
4140
4E40
F240
5180
4840
ENDCHAR
STARTCHAR uni0938094D0925094D092F
ENCODING -1
SWIDTH 1303 0
DWIDTH 12 0
BBX 12 6 0 0
BITMAP
EDF0
4AA0
4DA0
F120
4EE0
4020
ENDCHAR
STARTCHAR uni0938094D092A094D0930
ENCODING -1
SWIDTH 850 0
DWIDTH 8 0
BBX 8 6 0 0
BITMAP
FF
4A
F2
8E
46
4A
ENDCHAR
STARTCHAR uni0938094D092E094D092F
ENCODING -1
SWIDTH 1189 0
DWIDTH 11 0
BBX 11 6 0 0
BITMAP
FFE0
4940
4B40
FE40
41C0
4040
ENDCHAR
STARTCHAR uni093F.a01
ENCODING -1
SWIDTH 231 0
DWIDTH 2 0
BBX 4 8 0 0
BITMAP
70
50
C0
40
40
40
40
40
ENDCHAR
STARTCHAR uni093F.a04
ENCODING -1
SWIDTH 231 0
DWIDTH 2 0
BBX 6 8 0 0
BITMAP
7C
44
C0
40
40
40
40
40
ENDCHAR
STARTCHAR uni093F.a05
ENCODING -1
SWIDTH 231 0
DWIDTH 2 0
BBX 6 8 0 0
BITMAP
7C
44
C0
40
40
40
40
40
ENDCHAR
STARTCHAR uni093F.a06
ENCODING -1
SWIDTH 231 0
DWIDTH 2 0
BBX 7 8 0 0
BITMAP
7E
42
C0
40
40
40
40
40
ENDCHAR
STARTCHAR uni093F.a07
ENCODING -1
SWIDTH 231 0
DWIDTH 2 0
BBX 7 8 0 0
BITMAP
7E
42
C0
40
40
40
40
40
ENDCHAR
STARTCHAR uni093F.a08
ENCODING -1
SWIDTH 231 0
DWIDTH 2 0
BBX 7 8 0 0
BITMAP
7E
42
C0
40
40
40
40
40
ENDCHAR
STARTCHAR uni093F.a09
ENCODING -1
SWIDTH 231 0
DWIDTH 2 0
BBX 8 8 0 0
BITMAP
7F
41
C0
40
40
40
40
40
ENDCHAR
STARTCHAR uni093F.a10
ENCODING -1
SWIDTH 231 0
DWIDTH 2 0
BBX 8 8 0 0
BITMAP
7F
41
C0
40
40
40
40
40
ENDCHAR
STARTCHAR uni093F.a11
ENCODING -1
SWIDTH 231 0
DWIDTH 2 0
BBX 9 8 0 0
BITMAP
7F80
4080
C000
4000
4000
4000
4000
4000
ENDCHAR
STARTCHAR uni093F.a12
ENCODING -1
SWIDTH 231 0
DWIDTH 2 0
BBX 9 8 0 0
BITMAP
7F80
4080
C000
4000
4000
4000
4000
4000
ENDCHAR
STARTCHAR uni093F.a13
ENCODING -1
SWIDTH 231 0
DWIDTH 2 0
BBX 9 8 0 0
BITMAP
7F80
4080
C000
4000
4000
4000
4000
4000
ENDCHAR
STARTCHAR uni093F.a14
ENCODING -1
SWIDTH 231 0
DWIDTH 2 0
BBX 10 8 0 0
BITMAP
7FC0
4040
C000
4000
4000
4000
4000
4000
ENDCHAR
STARTCHAR uni093F.a15
ENCODING -1
SWIDTH 231 0
DWIDTH 2 0
BBX 10 8 0 0
BITMAP
7FC0
4040
C000
4000
4000
4000
4000
4000
ENDCHAR
STARTCHAR uni093F.a16
ENCODING -1
SWIDTH 231 0
DWIDTH 2 0
BBX 11 8 0 0
BITMAP
7FE0
4020
C000
4000
4000
4000
4000
4000
ENDCHAR
STARTCHAR uni093F.a17
ENCODING -1
SWIDTH 231 0
DWIDTH 2 0
BBX 11 8 0 0
BITMAP
7FE0
4020
C000
4000
4000
4000
4000
4000
ENDCHAR
STARTCHAR uni093F.a18
ENCODING -1
SWIDTH 231 0
DWIDTH 2 0
BBX 12 8 0 0
BITMAP
7FF0
4010
C000
4000
4000
4000
4000
4000
ENDCHAR
STARTCHAR uni093F.a19
ENCODING -1
SWIDTH 231 0
DWIDTH 2 0
BBX 12 8 0 0
BITMAP
7FF0
4010
C000
4000
4000
4000
4000
4000
ENDCHAR
STARTCHAR uni093F.a20
ENCODING -1
SWIDTH 231 0
DWIDTH 2 0
BBX 12 8 0 0
BITMAP
7FF0
4010
C000
4000
4000
4000
4000
4000
ENDCHAR
STARTCHAR uni093F.a21
ENCODING -1
SWIDTH 231 0
DWIDTH 2 0
BBX 13 8 0 0
BITMAP
7FF8
4008
C000
4000
4000
4000
4000
4000
ENDCHAR
STARTCHAR uni093F.a22
ENCODING -1
SWIDTH 231 0
DWIDTH 2 0
BBX 13 8 0 0
BITMAP
7FF8
4008
C000
4000
4000
4000
4000
4000
ENDCHAR
STARTCHAR uni093F.a23
ENCODING -1
SWIDTH 231 0
DWIDTH 2 0
BBX 14 8 0 0
BITMAP
7FFC
4004
C000
4000
4000
4000
4000
4000
ENDCHAR
STARTCHAR uni093F.a24
ENCODING -1
SWIDTH 231 0
DWIDTH 2 0
BBX 14 8 0 0
BITMAP
7FFC
4004
C000
4000
4000
4000
4000
4000
ENDCHAR
STARTCHAR uni093F.a25
ENCODING -1
SWIDTH 231 0
DWIDTH 2 0
BBX 15 8 0 0
BITMAP
7FFE
4002
C000
4000
4000
4000
4000
4000
ENDCHAR
STARTCHAR uni093F.a26
ENCODING -1
SWIDTH 231 0
DWIDTH 2 0
BBX 15 8 0 0
BITMAP
7FFE
4002
C000
4000
4000
4000
4000
4000
ENDCHAR
STARTCHAR uni093F.a32
ENCODING -1
SWIDTH 231 0
DWIDTH 2 0
BBX 18 8 0 0
BITMAP
7FFFC0
400040
C00000
400000
400000
400000
400000
400000
ENDCHAR
STARTCHAR uni093E0901
ENCODING -1
SWIDTH 231 0
DWIDTH 2 0
BBX 2 8 0 0
BITMAP
40
C0
40
40
40
40
40
40
ENDCHAR
STARTCHAR dvNG_GA
ENCODING -1
SWIDTH 562 0
DWIDTH 5 0
BBX 5 9 0 -3
BITMAP
F8
70
88
70
10
70
50
90
10
ENDCHAR
STARTCHAR dvNG_MA
ENCODING -1
SWIDTH 728 0
DWIDTH 7 0
BBX 7 8 0 -2
BITMAP
FE
64
64
14
94
5C
24
04
ENDCHAR
STARTCHAR dvNY_CA
ENCODING -1
SWIDTH 963 0
DWIDTH 9 0
BBX 9 6 0 0
BITMAP
FF80
4100
2F00
3900
C700
0100
ENDCHAR
STARTCHAR dvTT_GA
ENCODING -1
SWIDTH 510 0
DWIDTH 5 0
BBX 5 8 0 -2
BITMAP
F8
70
80
90
70
50
90
10
ENDCHAR
STARTCHAR dvTTH_TTHA
ENCODING -1
SWIDTH 511 0
DWIDTH 5 0
BBX 5 9 0 -3
BITMAP
F8
60
90
90
70
70
90
90
60
ENDCHAR
STARTCHAR dvDD_GA
ENCODING -1
SWIDTH 541 0
DWIDTH 5 0
BBX 5 9 0 -3
BITMAP
F8
70
80
70
10
70
50
90
10
ENDCHAR
STARTCHAR dvDDH_DDHA
ENCODING -1
SWIDTH 487 0
DWIDTH 4 0
BBX 5 8 0 -2
BITMAP
F8
60
B0
B0
70
80
B0
70
ENDCHAR
STARTCHAR dvSHA_MatraVocalicR
ENCODING -1
SWIDTH 558 0
DWIDTH 5 0
BBX 5 8 0 -2
BITMAP
78
B0
70
B0
10
10
20
18
ENDCHAR
STARTCHAR dvT_KH_NA
ENCODING -1
SWIDTH 1341 0
DWIDTH 12 0
BBX 12 6 0 0
BITMAP
FFF0
0B10
7D60
9C90
9310
4810
ENDCHAR
STARTCHAR dvT_S_NA
ENCODING -1
SWIDTH 1169 0
DWIDTH 11 0
BBX 11 6 0 0
BITMAP
FFE0
0840
79C0
9E40
8840
4840
ENDCHAR
ENDFONT
